G04 #@! TF.GenerationSoftware,KiCad,Pcbnew,(5.0.2)-1*
G04 #@! TF.CreationDate,2019-02-28T21:58:43-06:00*
G04 #@! TF.ProjectId,ATMEGABootloader_Hardware,41544d45-4741-4426-9f6f-746c6f616465,rev?*
G04 #@! TF.SameCoordinates,Original*
G04 #@! TF.FileFunction,Legend,Top*
G04 #@! TF.FilePolarity,Positive*
%FSLAX46Y46*%
G04 Gerber Fmt 4.6, Leading zero omitted, Abs format (unit mm)*
G04 Created by KiCad (PCBNEW (5.0.2)-1) date 2/28/2019 9:58:43 PM*
%MOMM*%
%LPD*%
G01*
G04 APERTURE LIST*
%ADD10C,0.300000*%
%ADD11C,0.120000*%
%ADD12C,0.150000*%
G04 APERTURE END LIST*
D10*
X142466714Y-74657000D02*
X143181000Y-74657000D01*
X142323857Y-75085571D02*
X142823857Y-73585571D01*
X143323857Y-75085571D01*
X143609571Y-73585571D02*
X144466714Y-73585571D01*
X144038142Y-75085571D02*
X144038142Y-73585571D01*
X144966714Y-75085571D02*
X144966714Y-73585571D01*
X145466714Y-74657000D01*
X145966714Y-73585571D01*
X145966714Y-75085571D01*
X146681000Y-74299857D02*
X147181000Y-74299857D01*
X147395285Y-75085571D02*
X146681000Y-75085571D01*
X146681000Y-73585571D01*
X147395285Y-73585571D01*
X148823857Y-73657000D02*
X148681000Y-73585571D01*
X148466714Y-73585571D01*
X148252428Y-73657000D01*
X148109571Y-73799857D01*
X148038142Y-73942714D01*
X147966714Y-74228428D01*
X147966714Y-74442714D01*
X148038142Y-74728428D01*
X148109571Y-74871285D01*
X148252428Y-75014142D01*
X148466714Y-75085571D01*
X148609571Y-75085571D01*
X148823857Y-75014142D01*
X148895285Y-74942714D01*
X148895285Y-74442714D01*
X148609571Y-74442714D01*
X149466714Y-74657000D02*
X150181000Y-74657000D01*
X149323857Y-75085571D02*
X149823857Y-73585571D01*
X150323857Y-75085571D01*
X152466714Y-74299857D02*
X151966714Y-74299857D01*
X151966714Y-75085571D02*
X151966714Y-73585571D01*
X152681000Y-73585571D01*
X153466714Y-75085571D02*
X153323857Y-75014142D01*
X153252428Y-74871285D01*
X153252428Y-73585571D01*
X154681000Y-75085571D02*
X154681000Y-74299857D01*
X154609571Y-74157000D01*
X154466714Y-74085571D01*
X154181000Y-74085571D01*
X154038142Y-74157000D01*
X154681000Y-75014142D02*
X154538142Y-75085571D01*
X154181000Y-75085571D01*
X154038142Y-75014142D01*
X153966714Y-74871285D01*
X153966714Y-74728428D01*
X154038142Y-74585571D01*
X154181000Y-74514142D01*
X154538142Y-74514142D01*
X154681000Y-74442714D01*
X155323857Y-75014142D02*
X155466714Y-75085571D01*
X155752428Y-75085571D01*
X155895285Y-75014142D01*
X155966714Y-74871285D01*
X155966714Y-74799857D01*
X155895285Y-74657000D01*
X155752428Y-74585571D01*
X155538142Y-74585571D01*
X155395285Y-74514142D01*
X155323857Y-74371285D01*
X155323857Y-74299857D01*
X155395285Y-74157000D01*
X155538142Y-74085571D01*
X155752428Y-74085571D01*
X155895285Y-74157000D01*
X156609571Y-75085571D02*
X156609571Y-73585571D01*
X157252428Y-75085571D02*
X157252428Y-74299857D01*
X157181000Y-74157000D01*
X157038142Y-74085571D01*
X156823857Y-74085571D01*
X156681000Y-74157000D01*
X156609571Y-74228428D01*
X157966714Y-75085571D02*
X157966714Y-74085571D01*
X157966714Y-73585571D02*
X157895285Y-73657000D01*
X157966714Y-73728428D01*
X158038142Y-73657000D01*
X157966714Y-73585571D01*
X157966714Y-73728428D01*
X158681000Y-74085571D02*
X158681000Y-75085571D01*
X158681000Y-74228428D02*
X158752428Y-74157000D01*
X158895285Y-74085571D01*
X159109571Y-74085571D01*
X159252428Y-74157000D01*
X159323857Y-74299857D01*
X159323857Y-75085571D01*
X160681000Y-74085571D02*
X160681000Y-75299857D01*
X160609571Y-75442714D01*
X160538142Y-75514142D01*
X160395285Y-75585571D01*
X160181000Y-75585571D01*
X160038142Y-75514142D01*
X160681000Y-75014142D02*
X160538142Y-75085571D01*
X160252428Y-75085571D01*
X160109571Y-75014142D01*
X160038142Y-74942714D01*
X159966714Y-74799857D01*
X159966714Y-74371285D01*
X160038142Y-74228428D01*
X160109571Y-74157000D01*
X160252428Y-74085571D01*
X160538142Y-74085571D01*
X160681000Y-74157000D01*
X163038142Y-74299857D02*
X163252428Y-74371285D01*
X163323857Y-74442714D01*
X163395285Y-74585571D01*
X163395285Y-74799857D01*
X163323857Y-74942714D01*
X163252428Y-75014142D01*
X163109571Y-75085571D01*
X162538142Y-75085571D01*
X162538142Y-73585571D01*
X163038142Y-73585571D01*
X163181000Y-73657000D01*
X163252428Y-73728428D01*
X163323857Y-73871285D01*
X163323857Y-74014142D01*
X163252428Y-74157000D01*
X163181000Y-74228428D01*
X163038142Y-74299857D01*
X162538142Y-74299857D01*
X164252428Y-75085571D02*
X164109571Y-75014142D01*
X164038142Y-74942714D01*
X163966714Y-74799857D01*
X163966714Y-74371285D01*
X164038142Y-74228428D01*
X164109571Y-74157000D01*
X164252428Y-74085571D01*
X164466714Y-74085571D01*
X164609571Y-74157000D01*
X164681000Y-74228428D01*
X164752428Y-74371285D01*
X164752428Y-74799857D01*
X164681000Y-74942714D01*
X164609571Y-75014142D01*
X164466714Y-75085571D01*
X164252428Y-75085571D01*
X166038142Y-75085571D02*
X166038142Y-74299857D01*
X165966714Y-74157000D01*
X165823857Y-74085571D01*
X165538142Y-74085571D01*
X165395285Y-74157000D01*
X166038142Y-75014142D02*
X165895285Y-75085571D01*
X165538142Y-75085571D01*
X165395285Y-75014142D01*
X165323857Y-74871285D01*
X165323857Y-74728428D01*
X165395285Y-74585571D01*
X165538142Y-74514142D01*
X165895285Y-74514142D01*
X166038142Y-74442714D01*
X166752428Y-75085571D02*
X166752428Y-74085571D01*
X166752428Y-74371285D02*
X166823857Y-74228428D01*
X166895285Y-74157000D01*
X167038142Y-74085571D01*
X167181000Y-74085571D01*
X168323857Y-75085571D02*
X168323857Y-73585571D01*
X168323857Y-75014142D02*
X168181000Y-75085571D01*
X167895285Y-75085571D01*
X167752428Y-75014142D01*
X167681000Y-74942714D01*
X167609571Y-74799857D01*
X167609571Y-74371285D01*
X167681000Y-74228428D01*
X167752428Y-74157000D01*
X167895285Y-74085571D01*
X168181000Y-74085571D01*
X168323857Y-74157000D01*
X169109571Y-75014142D02*
X169109571Y-75085571D01*
X169038142Y-75228428D01*
X168966714Y-75299857D01*
X171752428Y-75085571D02*
X171252428Y-74371285D01*
X170895285Y-75085571D02*
X170895285Y-73585571D01*
X171466714Y-73585571D01*
X171609571Y-73657000D01*
X171681000Y-73728428D01*
X171752428Y-73871285D01*
X171752428Y-74085571D01*
X171681000Y-74228428D01*
X171609571Y-74299857D01*
X171466714Y-74371285D01*
X170895285Y-74371285D01*
X172966714Y-75014142D02*
X172823857Y-75085571D01*
X172538142Y-75085571D01*
X172395285Y-75014142D01*
X172323857Y-74871285D01*
X172323857Y-74299857D01*
X172395285Y-74157000D01*
X172538142Y-74085571D01*
X172823857Y-74085571D01*
X172966714Y-74157000D01*
X173038142Y-74299857D01*
X173038142Y-74442714D01*
X172323857Y-74585571D01*
X173538142Y-74085571D02*
X173895285Y-75085571D01*
X174252428Y-74085571D01*
X176752428Y-75085571D02*
X175895285Y-75085571D01*
X176323857Y-75085571D02*
X176323857Y-73585571D01*
X176181000Y-73799857D01*
X176038142Y-73942714D01*
X175895285Y-74014142D01*
X142538142Y-77635571D02*
X142538142Y-76135571D01*
X143038142Y-77207000D01*
X143538142Y-76135571D01*
X143538142Y-77635571D01*
X144895285Y-77635571D02*
X144895285Y-76849857D01*
X144823857Y-76707000D01*
X144681000Y-76635571D01*
X144395285Y-76635571D01*
X144252428Y-76707000D01*
X144895285Y-77564142D02*
X144752428Y-77635571D01*
X144395285Y-77635571D01*
X144252428Y-77564142D01*
X144181000Y-77421285D01*
X144181000Y-77278428D01*
X144252428Y-77135571D01*
X144395285Y-77064142D01*
X144752428Y-77064142D01*
X144895285Y-76992714D01*
X145609571Y-77635571D02*
X145609571Y-76635571D01*
X145609571Y-76921285D02*
X145681000Y-76778428D01*
X145752428Y-76707000D01*
X145895285Y-76635571D01*
X146038142Y-76635571D01*
X146466714Y-77564142D02*
X146609571Y-77635571D01*
X146895285Y-77635571D01*
X147038142Y-77564142D01*
X147109571Y-77421285D01*
X147109571Y-77349857D01*
X147038142Y-77207000D01*
X146895285Y-77135571D01*
X146681000Y-77135571D01*
X146538142Y-77064142D01*
X146466714Y-76921285D01*
X146466714Y-76849857D01*
X146538142Y-76707000D01*
X146681000Y-76635571D01*
X146895285Y-76635571D01*
X147038142Y-76707000D01*
X149752428Y-77635571D02*
X149252428Y-76921285D01*
X148895285Y-77635571D02*
X148895285Y-76135571D01*
X149466714Y-76135571D01*
X149609571Y-76207000D01*
X149681000Y-76278428D01*
X149752428Y-76421285D01*
X149752428Y-76635571D01*
X149681000Y-76778428D01*
X149609571Y-76849857D01*
X149466714Y-76921285D01*
X148895285Y-76921285D01*
X150609571Y-77635571D02*
X150466714Y-77564142D01*
X150395285Y-77492714D01*
X150323857Y-77349857D01*
X150323857Y-76921285D01*
X150395285Y-76778428D01*
X150466714Y-76707000D01*
X150609571Y-76635571D01*
X150823857Y-76635571D01*
X150966714Y-76707000D01*
X151038142Y-76778428D01*
X151109571Y-76921285D01*
X151109571Y-77349857D01*
X151038142Y-77492714D01*
X150966714Y-77564142D01*
X150823857Y-77635571D01*
X150609571Y-77635571D01*
X151609571Y-76635571D02*
X151966714Y-77635571D01*
X152323857Y-76635571D01*
X153466714Y-77564142D02*
X153323857Y-77635571D01*
X153038142Y-77635571D01*
X152895285Y-77564142D01*
X152823857Y-77421285D01*
X152823857Y-76849857D01*
X152895285Y-76707000D01*
X153038142Y-76635571D01*
X153323857Y-76635571D01*
X153466714Y-76707000D01*
X153538142Y-76849857D01*
X153538142Y-76992714D01*
X152823857Y-77135571D01*
X154181000Y-77635571D02*
X154181000Y-76635571D01*
X154181000Y-76921285D02*
X154252428Y-76778428D01*
X154323857Y-76707000D01*
X154466714Y-76635571D01*
X154609571Y-76635571D01*
X156252428Y-77635571D02*
X156252428Y-76135571D01*
X156609571Y-76135571D01*
X156823857Y-76207000D01*
X156966714Y-76349857D01*
X157038142Y-76492714D01*
X157109571Y-76778428D01*
X157109571Y-76992714D01*
X157038142Y-77278428D01*
X156966714Y-77421285D01*
X156823857Y-77564142D01*
X156609571Y-77635571D01*
X156252428Y-77635571D01*
X158323857Y-77564142D02*
X158181000Y-77635571D01*
X157895285Y-77635571D01*
X157752428Y-77564142D01*
X157681000Y-77421285D01*
X157681000Y-76849857D01*
X157752428Y-76707000D01*
X157895285Y-76635571D01*
X158181000Y-76635571D01*
X158323857Y-76707000D01*
X158395285Y-76849857D01*
X158395285Y-76992714D01*
X157681000Y-77135571D01*
X158966714Y-77564142D02*
X159109571Y-77635571D01*
X159395285Y-77635571D01*
X159538142Y-77564142D01*
X159609571Y-77421285D01*
X159609571Y-77349857D01*
X159538142Y-77207000D01*
X159395285Y-77135571D01*
X159181000Y-77135571D01*
X159038142Y-77064142D01*
X158966714Y-76921285D01*
X158966714Y-76849857D01*
X159038142Y-76707000D01*
X159181000Y-76635571D01*
X159395285Y-76635571D01*
X159538142Y-76707000D01*
X160252428Y-77635571D02*
X160252428Y-76635571D01*
X160252428Y-76135571D02*
X160181000Y-76207000D01*
X160252428Y-76278428D01*
X160323857Y-76207000D01*
X160252428Y-76135571D01*
X160252428Y-76278428D01*
X161609571Y-76635571D02*
X161609571Y-77849857D01*
X161538142Y-77992714D01*
X161466714Y-78064142D01*
X161323857Y-78135571D01*
X161109571Y-78135571D01*
X160966714Y-78064142D01*
X161609571Y-77564142D02*
X161466714Y-77635571D01*
X161181000Y-77635571D01*
X161038142Y-77564142D01*
X160966714Y-77492714D01*
X160895285Y-77349857D01*
X160895285Y-76921285D01*
X160966714Y-76778428D01*
X161038142Y-76707000D01*
X161181000Y-76635571D01*
X161466714Y-76635571D01*
X161609571Y-76707000D01*
X162323857Y-76635571D02*
X162323857Y-77635571D01*
X162323857Y-76778428D02*
X162395285Y-76707000D01*
X162538142Y-76635571D01*
X162752428Y-76635571D01*
X162895285Y-76707000D01*
X162966714Y-76849857D01*
X162966714Y-77635571D01*
X164609571Y-76135571D02*
X165466714Y-76135571D01*
X165038142Y-77635571D02*
X165038142Y-76135571D01*
X166538142Y-77564142D02*
X166395285Y-77635571D01*
X166109571Y-77635571D01*
X165966714Y-77564142D01*
X165895285Y-77421285D01*
X165895285Y-76849857D01*
X165966714Y-76707000D01*
X166109571Y-76635571D01*
X166395285Y-76635571D01*
X166538142Y-76707000D01*
X166609571Y-76849857D01*
X166609571Y-76992714D01*
X165895285Y-77135571D01*
X167895285Y-77635571D02*
X167895285Y-76849857D01*
X167823857Y-76707000D01*
X167681000Y-76635571D01*
X167395285Y-76635571D01*
X167252428Y-76707000D01*
X167895285Y-77564142D02*
X167752428Y-77635571D01*
X167395285Y-77635571D01*
X167252428Y-77564142D01*
X167181000Y-77421285D01*
X167181000Y-77278428D01*
X167252428Y-77135571D01*
X167395285Y-77064142D01*
X167752428Y-77064142D01*
X167895285Y-76992714D01*
X168609571Y-77635571D02*
X168609571Y-76635571D01*
X168609571Y-76778428D02*
X168681000Y-76707000D01*
X168823857Y-76635571D01*
X169038142Y-76635571D01*
X169181000Y-76707000D01*
X169252428Y-76849857D01*
X169252428Y-77635571D01*
X169252428Y-76849857D02*
X169323857Y-76707000D01*
X169466714Y-76635571D01*
X169681000Y-76635571D01*
X169823857Y-76707000D01*
X169895285Y-76849857D01*
X169895285Y-77635571D01*
X142538142Y-80185571D02*
X142538142Y-78685571D01*
X143038142Y-79757000D01*
X143538142Y-78685571D01*
X143538142Y-80185571D01*
X144252428Y-80185571D02*
X144252428Y-79185571D01*
X144252428Y-78685571D02*
X144181000Y-78757000D01*
X144252428Y-78828428D01*
X144323857Y-78757000D01*
X144252428Y-78685571D01*
X144252428Y-78828428D01*
X144895285Y-80114142D02*
X145038142Y-80185571D01*
X145323857Y-80185571D01*
X145466714Y-80114142D01*
X145538142Y-79971285D01*
X145538142Y-79899857D01*
X145466714Y-79757000D01*
X145323857Y-79685571D01*
X145109571Y-79685571D01*
X144966714Y-79614142D01*
X144895285Y-79471285D01*
X144895285Y-79399857D01*
X144966714Y-79257000D01*
X145109571Y-79185571D01*
X145323857Y-79185571D01*
X145466714Y-79257000D01*
X146109571Y-80114142D02*
X146252428Y-80185571D01*
X146538142Y-80185571D01*
X146681000Y-80114142D01*
X146752428Y-79971285D01*
X146752428Y-79899857D01*
X146681000Y-79757000D01*
X146538142Y-79685571D01*
X146323857Y-79685571D01*
X146181000Y-79614142D01*
X146109571Y-79471285D01*
X146109571Y-79399857D01*
X146181000Y-79257000D01*
X146323857Y-79185571D01*
X146538142Y-79185571D01*
X146681000Y-79257000D01*
X147609571Y-80185571D02*
X147466714Y-80114142D01*
X147395285Y-80042714D01*
X147323857Y-79899857D01*
X147323857Y-79471285D01*
X147395285Y-79328428D01*
X147466714Y-79257000D01*
X147609571Y-79185571D01*
X147823857Y-79185571D01*
X147966714Y-79257000D01*
X148038142Y-79328428D01*
X148109571Y-79471285D01*
X148109571Y-79899857D01*
X148038142Y-80042714D01*
X147966714Y-80114142D01*
X147823857Y-80185571D01*
X147609571Y-80185571D01*
X149395285Y-79185571D02*
X149395285Y-80185571D01*
X148752428Y-79185571D02*
X148752428Y-79971285D01*
X148823857Y-80114142D01*
X148966714Y-80185571D01*
X149181000Y-80185571D01*
X149323857Y-80114142D01*
X149395285Y-80042714D01*
X150109571Y-80185571D02*
X150109571Y-79185571D01*
X150109571Y-79471285D02*
X150181000Y-79328428D01*
X150252428Y-79257000D01*
X150395285Y-79185571D01*
X150538142Y-79185571D01*
X151038142Y-80185571D02*
X151038142Y-79185571D01*
X151038142Y-78685571D02*
X150966714Y-78757000D01*
X151038142Y-78828428D01*
X151109571Y-78757000D01*
X151038142Y-78685571D01*
X151038142Y-78828428D01*
X152823857Y-80114142D02*
X153038142Y-80185571D01*
X153395285Y-80185571D01*
X153538142Y-80114142D01*
X153609571Y-80042714D01*
X153681000Y-79899857D01*
X153681000Y-79757000D01*
X153609571Y-79614142D01*
X153538142Y-79542714D01*
X153395285Y-79471285D01*
X153109571Y-79399857D01*
X152966714Y-79328428D01*
X152895285Y-79257000D01*
X152823857Y-79114142D01*
X152823857Y-78971285D01*
X152895285Y-78828428D01*
X152966714Y-78757000D01*
X153109571Y-78685571D01*
X153466714Y-78685571D01*
X153681000Y-78757000D01*
X155538142Y-80185571D02*
X155466714Y-80185571D01*
X155323857Y-80114142D01*
X155109571Y-79899857D01*
X154752428Y-79471285D01*
X154609571Y-79257000D01*
X154538142Y-79042714D01*
X154538142Y-78899857D01*
X154609571Y-78757000D01*
X154752428Y-78685571D01*
X154823857Y-78685571D01*
X154966714Y-78757000D01*
X155038142Y-78899857D01*
X155038142Y-78971285D01*
X154966714Y-79114142D01*
X154895285Y-79185571D01*
X154466714Y-79471285D01*
X154395285Y-79542714D01*
X154323857Y-79685571D01*
X154323857Y-79899857D01*
X154395285Y-80042714D01*
X154466714Y-80114142D01*
X154609571Y-80185571D01*
X154823857Y-80185571D01*
X154966714Y-80114142D01*
X155038142Y-80042714D01*
X155252428Y-79757000D01*
X155323857Y-79542714D01*
X155323857Y-79399857D01*
X155966714Y-78685571D02*
X156823857Y-78685571D01*
X156395285Y-80185571D02*
X156395285Y-78685571D01*
X157395285Y-80114142D02*
X157395285Y-80185571D01*
X157323857Y-80328428D01*
X157252428Y-80399857D01*
X159109571Y-78828428D02*
X159181000Y-78757000D01*
X159323857Y-78685571D01*
X159681000Y-78685571D01*
X159823857Y-78757000D01*
X159895285Y-78828428D01*
X159966714Y-78971285D01*
X159966714Y-79114142D01*
X159895285Y-79328428D01*
X159038142Y-80185571D01*
X159966714Y-80185571D01*
X160895285Y-78685571D02*
X161038142Y-78685571D01*
X161181000Y-78757000D01*
X161252428Y-78828428D01*
X161323857Y-78971285D01*
X161395285Y-79257000D01*
X161395285Y-79614142D01*
X161323857Y-79899857D01*
X161252428Y-80042714D01*
X161181000Y-80114142D01*
X161038142Y-80185571D01*
X160895285Y-80185571D01*
X160752428Y-80114142D01*
X160681000Y-80042714D01*
X160609571Y-79899857D01*
X160538142Y-79614142D01*
X160538142Y-79257000D01*
X160609571Y-78971285D01*
X160681000Y-78828428D01*
X160752428Y-78757000D01*
X160895285Y-78685571D01*
X162823857Y-80185571D02*
X161966714Y-80185571D01*
X162395285Y-80185571D02*
X162395285Y-78685571D01*
X162252428Y-78899857D01*
X162109571Y-79042714D01*
X161966714Y-79114142D01*
X163538142Y-80185571D02*
X163823857Y-80185571D01*
X163966714Y-80114142D01*
X164038142Y-80042714D01*
X164181000Y-79828428D01*
X164252428Y-79542714D01*
X164252428Y-78971285D01*
X164181000Y-78828428D01*
X164109571Y-78757000D01*
X163966714Y-78685571D01*
X163681000Y-78685571D01*
X163538142Y-78757000D01*
X163466714Y-78828428D01*
X163395285Y-78971285D01*
X163395285Y-79328428D01*
X163466714Y-79471285D01*
X163538142Y-79542714D01*
X163681000Y-79614142D01*
X163966714Y-79614142D01*
X164109571Y-79542714D01*
X164181000Y-79471285D01*
X164252428Y-79328428D01*
X142466714Y-82307000D02*
X143181000Y-82307000D01*
X142323857Y-82735571D02*
X142823857Y-81235571D01*
X143323857Y-82735571D01*
X143823857Y-81735571D02*
X143823857Y-82735571D01*
X143823857Y-81878428D02*
X143895285Y-81807000D01*
X144038142Y-81735571D01*
X144252428Y-81735571D01*
X144395285Y-81807000D01*
X144466714Y-81949857D01*
X144466714Y-82735571D01*
X145823857Y-82735571D02*
X145823857Y-81235571D01*
X145823857Y-82664142D02*
X145681000Y-82735571D01*
X145395285Y-82735571D01*
X145252428Y-82664142D01*
X145181000Y-82592714D01*
X145109571Y-82449857D01*
X145109571Y-82021285D01*
X145181000Y-81878428D01*
X145252428Y-81807000D01*
X145395285Y-81735571D01*
X145681000Y-81735571D01*
X145823857Y-81807000D01*
X146538142Y-82735571D02*
X146538142Y-81735571D01*
X146538142Y-82021285D02*
X146609571Y-81878428D01*
X146681000Y-81807000D01*
X146823857Y-81735571D01*
X146966714Y-81735571D01*
X148038142Y-82664142D02*
X147895285Y-82735571D01*
X147609571Y-82735571D01*
X147466714Y-82664142D01*
X147395285Y-82521285D01*
X147395285Y-81949857D01*
X147466714Y-81807000D01*
X147609571Y-81735571D01*
X147895285Y-81735571D01*
X148038142Y-81807000D01*
X148109571Y-81949857D01*
X148109571Y-82092714D01*
X147395285Y-82235571D01*
X148609571Y-81735571D02*
X148895285Y-82735571D01*
X149181000Y-82021285D01*
X149466714Y-82735571D01*
X149752428Y-81735571D01*
X151252428Y-81235571D02*
X151752428Y-82735571D01*
X152252428Y-81235571D01*
X153395285Y-82735571D02*
X153395285Y-81949857D01*
X153323857Y-81807000D01*
X153181000Y-81735571D01*
X152895285Y-81735571D01*
X152752428Y-81807000D01*
X153395285Y-82664142D02*
X153252428Y-82735571D01*
X152895285Y-82735571D01*
X152752428Y-82664142D01*
X152681000Y-82521285D01*
X152681000Y-82378428D01*
X152752428Y-82235571D01*
X152895285Y-82164142D01*
X153252428Y-82164142D01*
X153395285Y-82092714D01*
X154109571Y-81735571D02*
X154109571Y-82735571D01*
X154109571Y-81878428D02*
X154181000Y-81807000D01*
X154323857Y-81735571D01*
X154538142Y-81735571D01*
X154681000Y-81807000D01*
X154752428Y-81949857D01*
X154752428Y-82735571D01*
X156609571Y-82735571D02*
X156609571Y-81235571D01*
X156609571Y-81949857D02*
X157466714Y-81949857D01*
X157466714Y-82735571D02*
X157466714Y-81235571D01*
X158395285Y-82735571D02*
X158252428Y-82664142D01*
X158181000Y-82592714D01*
X158109571Y-82449857D01*
X158109571Y-82021285D01*
X158181000Y-81878428D01*
X158252428Y-81807000D01*
X158395285Y-81735571D01*
X158609571Y-81735571D01*
X158752428Y-81807000D01*
X158823857Y-81878428D01*
X158895285Y-82021285D01*
X158895285Y-82449857D01*
X158823857Y-82592714D01*
X158752428Y-82664142D01*
X158609571Y-82735571D01*
X158395285Y-82735571D01*
X159538142Y-82735571D02*
X159538142Y-81735571D01*
X159538142Y-82021285D02*
X159609571Y-81878428D01*
X159681000Y-81807000D01*
X159823857Y-81735571D01*
X159966714Y-81735571D01*
X160466714Y-81735571D02*
X160466714Y-82735571D01*
X160466714Y-81878428D02*
X160538142Y-81807000D01*
X160681000Y-81735571D01*
X160895285Y-81735571D01*
X161038142Y-81807000D01*
X161109571Y-81949857D01*
X161109571Y-82735571D01*
X168998428Y-85772857D02*
X169712714Y-85272857D01*
X168998428Y-84915714D02*
X170498428Y-84915714D01*
X170498428Y-85487142D01*
X170427000Y-85630000D01*
X170355571Y-85701428D01*
X170212714Y-85772857D01*
X169998428Y-85772857D01*
X169855571Y-85701428D01*
X169784142Y-85630000D01*
X169712714Y-85487142D01*
X169712714Y-84915714D01*
X169069857Y-86987142D02*
X168998428Y-86844285D01*
X168998428Y-86558571D01*
X169069857Y-86415714D01*
X169212714Y-86344285D01*
X169784142Y-86344285D01*
X169927000Y-86415714D01*
X169998428Y-86558571D01*
X169998428Y-86844285D01*
X169927000Y-86987142D01*
X169784142Y-87058571D01*
X169641285Y-87058571D01*
X169498428Y-86344285D01*
X169069857Y-87630000D02*
X168998428Y-87772857D01*
X168998428Y-88058571D01*
X169069857Y-88201428D01*
X169212714Y-88272857D01*
X169284142Y-88272857D01*
X169427000Y-88201428D01*
X169498428Y-88058571D01*
X169498428Y-87844285D01*
X169569857Y-87701428D01*
X169712714Y-87630000D01*
X169784142Y-87630000D01*
X169927000Y-87701428D01*
X169998428Y-87844285D01*
X169998428Y-88058571D01*
X169927000Y-88201428D01*
X169069857Y-89487142D02*
X168998428Y-89344285D01*
X168998428Y-89058571D01*
X169069857Y-88915714D01*
X169212714Y-88844285D01*
X169784142Y-88844285D01*
X169927000Y-88915714D01*
X169998428Y-89058571D01*
X169998428Y-89344285D01*
X169927000Y-89487142D01*
X169784142Y-89558571D01*
X169641285Y-89558571D01*
X169498428Y-88844285D01*
X169998428Y-89987142D02*
X169998428Y-90558571D01*
X170498428Y-90201428D02*
X169212714Y-90201428D01*
X169069857Y-90272857D01*
X168998428Y-90415714D01*
X168998428Y-90558571D01*
X166448428Y-84415714D02*
X167948428Y-84415714D01*
X167948428Y-84987142D01*
X167877000Y-85130000D01*
X167805571Y-85201428D01*
X167662714Y-85272857D01*
X167448428Y-85272857D01*
X167305571Y-85201428D01*
X167234142Y-85130000D01*
X167162714Y-84987142D01*
X167162714Y-84415714D01*
X167448428Y-86558571D02*
X166448428Y-86558571D01*
X167448428Y-85915714D02*
X166662714Y-85915714D01*
X166519857Y-85987142D01*
X166448428Y-86130000D01*
X166448428Y-86344285D01*
X166519857Y-86487142D01*
X166591285Y-86558571D01*
X166448428Y-87487142D02*
X166519857Y-87344285D01*
X166662714Y-87272857D01*
X167948428Y-87272857D01*
X166448428Y-88272857D02*
X166519857Y-88130000D01*
X166662714Y-88058571D01*
X167948428Y-88058571D01*
X167448428Y-89487142D02*
X166448428Y-89487142D01*
X167448428Y-88844285D02*
X166662714Y-88844285D01*
X166519857Y-88915714D01*
X166448428Y-89058571D01*
X166448428Y-89272857D01*
X166519857Y-89415714D01*
X166591285Y-89487142D01*
X167448428Y-90201428D02*
X165948428Y-90201428D01*
X167377000Y-90201428D02*
X167448428Y-90344285D01*
X167448428Y-90630000D01*
X167377000Y-90772857D01*
X167305571Y-90844285D01*
X167162714Y-90915714D01*
X166734142Y-90915714D01*
X166591285Y-90844285D01*
X166519857Y-90772857D01*
X166448428Y-90630000D01*
X166448428Y-90344285D01*
X166519857Y-90201428D01*
X151218428Y-107807142D02*
X151932714Y-107307142D01*
X151218428Y-106950000D02*
X152718428Y-106950000D01*
X152718428Y-107521428D01*
X152647000Y-107664285D01*
X152575571Y-107735714D01*
X152432714Y-107807142D01*
X152218428Y-107807142D01*
X152075571Y-107735714D01*
X152004142Y-107664285D01*
X151932714Y-107521428D01*
X151932714Y-106950000D01*
X151218428Y-108307142D02*
X152218428Y-109092857D01*
X152218428Y-108307142D02*
X151218428Y-109092857D01*
X148668428Y-104200000D02*
X150168428Y-104200000D01*
X150168428Y-104557142D01*
X150097000Y-104771428D01*
X149954142Y-104914285D01*
X149811285Y-104985714D01*
X149525571Y-105057142D01*
X149311285Y-105057142D01*
X149025571Y-104985714D01*
X148882714Y-104914285D01*
X148739857Y-104771428D01*
X148668428Y-104557142D01*
X148668428Y-104200000D01*
X148668428Y-105700000D02*
X149668428Y-105700000D01*
X150168428Y-105700000D02*
X150097000Y-105628571D01*
X150025571Y-105700000D01*
X150097000Y-105771428D01*
X150168428Y-105700000D01*
X150025571Y-105700000D01*
X148739857Y-106342857D02*
X148668428Y-106485714D01*
X148668428Y-106771428D01*
X148739857Y-106914285D01*
X148882714Y-106985714D01*
X148954142Y-106985714D01*
X149097000Y-106914285D01*
X149168428Y-106771428D01*
X149168428Y-106557142D01*
X149239857Y-106414285D01*
X149382714Y-106342857D01*
X149454142Y-106342857D01*
X149597000Y-106414285D01*
X149668428Y-106557142D01*
X149668428Y-106771428D01*
X149597000Y-106914285D01*
X148668428Y-108271428D02*
X149454142Y-108271428D01*
X149597000Y-108200000D01*
X149668428Y-108057142D01*
X149668428Y-107771428D01*
X149597000Y-107628571D01*
X148739857Y-108271428D02*
X148668428Y-108128571D01*
X148668428Y-107771428D01*
X148739857Y-107628571D01*
X148882714Y-107557142D01*
X149025571Y-107557142D01*
X149168428Y-107628571D01*
X149239857Y-107771428D01*
X149239857Y-108128571D01*
X149311285Y-108271428D01*
X148668428Y-108985714D02*
X150168428Y-108985714D01*
X149597000Y-108985714D02*
X149668428Y-109128571D01*
X149668428Y-109414285D01*
X149597000Y-109557142D01*
X149525571Y-109628571D01*
X149382714Y-109700000D01*
X148954142Y-109700000D01*
X148811285Y-109628571D01*
X148739857Y-109557142D01*
X148668428Y-109414285D01*
X148668428Y-109128571D01*
X148739857Y-108985714D01*
X148668428Y-110557142D02*
X148739857Y-110414285D01*
X148882714Y-110342857D01*
X150168428Y-110342857D01*
X148739857Y-111700000D02*
X148668428Y-111557142D01*
X148668428Y-111271428D01*
X148739857Y-111128571D01*
X148882714Y-111057142D01*
X149454142Y-111057142D01*
X149597000Y-111128571D01*
X149668428Y-111271428D01*
X149668428Y-111557142D01*
X149597000Y-111700000D01*
X149454142Y-111771428D01*
X149311285Y-111771428D01*
X149168428Y-111057142D01*
X170244428Y-105628571D02*
X168744428Y-106628571D01*
X170244428Y-106628571D02*
X168744428Y-105628571D01*
X170244428Y-106985714D02*
X170244428Y-107842857D01*
X168744428Y-107414285D02*
X170244428Y-107414285D01*
X169173000Y-108271428D02*
X169173000Y-108985714D01*
X168744428Y-108128571D02*
X170244428Y-108628571D01*
X168744428Y-109128571D01*
X168744428Y-110342857D02*
X168744428Y-109628571D01*
X170244428Y-109628571D01*
X166980142Y-104557142D02*
X166980142Y-105057142D01*
X166194428Y-105271428D02*
X166194428Y-104557142D01*
X167694428Y-104557142D01*
X167694428Y-105271428D01*
X167194428Y-105914285D02*
X166194428Y-105914285D01*
X167051571Y-105914285D02*
X167123000Y-105985714D01*
X167194428Y-106128571D01*
X167194428Y-106342857D01*
X167123000Y-106485714D01*
X166980142Y-106557142D01*
X166194428Y-106557142D01*
X166194428Y-107914285D02*
X166980142Y-107914285D01*
X167123000Y-107842857D01*
X167194428Y-107700000D01*
X167194428Y-107414285D01*
X167123000Y-107271428D01*
X166265857Y-107914285D02*
X166194428Y-107771428D01*
X166194428Y-107414285D01*
X166265857Y-107271428D01*
X166408714Y-107200000D01*
X166551571Y-107200000D01*
X166694428Y-107271428D01*
X166765857Y-107414285D01*
X166765857Y-107771428D01*
X166837285Y-107914285D01*
X166194428Y-108628571D02*
X167694428Y-108628571D01*
X167123000Y-108628571D02*
X167194428Y-108771428D01*
X167194428Y-109057142D01*
X167123000Y-109200000D01*
X167051571Y-109271428D01*
X166908714Y-109342857D01*
X166480142Y-109342857D01*
X166337285Y-109271428D01*
X166265857Y-109200000D01*
X166194428Y-109057142D01*
X166194428Y-108771428D01*
X166265857Y-108628571D01*
X166194428Y-110200000D02*
X166265857Y-110057142D01*
X166408714Y-109985714D01*
X167694428Y-109985714D01*
X166265857Y-111342857D02*
X166194428Y-111200000D01*
X166194428Y-110914285D01*
X166265857Y-110771428D01*
X166408714Y-110700000D01*
X166980142Y-110700000D01*
X167123000Y-110771428D01*
X167194428Y-110914285D01*
X167194428Y-111200000D01*
X167123000Y-111342857D01*
X166980142Y-111414285D01*
X166837285Y-111414285D01*
X166694428Y-110700000D01*
D11*
G04 #@! TO.C,C1*
X181386267Y-114810000D02*
X181043733Y-114810000D01*
X181386267Y-113790000D02*
X181043733Y-113790000D01*
G04 #@! TO.C,C2*
X184373733Y-114810000D02*
X184716267Y-114810000D01*
X184373733Y-113790000D02*
X184716267Y-113790000D01*
G04 #@! TO.C,JP1*
X153610000Y-105350000D02*
X154940000Y-105350000D01*
X153610000Y-106680000D02*
X153610000Y-105350000D01*
X153610000Y-107950000D02*
X156270000Y-107950000D01*
X156270000Y-107950000D02*
X156270000Y-110550000D01*
X153610000Y-107950000D02*
X153610000Y-110550000D01*
X153610000Y-110550000D02*
X156270000Y-110550000D01*
G04 #@! TO.C,JP2*
X171390000Y-90230000D02*
X174050000Y-90230000D01*
X171390000Y-87630000D02*
X171390000Y-90230000D01*
X174050000Y-87630000D02*
X174050000Y-90230000D01*
X171390000Y-87630000D02*
X174050000Y-87630000D01*
X171390000Y-86360000D02*
X171390000Y-85030000D01*
X171390000Y-85030000D02*
X172720000Y-85030000D01*
G04 #@! TO.C,JP3*
X171390000Y-110550000D02*
X174050000Y-110550000D01*
X171390000Y-107950000D02*
X171390000Y-110550000D01*
X174050000Y-107950000D02*
X174050000Y-110550000D01*
X171390000Y-107950000D02*
X174050000Y-107950000D01*
X171390000Y-106680000D02*
X171390000Y-105350000D01*
X171390000Y-105350000D02*
X172720000Y-105350000D01*
G04 #@! TO.C,R1*
X172210000Y-80576267D02*
X172210000Y-80233733D01*
X173230000Y-80576267D02*
X173230000Y-80233733D01*
G04 #@! TO.C,U1*
X151070000Y-96790000D02*
G75*
G02X151070000Y-98790000I0J-1000000D01*
G01*
X151070000Y-98790000D02*
X151070000Y-100440000D01*
X151070000Y-100440000D02*
X186750000Y-100440000D01*
X186750000Y-100440000D02*
X186750000Y-95140000D01*
X186750000Y-95140000D02*
X151070000Y-95140000D01*
X151070000Y-95140000D02*
X151070000Y-96790000D01*
G04 #@! TO.C,Y1*
X179855000Y-106695000D02*
X186105000Y-106695000D01*
X179855000Y-111745000D02*
X186105000Y-111745000D01*
X179855000Y-111745000D02*
G75*
G02X179855000Y-106695000I0J2525000D01*
G01*
X186105000Y-111745000D02*
G75*
G03X186105000Y-106695000I0J2525000D01*
G01*
G04 #@! TO.C,C1*
D12*
X181048333Y-116087142D02*
X181000714Y-116134761D01*
X180857857Y-116182380D01*
X180762619Y-116182380D01*
X180619761Y-116134761D01*
X180524523Y-116039523D01*
X180476904Y-115944285D01*
X180429285Y-115753809D01*
X180429285Y-115610952D01*
X180476904Y-115420476D01*
X180524523Y-115325238D01*
X180619761Y-115230000D01*
X180762619Y-115182380D01*
X180857857Y-115182380D01*
X181000714Y-115230000D01*
X181048333Y-115277619D01*
X182000714Y-116182380D02*
X181429285Y-116182380D01*
X181715000Y-116182380D02*
X181715000Y-115182380D01*
X181619761Y-115325238D01*
X181524523Y-115420476D01*
X181429285Y-115468095D01*
G04 #@! TO.C,C2*
X184378333Y-113227142D02*
X184330714Y-113274761D01*
X184187857Y-113322380D01*
X184092619Y-113322380D01*
X183949761Y-113274761D01*
X183854523Y-113179523D01*
X183806904Y-113084285D01*
X183759285Y-112893809D01*
X183759285Y-112750952D01*
X183806904Y-112560476D01*
X183854523Y-112465238D01*
X183949761Y-112370000D01*
X184092619Y-112322380D01*
X184187857Y-112322380D01*
X184330714Y-112370000D01*
X184378333Y-112417619D01*
X184759285Y-112417619D02*
X184806904Y-112370000D01*
X184902142Y-112322380D01*
X185140238Y-112322380D01*
X185235476Y-112370000D01*
X185283095Y-112417619D01*
X185330714Y-112512857D01*
X185330714Y-112608095D01*
X185283095Y-112750952D01*
X184711666Y-113322380D01*
X185330714Y-113322380D01*
G04 #@! TO.C,JP1*
X154106666Y-103802380D02*
X154106666Y-104516666D01*
X154059047Y-104659523D01*
X153963809Y-104754761D01*
X153820952Y-104802380D01*
X153725714Y-104802380D01*
X154582857Y-104802380D02*
X154582857Y-103802380D01*
X154963809Y-103802380D01*
X155059047Y-103850000D01*
X155106666Y-103897619D01*
X155154285Y-103992857D01*
X155154285Y-104135714D01*
X155106666Y-104230952D01*
X155059047Y-104278571D01*
X154963809Y-104326190D01*
X154582857Y-104326190D01*
X156106666Y-104802380D02*
X155535238Y-104802380D01*
X155820952Y-104802380D02*
X155820952Y-103802380D01*
X155725714Y-103945238D01*
X155630476Y-104040476D01*
X155535238Y-104088095D01*
G04 #@! TO.C,JP2*
X171886666Y-83482380D02*
X171886666Y-84196666D01*
X171839047Y-84339523D01*
X171743809Y-84434761D01*
X171600952Y-84482380D01*
X171505714Y-84482380D01*
X172362857Y-84482380D02*
X172362857Y-83482380D01*
X172743809Y-83482380D01*
X172839047Y-83530000D01*
X172886666Y-83577619D01*
X172934285Y-83672857D01*
X172934285Y-83815714D01*
X172886666Y-83910952D01*
X172839047Y-83958571D01*
X172743809Y-84006190D01*
X172362857Y-84006190D01*
X173315238Y-83577619D02*
X173362857Y-83530000D01*
X173458095Y-83482380D01*
X173696190Y-83482380D01*
X173791428Y-83530000D01*
X173839047Y-83577619D01*
X173886666Y-83672857D01*
X173886666Y-83768095D01*
X173839047Y-83910952D01*
X173267619Y-84482380D01*
X173886666Y-84482380D01*
G04 #@! TO.C,JP3*
X171886666Y-103802380D02*
X171886666Y-104516666D01*
X171839047Y-104659523D01*
X171743809Y-104754761D01*
X171600952Y-104802380D01*
X171505714Y-104802380D01*
X172362857Y-104802380D02*
X172362857Y-103802380D01*
X172743809Y-103802380D01*
X172839047Y-103850000D01*
X172886666Y-103897619D01*
X172934285Y-103992857D01*
X172934285Y-104135714D01*
X172886666Y-104230952D01*
X172839047Y-104278571D01*
X172743809Y-104326190D01*
X172362857Y-104326190D01*
X173267619Y-103802380D02*
X173886666Y-103802380D01*
X173553333Y-104183333D01*
X173696190Y-104183333D01*
X173791428Y-104230952D01*
X173839047Y-104278571D01*
X173886666Y-104373809D01*
X173886666Y-104611904D01*
X173839047Y-104707142D01*
X173791428Y-104754761D01*
X173696190Y-104802380D01*
X173410476Y-104802380D01*
X173315238Y-104754761D01*
X173267619Y-104707142D01*
G04 #@! TO.C,R1*
X171742380Y-80571666D02*
X171266190Y-80905000D01*
X171742380Y-81143095D02*
X170742380Y-81143095D01*
X170742380Y-80762142D01*
X170790000Y-80666904D01*
X170837619Y-80619285D01*
X170932857Y-80571666D01*
X171075714Y-80571666D01*
X171170952Y-80619285D01*
X171218571Y-80666904D01*
X171266190Y-80762142D01*
X171266190Y-81143095D01*
X171742380Y-79619285D02*
X171742380Y-80190714D01*
X171742380Y-79905000D02*
X170742380Y-79905000D01*
X170885238Y-80000238D01*
X170980476Y-80095476D01*
X171028095Y-80190714D01*
G04 #@! TO.C,U1*
X149522380Y-98551904D02*
X150331904Y-98551904D01*
X150427142Y-98504285D01*
X150474761Y-98456666D01*
X150522380Y-98361428D01*
X150522380Y-98170952D01*
X150474761Y-98075714D01*
X150427142Y-98028095D01*
X150331904Y-97980476D01*
X149522380Y-97980476D01*
X150522380Y-96980476D02*
X150522380Y-97551904D01*
X150522380Y-97266190D02*
X149522380Y-97266190D01*
X149665238Y-97361428D01*
X149760476Y-97456666D01*
X149808095Y-97551904D01*
G04 #@! TO.C,Y1*
X182503809Y-105671190D02*
X182503809Y-106147380D01*
X182170476Y-105147380D02*
X182503809Y-105671190D01*
X182837142Y-105147380D01*
X183694285Y-106147380D02*
X183122857Y-106147380D01*
X183408571Y-106147380D02*
X183408571Y-105147380D01*
X183313333Y-105290238D01*
X183218095Y-105385476D01*
X183122857Y-105433095D01*
G04 #@! TD*
M02*
