G04 #@! TF.GenerationSoftware,KiCad,Pcbnew,(5.0.2)-1*
G04 #@! TF.CreationDate,2020-05-31T20:37:23-05:00*
G04 #@! TF.ProjectId,ATMEGABootloader_Hardware,41544d45-4741-4426-9f6f-746c6f616465,rev?*
G04 #@! TF.SameCoordinates,Original*
G04 #@! TF.FileFunction,Legend,Top*
G04 #@! TF.FilePolarity,Positive*
%FSLAX46Y46*%
G04 Gerber Fmt 4.6, Leading zero omitted, Abs format (unit mm)*
G04 Created by KiCad (PCBNEW (5.0.2)-1) date 5/31/2020 8:37:23 PM*
%MOMM*%
%LPD*%
G01*
G04 APERTURE LIST*
%ADD10C,0.300000*%
%ADD11C,0.120000*%
%ADD12C,0.010000*%
%ADD13C,0.150000*%
G04 APERTURE END LIST*
D10*
X142466714Y-74657000D02*
X143181000Y-74657000D01*
X142323857Y-75085571D02*
X142823857Y-73585571D01*
X143323857Y-75085571D01*
X143609571Y-73585571D02*
X144466714Y-73585571D01*
X144038142Y-75085571D02*
X144038142Y-73585571D01*
X144966714Y-75085571D02*
X144966714Y-73585571D01*
X145466714Y-74657000D01*
X145966714Y-73585571D01*
X145966714Y-75085571D01*
X146681000Y-74299857D02*
X147181000Y-74299857D01*
X147395285Y-75085571D02*
X146681000Y-75085571D01*
X146681000Y-73585571D01*
X147395285Y-73585571D01*
X148823857Y-73657000D02*
X148681000Y-73585571D01*
X148466714Y-73585571D01*
X148252428Y-73657000D01*
X148109571Y-73799857D01*
X148038142Y-73942714D01*
X147966714Y-74228428D01*
X147966714Y-74442714D01*
X148038142Y-74728428D01*
X148109571Y-74871285D01*
X148252428Y-75014142D01*
X148466714Y-75085571D01*
X148609571Y-75085571D01*
X148823857Y-75014142D01*
X148895285Y-74942714D01*
X148895285Y-74442714D01*
X148609571Y-74442714D01*
X149466714Y-74657000D02*
X150181000Y-74657000D01*
X149323857Y-75085571D02*
X149823857Y-73585571D01*
X150323857Y-75085571D01*
X152466714Y-74299857D02*
X151966714Y-74299857D01*
X151966714Y-75085571D02*
X151966714Y-73585571D01*
X152681000Y-73585571D01*
X153466714Y-75085571D02*
X153323857Y-75014142D01*
X153252428Y-74871285D01*
X153252428Y-73585571D01*
X154681000Y-75085571D02*
X154681000Y-74299857D01*
X154609571Y-74157000D01*
X154466714Y-74085571D01*
X154181000Y-74085571D01*
X154038142Y-74157000D01*
X154681000Y-75014142D02*
X154538142Y-75085571D01*
X154181000Y-75085571D01*
X154038142Y-75014142D01*
X153966714Y-74871285D01*
X153966714Y-74728428D01*
X154038142Y-74585571D01*
X154181000Y-74514142D01*
X154538142Y-74514142D01*
X154681000Y-74442714D01*
X155323857Y-75014142D02*
X155466714Y-75085571D01*
X155752428Y-75085571D01*
X155895285Y-75014142D01*
X155966714Y-74871285D01*
X155966714Y-74799857D01*
X155895285Y-74657000D01*
X155752428Y-74585571D01*
X155538142Y-74585571D01*
X155395285Y-74514142D01*
X155323857Y-74371285D01*
X155323857Y-74299857D01*
X155395285Y-74157000D01*
X155538142Y-74085571D01*
X155752428Y-74085571D01*
X155895285Y-74157000D01*
X156609571Y-75085571D02*
X156609571Y-73585571D01*
X157252428Y-75085571D02*
X157252428Y-74299857D01*
X157181000Y-74157000D01*
X157038142Y-74085571D01*
X156823857Y-74085571D01*
X156681000Y-74157000D01*
X156609571Y-74228428D01*
X157966714Y-75085571D02*
X157966714Y-74085571D01*
X157966714Y-73585571D02*
X157895285Y-73657000D01*
X157966714Y-73728428D01*
X158038142Y-73657000D01*
X157966714Y-73585571D01*
X157966714Y-73728428D01*
X158681000Y-74085571D02*
X158681000Y-75085571D01*
X158681000Y-74228428D02*
X158752428Y-74157000D01*
X158895285Y-74085571D01*
X159109571Y-74085571D01*
X159252428Y-74157000D01*
X159323857Y-74299857D01*
X159323857Y-75085571D01*
X160681000Y-74085571D02*
X160681000Y-75299857D01*
X160609571Y-75442714D01*
X160538142Y-75514142D01*
X160395285Y-75585571D01*
X160181000Y-75585571D01*
X160038142Y-75514142D01*
X160681000Y-75014142D02*
X160538142Y-75085571D01*
X160252428Y-75085571D01*
X160109571Y-75014142D01*
X160038142Y-74942714D01*
X159966714Y-74799857D01*
X159966714Y-74371285D01*
X160038142Y-74228428D01*
X160109571Y-74157000D01*
X160252428Y-74085571D01*
X160538142Y-74085571D01*
X160681000Y-74157000D01*
X163038142Y-74299857D02*
X163252428Y-74371285D01*
X163323857Y-74442714D01*
X163395285Y-74585571D01*
X163395285Y-74799857D01*
X163323857Y-74942714D01*
X163252428Y-75014142D01*
X163109571Y-75085571D01*
X162538142Y-75085571D01*
X162538142Y-73585571D01*
X163038142Y-73585571D01*
X163181000Y-73657000D01*
X163252428Y-73728428D01*
X163323857Y-73871285D01*
X163323857Y-74014142D01*
X163252428Y-74157000D01*
X163181000Y-74228428D01*
X163038142Y-74299857D01*
X162538142Y-74299857D01*
X164252428Y-75085571D02*
X164109571Y-75014142D01*
X164038142Y-74942714D01*
X163966714Y-74799857D01*
X163966714Y-74371285D01*
X164038142Y-74228428D01*
X164109571Y-74157000D01*
X164252428Y-74085571D01*
X164466714Y-74085571D01*
X164609571Y-74157000D01*
X164681000Y-74228428D01*
X164752428Y-74371285D01*
X164752428Y-74799857D01*
X164681000Y-74942714D01*
X164609571Y-75014142D01*
X164466714Y-75085571D01*
X164252428Y-75085571D01*
X166038142Y-75085571D02*
X166038142Y-74299857D01*
X165966714Y-74157000D01*
X165823857Y-74085571D01*
X165538142Y-74085571D01*
X165395285Y-74157000D01*
X166038142Y-75014142D02*
X165895285Y-75085571D01*
X165538142Y-75085571D01*
X165395285Y-75014142D01*
X165323857Y-74871285D01*
X165323857Y-74728428D01*
X165395285Y-74585571D01*
X165538142Y-74514142D01*
X165895285Y-74514142D01*
X166038142Y-74442714D01*
X166752428Y-75085571D02*
X166752428Y-74085571D01*
X166752428Y-74371285D02*
X166823857Y-74228428D01*
X166895285Y-74157000D01*
X167038142Y-74085571D01*
X167181000Y-74085571D01*
X168323857Y-75085571D02*
X168323857Y-73585571D01*
X168323857Y-75014142D02*
X168181000Y-75085571D01*
X167895285Y-75085571D01*
X167752428Y-75014142D01*
X167681000Y-74942714D01*
X167609571Y-74799857D01*
X167609571Y-74371285D01*
X167681000Y-74228428D01*
X167752428Y-74157000D01*
X167895285Y-74085571D01*
X168181000Y-74085571D01*
X168323857Y-74157000D01*
X169109571Y-75014142D02*
X169109571Y-75085571D01*
X169038142Y-75228428D01*
X168966714Y-75299857D01*
X171752428Y-75085571D02*
X171252428Y-74371285D01*
X170895285Y-75085571D02*
X170895285Y-73585571D01*
X171466714Y-73585571D01*
X171609571Y-73657000D01*
X171681000Y-73728428D01*
X171752428Y-73871285D01*
X171752428Y-74085571D01*
X171681000Y-74228428D01*
X171609571Y-74299857D01*
X171466714Y-74371285D01*
X170895285Y-74371285D01*
X172966714Y-75014142D02*
X172823857Y-75085571D01*
X172538142Y-75085571D01*
X172395285Y-75014142D01*
X172323857Y-74871285D01*
X172323857Y-74299857D01*
X172395285Y-74157000D01*
X172538142Y-74085571D01*
X172823857Y-74085571D01*
X172966714Y-74157000D01*
X173038142Y-74299857D01*
X173038142Y-74442714D01*
X172323857Y-74585571D01*
X173538142Y-74085571D02*
X173895285Y-75085571D01*
X174252428Y-74085571D01*
X175895285Y-73728428D02*
X175966714Y-73657000D01*
X176109571Y-73585571D01*
X176466714Y-73585571D01*
X176609571Y-73657000D01*
X176681000Y-73728428D01*
X176752428Y-73871285D01*
X176752428Y-74014142D01*
X176681000Y-74228428D01*
X175823857Y-75085571D01*
X176752428Y-75085571D01*
X142538142Y-77635571D02*
X142538142Y-76135571D01*
X143038142Y-77207000D01*
X143538142Y-76135571D01*
X143538142Y-77635571D01*
X144895285Y-77635571D02*
X144895285Y-76849857D01*
X144823857Y-76707000D01*
X144681000Y-76635571D01*
X144395285Y-76635571D01*
X144252428Y-76707000D01*
X144895285Y-77564142D02*
X144752428Y-77635571D01*
X144395285Y-77635571D01*
X144252428Y-77564142D01*
X144181000Y-77421285D01*
X144181000Y-77278428D01*
X144252428Y-77135571D01*
X144395285Y-77064142D01*
X144752428Y-77064142D01*
X144895285Y-76992714D01*
X145609571Y-77635571D02*
X145609571Y-76635571D01*
X145609571Y-76921285D02*
X145681000Y-76778428D01*
X145752428Y-76707000D01*
X145895285Y-76635571D01*
X146038142Y-76635571D01*
X146466714Y-77564142D02*
X146609571Y-77635571D01*
X146895285Y-77635571D01*
X147038142Y-77564142D01*
X147109571Y-77421285D01*
X147109571Y-77349857D01*
X147038142Y-77207000D01*
X146895285Y-77135571D01*
X146681000Y-77135571D01*
X146538142Y-77064142D01*
X146466714Y-76921285D01*
X146466714Y-76849857D01*
X146538142Y-76707000D01*
X146681000Y-76635571D01*
X146895285Y-76635571D01*
X147038142Y-76707000D01*
X149752428Y-77635571D02*
X149252428Y-76921285D01*
X148895285Y-77635571D02*
X148895285Y-76135571D01*
X149466714Y-76135571D01*
X149609571Y-76207000D01*
X149681000Y-76278428D01*
X149752428Y-76421285D01*
X149752428Y-76635571D01*
X149681000Y-76778428D01*
X149609571Y-76849857D01*
X149466714Y-76921285D01*
X148895285Y-76921285D01*
X150609571Y-77635571D02*
X150466714Y-77564142D01*
X150395285Y-77492714D01*
X150323857Y-77349857D01*
X150323857Y-76921285D01*
X150395285Y-76778428D01*
X150466714Y-76707000D01*
X150609571Y-76635571D01*
X150823857Y-76635571D01*
X150966714Y-76707000D01*
X151038142Y-76778428D01*
X151109571Y-76921285D01*
X151109571Y-77349857D01*
X151038142Y-77492714D01*
X150966714Y-77564142D01*
X150823857Y-77635571D01*
X150609571Y-77635571D01*
X151609571Y-76635571D02*
X151966714Y-77635571D01*
X152323857Y-76635571D01*
X153466714Y-77564142D02*
X153323857Y-77635571D01*
X153038142Y-77635571D01*
X152895285Y-77564142D01*
X152823857Y-77421285D01*
X152823857Y-76849857D01*
X152895285Y-76707000D01*
X153038142Y-76635571D01*
X153323857Y-76635571D01*
X153466714Y-76707000D01*
X153538142Y-76849857D01*
X153538142Y-76992714D01*
X152823857Y-77135571D01*
X154181000Y-77635571D02*
X154181000Y-76635571D01*
X154181000Y-76921285D02*
X154252428Y-76778428D01*
X154323857Y-76707000D01*
X154466714Y-76635571D01*
X154609571Y-76635571D01*
X156252428Y-77635571D02*
X156252428Y-76135571D01*
X156609571Y-76135571D01*
X156823857Y-76207000D01*
X156966714Y-76349857D01*
X157038142Y-76492714D01*
X157109571Y-76778428D01*
X157109571Y-76992714D01*
X157038142Y-77278428D01*
X156966714Y-77421285D01*
X156823857Y-77564142D01*
X156609571Y-77635571D01*
X156252428Y-77635571D01*
X158323857Y-77564142D02*
X158181000Y-77635571D01*
X157895285Y-77635571D01*
X157752428Y-77564142D01*
X157681000Y-77421285D01*
X157681000Y-76849857D01*
X157752428Y-76707000D01*
X157895285Y-76635571D01*
X158181000Y-76635571D01*
X158323857Y-76707000D01*
X158395285Y-76849857D01*
X158395285Y-76992714D01*
X157681000Y-77135571D01*
X158966714Y-77564142D02*
X159109571Y-77635571D01*
X159395285Y-77635571D01*
X159538142Y-77564142D01*
X159609571Y-77421285D01*
X159609571Y-77349857D01*
X159538142Y-77207000D01*
X159395285Y-77135571D01*
X159181000Y-77135571D01*
X159038142Y-77064142D01*
X158966714Y-76921285D01*
X158966714Y-76849857D01*
X159038142Y-76707000D01*
X159181000Y-76635571D01*
X159395285Y-76635571D01*
X159538142Y-76707000D01*
X160252428Y-77635571D02*
X160252428Y-76635571D01*
X160252428Y-76135571D02*
X160181000Y-76207000D01*
X160252428Y-76278428D01*
X160323857Y-76207000D01*
X160252428Y-76135571D01*
X160252428Y-76278428D01*
X161609571Y-76635571D02*
X161609571Y-77849857D01*
X161538142Y-77992714D01*
X161466714Y-78064142D01*
X161323857Y-78135571D01*
X161109571Y-78135571D01*
X160966714Y-78064142D01*
X161609571Y-77564142D02*
X161466714Y-77635571D01*
X161181000Y-77635571D01*
X161038142Y-77564142D01*
X160966714Y-77492714D01*
X160895285Y-77349857D01*
X160895285Y-76921285D01*
X160966714Y-76778428D01*
X161038142Y-76707000D01*
X161181000Y-76635571D01*
X161466714Y-76635571D01*
X161609571Y-76707000D01*
X162323857Y-76635571D02*
X162323857Y-77635571D01*
X162323857Y-76778428D02*
X162395285Y-76707000D01*
X162538142Y-76635571D01*
X162752428Y-76635571D01*
X162895285Y-76707000D01*
X162966714Y-76849857D01*
X162966714Y-77635571D01*
X164609571Y-76135571D02*
X165466714Y-76135571D01*
X165038142Y-77635571D02*
X165038142Y-76135571D01*
X166538142Y-77564142D02*
X166395285Y-77635571D01*
X166109571Y-77635571D01*
X165966714Y-77564142D01*
X165895285Y-77421285D01*
X165895285Y-76849857D01*
X165966714Y-76707000D01*
X166109571Y-76635571D01*
X166395285Y-76635571D01*
X166538142Y-76707000D01*
X166609571Y-76849857D01*
X166609571Y-76992714D01*
X165895285Y-77135571D01*
X167895285Y-77635571D02*
X167895285Y-76849857D01*
X167823857Y-76707000D01*
X167681000Y-76635571D01*
X167395285Y-76635571D01*
X167252428Y-76707000D01*
X167895285Y-77564142D02*
X167752428Y-77635571D01*
X167395285Y-77635571D01*
X167252428Y-77564142D01*
X167181000Y-77421285D01*
X167181000Y-77278428D01*
X167252428Y-77135571D01*
X167395285Y-77064142D01*
X167752428Y-77064142D01*
X167895285Y-76992714D01*
X168609571Y-77635571D02*
X168609571Y-76635571D01*
X168609571Y-76778428D02*
X168681000Y-76707000D01*
X168823857Y-76635571D01*
X169038142Y-76635571D01*
X169181000Y-76707000D01*
X169252428Y-76849857D01*
X169252428Y-77635571D01*
X169252428Y-76849857D02*
X169323857Y-76707000D01*
X169466714Y-76635571D01*
X169681000Y-76635571D01*
X169823857Y-76707000D01*
X169895285Y-76849857D01*
X169895285Y-77635571D01*
X142538142Y-80185571D02*
X142538142Y-78685571D01*
X143038142Y-79757000D01*
X143538142Y-78685571D01*
X143538142Y-80185571D01*
X144252428Y-80185571D02*
X144252428Y-79185571D01*
X144252428Y-78685571D02*
X144181000Y-78757000D01*
X144252428Y-78828428D01*
X144323857Y-78757000D01*
X144252428Y-78685571D01*
X144252428Y-78828428D01*
X144895285Y-80114142D02*
X145038142Y-80185571D01*
X145323857Y-80185571D01*
X145466714Y-80114142D01*
X145538142Y-79971285D01*
X145538142Y-79899857D01*
X145466714Y-79757000D01*
X145323857Y-79685571D01*
X145109571Y-79685571D01*
X144966714Y-79614142D01*
X144895285Y-79471285D01*
X144895285Y-79399857D01*
X144966714Y-79257000D01*
X145109571Y-79185571D01*
X145323857Y-79185571D01*
X145466714Y-79257000D01*
X146109571Y-80114142D02*
X146252428Y-80185571D01*
X146538142Y-80185571D01*
X146681000Y-80114142D01*
X146752428Y-79971285D01*
X146752428Y-79899857D01*
X146681000Y-79757000D01*
X146538142Y-79685571D01*
X146323857Y-79685571D01*
X146181000Y-79614142D01*
X146109571Y-79471285D01*
X146109571Y-79399857D01*
X146181000Y-79257000D01*
X146323857Y-79185571D01*
X146538142Y-79185571D01*
X146681000Y-79257000D01*
X147609571Y-80185571D02*
X147466714Y-80114142D01*
X147395285Y-80042714D01*
X147323857Y-79899857D01*
X147323857Y-79471285D01*
X147395285Y-79328428D01*
X147466714Y-79257000D01*
X147609571Y-79185571D01*
X147823857Y-79185571D01*
X147966714Y-79257000D01*
X148038142Y-79328428D01*
X148109571Y-79471285D01*
X148109571Y-79899857D01*
X148038142Y-80042714D01*
X147966714Y-80114142D01*
X147823857Y-80185571D01*
X147609571Y-80185571D01*
X149395285Y-79185571D02*
X149395285Y-80185571D01*
X148752428Y-79185571D02*
X148752428Y-79971285D01*
X148823857Y-80114142D01*
X148966714Y-80185571D01*
X149181000Y-80185571D01*
X149323857Y-80114142D01*
X149395285Y-80042714D01*
X150109571Y-80185571D02*
X150109571Y-79185571D01*
X150109571Y-79471285D02*
X150181000Y-79328428D01*
X150252428Y-79257000D01*
X150395285Y-79185571D01*
X150538142Y-79185571D01*
X151038142Y-80185571D02*
X151038142Y-79185571D01*
X151038142Y-78685571D02*
X150966714Y-78757000D01*
X151038142Y-78828428D01*
X151109571Y-78757000D01*
X151038142Y-78685571D01*
X151038142Y-78828428D01*
X152823857Y-80114142D02*
X153038142Y-80185571D01*
X153395285Y-80185571D01*
X153538142Y-80114142D01*
X153609571Y-80042714D01*
X153681000Y-79899857D01*
X153681000Y-79757000D01*
X153609571Y-79614142D01*
X153538142Y-79542714D01*
X153395285Y-79471285D01*
X153109571Y-79399857D01*
X152966714Y-79328428D01*
X152895285Y-79257000D01*
X152823857Y-79114142D01*
X152823857Y-78971285D01*
X152895285Y-78828428D01*
X152966714Y-78757000D01*
X153109571Y-78685571D01*
X153466714Y-78685571D01*
X153681000Y-78757000D01*
X155538142Y-80185571D02*
X155466714Y-80185571D01*
X155323857Y-80114142D01*
X155109571Y-79899857D01*
X154752428Y-79471285D01*
X154609571Y-79257000D01*
X154538142Y-79042714D01*
X154538142Y-78899857D01*
X154609571Y-78757000D01*
X154752428Y-78685571D01*
X154823857Y-78685571D01*
X154966714Y-78757000D01*
X155038142Y-78899857D01*
X155038142Y-78971285D01*
X154966714Y-79114142D01*
X154895285Y-79185571D01*
X154466714Y-79471285D01*
X154395285Y-79542714D01*
X154323857Y-79685571D01*
X154323857Y-79899857D01*
X154395285Y-80042714D01*
X154466714Y-80114142D01*
X154609571Y-80185571D01*
X154823857Y-80185571D01*
X154966714Y-80114142D01*
X155038142Y-80042714D01*
X155252428Y-79757000D01*
X155323857Y-79542714D01*
X155323857Y-79399857D01*
X155966714Y-78685571D02*
X156823857Y-78685571D01*
X156395285Y-80185571D02*
X156395285Y-78685571D01*
X157395285Y-80114142D02*
X157395285Y-80185571D01*
X157323857Y-80328428D01*
X157252428Y-80399857D01*
X159109571Y-78828428D02*
X159181000Y-78757000D01*
X159323857Y-78685571D01*
X159681000Y-78685571D01*
X159823857Y-78757000D01*
X159895285Y-78828428D01*
X159966714Y-78971285D01*
X159966714Y-79114142D01*
X159895285Y-79328428D01*
X159038142Y-80185571D01*
X159966714Y-80185571D01*
X160895285Y-78685571D02*
X161038142Y-78685571D01*
X161181000Y-78757000D01*
X161252428Y-78828428D01*
X161323857Y-78971285D01*
X161395285Y-79257000D01*
X161395285Y-79614142D01*
X161323857Y-79899857D01*
X161252428Y-80042714D01*
X161181000Y-80114142D01*
X161038142Y-80185571D01*
X160895285Y-80185571D01*
X160752428Y-80114142D01*
X160681000Y-80042714D01*
X160609571Y-79899857D01*
X160538142Y-79614142D01*
X160538142Y-79257000D01*
X160609571Y-78971285D01*
X160681000Y-78828428D01*
X160752428Y-78757000D01*
X160895285Y-78685571D01*
X162823857Y-80185571D02*
X161966714Y-80185571D01*
X162395285Y-80185571D02*
X162395285Y-78685571D01*
X162252428Y-78899857D01*
X162109571Y-79042714D01*
X161966714Y-79114142D01*
X163538142Y-80185571D02*
X163823857Y-80185571D01*
X163966714Y-80114142D01*
X164038142Y-80042714D01*
X164181000Y-79828428D01*
X164252428Y-79542714D01*
X164252428Y-78971285D01*
X164181000Y-78828428D01*
X164109571Y-78757000D01*
X163966714Y-78685571D01*
X163681000Y-78685571D01*
X163538142Y-78757000D01*
X163466714Y-78828428D01*
X163395285Y-78971285D01*
X163395285Y-79328428D01*
X163466714Y-79471285D01*
X163538142Y-79542714D01*
X163681000Y-79614142D01*
X163966714Y-79614142D01*
X164109571Y-79542714D01*
X164181000Y-79471285D01*
X164252428Y-79328428D01*
X142466714Y-82307000D02*
X143181000Y-82307000D01*
X142323857Y-82735571D02*
X142823857Y-81235571D01*
X143323857Y-82735571D01*
X143823857Y-81735571D02*
X143823857Y-82735571D01*
X143823857Y-81878428D02*
X143895285Y-81807000D01*
X144038142Y-81735571D01*
X144252428Y-81735571D01*
X144395285Y-81807000D01*
X144466714Y-81949857D01*
X144466714Y-82735571D01*
X145823857Y-82735571D02*
X145823857Y-81235571D01*
X145823857Y-82664142D02*
X145681000Y-82735571D01*
X145395285Y-82735571D01*
X145252428Y-82664142D01*
X145181000Y-82592714D01*
X145109571Y-82449857D01*
X145109571Y-82021285D01*
X145181000Y-81878428D01*
X145252428Y-81807000D01*
X145395285Y-81735571D01*
X145681000Y-81735571D01*
X145823857Y-81807000D01*
X146538142Y-82735571D02*
X146538142Y-81735571D01*
X146538142Y-82021285D02*
X146609571Y-81878428D01*
X146681000Y-81807000D01*
X146823857Y-81735571D01*
X146966714Y-81735571D01*
X148038142Y-82664142D02*
X147895285Y-82735571D01*
X147609571Y-82735571D01*
X147466714Y-82664142D01*
X147395285Y-82521285D01*
X147395285Y-81949857D01*
X147466714Y-81807000D01*
X147609571Y-81735571D01*
X147895285Y-81735571D01*
X148038142Y-81807000D01*
X148109571Y-81949857D01*
X148109571Y-82092714D01*
X147395285Y-82235571D01*
X148609571Y-81735571D02*
X148895285Y-82735571D01*
X149181000Y-82021285D01*
X149466714Y-82735571D01*
X149752428Y-81735571D01*
X151252428Y-81235571D02*
X151752428Y-82735571D01*
X152252428Y-81235571D01*
X153395285Y-82735571D02*
X153395285Y-81949857D01*
X153323857Y-81807000D01*
X153181000Y-81735571D01*
X152895285Y-81735571D01*
X152752428Y-81807000D01*
X153395285Y-82664142D02*
X153252428Y-82735571D01*
X152895285Y-82735571D01*
X152752428Y-82664142D01*
X152681000Y-82521285D01*
X152681000Y-82378428D01*
X152752428Y-82235571D01*
X152895285Y-82164142D01*
X153252428Y-82164142D01*
X153395285Y-82092714D01*
X154109571Y-81735571D02*
X154109571Y-82735571D01*
X154109571Y-81878428D02*
X154181000Y-81807000D01*
X154323857Y-81735571D01*
X154538142Y-81735571D01*
X154681000Y-81807000D01*
X154752428Y-81949857D01*
X154752428Y-82735571D01*
X156609571Y-82735571D02*
X156609571Y-81235571D01*
X156609571Y-81949857D02*
X157466714Y-81949857D01*
X157466714Y-82735571D02*
X157466714Y-81235571D01*
X158395285Y-82735571D02*
X158252428Y-82664142D01*
X158181000Y-82592714D01*
X158109571Y-82449857D01*
X158109571Y-82021285D01*
X158181000Y-81878428D01*
X158252428Y-81807000D01*
X158395285Y-81735571D01*
X158609571Y-81735571D01*
X158752428Y-81807000D01*
X158823857Y-81878428D01*
X158895285Y-82021285D01*
X158895285Y-82449857D01*
X158823857Y-82592714D01*
X158752428Y-82664142D01*
X158609571Y-82735571D01*
X158395285Y-82735571D01*
X159538142Y-82735571D02*
X159538142Y-81735571D01*
X159538142Y-82021285D02*
X159609571Y-81878428D01*
X159681000Y-81807000D01*
X159823857Y-81735571D01*
X159966714Y-81735571D01*
X160466714Y-81735571D02*
X160466714Y-82735571D01*
X160466714Y-81878428D02*
X160538142Y-81807000D01*
X160681000Y-81735571D01*
X160895285Y-81735571D01*
X161038142Y-81807000D01*
X161109571Y-81949857D01*
X161109571Y-82735571D01*
X193885428Y-82915142D02*
X194599714Y-82415142D01*
X193885428Y-82058000D02*
X195385428Y-82058000D01*
X195385428Y-82629428D01*
X195314000Y-82772285D01*
X195242571Y-82843714D01*
X195099714Y-82915142D01*
X194885428Y-82915142D01*
X194742571Y-82843714D01*
X194671142Y-82772285D01*
X194599714Y-82629428D01*
X194599714Y-82058000D01*
X193885428Y-83415142D02*
X194885428Y-84200857D01*
X194885428Y-83415142D02*
X193885428Y-84200857D01*
X191575428Y-82022285D02*
X191575428Y-82879428D01*
X190075428Y-82450857D02*
X191575428Y-82450857D01*
X190075428Y-83236571D02*
X191075428Y-84022285D01*
X191075428Y-83236571D02*
X190075428Y-84022285D01*
X160357428Y-112712571D02*
X161071714Y-112212571D01*
X160357428Y-111855428D02*
X161857428Y-111855428D01*
X161857428Y-112426857D01*
X161786000Y-112569714D01*
X161714571Y-112641142D01*
X161571714Y-112712571D01*
X161357428Y-112712571D01*
X161214571Y-112641142D01*
X161143142Y-112569714D01*
X161071714Y-112426857D01*
X161071714Y-111855428D01*
X160428857Y-113284000D02*
X160357428Y-113426857D01*
X160357428Y-113712571D01*
X160428857Y-113855428D01*
X160571714Y-113926857D01*
X160643142Y-113926857D01*
X160786000Y-113855428D01*
X160857428Y-113712571D01*
X160857428Y-113498285D01*
X160928857Y-113355428D01*
X161071714Y-113284000D01*
X161143142Y-113284000D01*
X161286000Y-113355428D01*
X161357428Y-113498285D01*
X161357428Y-113712571D01*
X161286000Y-113855428D01*
X161357428Y-114355428D02*
X161357428Y-114926857D01*
X161857428Y-114569714D02*
X160571714Y-114569714D01*
X160428857Y-114641142D01*
X160357428Y-114784000D01*
X160357428Y-114926857D01*
X187098857Y-75521714D02*
X187027428Y-75736000D01*
X187027428Y-76093142D01*
X187098857Y-76236000D01*
X187170285Y-76307428D01*
X187313142Y-76378857D01*
X187456000Y-76378857D01*
X187598857Y-76307428D01*
X187670285Y-76236000D01*
X187741714Y-76093142D01*
X187813142Y-75807428D01*
X187884571Y-75664571D01*
X187956000Y-75593142D01*
X188098857Y-75521714D01*
X188241714Y-75521714D01*
X188384571Y-75593142D01*
X188456000Y-75664571D01*
X188527428Y-75807428D01*
X188527428Y-76164571D01*
X188456000Y-76378857D01*
X187098857Y-77593142D02*
X187027428Y-77450285D01*
X187027428Y-77164571D01*
X187098857Y-77021714D01*
X187241714Y-76950285D01*
X187813142Y-76950285D01*
X187956000Y-77021714D01*
X188027428Y-77164571D01*
X188027428Y-77450285D01*
X187956000Y-77593142D01*
X187813142Y-77664571D01*
X187670285Y-77664571D01*
X187527428Y-76950285D01*
X187027428Y-78307428D02*
X188027428Y-78307428D01*
X187741714Y-78307428D02*
X187884571Y-78378857D01*
X187956000Y-78450285D01*
X188027428Y-78593142D01*
X188027428Y-78736000D01*
X187027428Y-79236000D02*
X188027428Y-79236000D01*
X188527428Y-79236000D02*
X188456000Y-79164571D01*
X188384571Y-79236000D01*
X188456000Y-79307428D01*
X188527428Y-79236000D01*
X188384571Y-79236000D01*
X187027428Y-80593142D02*
X187813142Y-80593142D01*
X187956000Y-80521714D01*
X188027428Y-80378857D01*
X188027428Y-80093142D01*
X187956000Y-79950285D01*
X187098857Y-80593142D02*
X187027428Y-80450285D01*
X187027428Y-80093142D01*
X187098857Y-79950285D01*
X187241714Y-79878857D01*
X187384571Y-79878857D01*
X187527428Y-79950285D01*
X187598857Y-80093142D01*
X187598857Y-80450285D01*
X187670285Y-80593142D01*
X187027428Y-81521714D02*
X187098857Y-81378857D01*
X187241714Y-81307428D01*
X188527428Y-81307428D01*
X170493428Y-105628571D02*
X168993428Y-106628571D01*
X170493428Y-106628571D02*
X168993428Y-105628571D01*
X170493428Y-106985714D02*
X170493428Y-107842857D01*
X168993428Y-107414285D02*
X170493428Y-107414285D01*
X169422000Y-108271428D02*
X169422000Y-108985714D01*
X168993428Y-108128571D02*
X170493428Y-108628571D01*
X168993428Y-109128571D01*
X168993428Y-110342857D02*
X168993428Y-109628571D01*
X170493428Y-109628571D01*
D11*
G04 #@! TO.C,R1*
X149608000Y-100553733D02*
X149608000Y-100896267D01*
X148588000Y-100553733D02*
X148588000Y-100896267D01*
G04 #@! TO.C,C1*
X181386267Y-114810000D02*
X181043733Y-114810000D01*
X181386267Y-113790000D02*
X181043733Y-113790000D01*
G04 #@! TO.C,C2*
X184373733Y-114810000D02*
X184716267Y-114810000D01*
X184373733Y-113790000D02*
X184716267Y-113790000D01*
G04 #@! TO.C,JP1*
X195894000Y-81086000D02*
X194564000Y-81086000D01*
X195894000Y-79756000D02*
X195894000Y-81086000D01*
X195894000Y-78486000D02*
X193234000Y-78486000D01*
X193234000Y-78486000D02*
X193234000Y-75886000D01*
X195894000Y-78486000D02*
X195894000Y-75886000D01*
X195894000Y-75886000D02*
X193234000Y-75886000D01*
G04 #@! TO.C,JP2*
X165414000Y-110684000D02*
X162754000Y-110684000D01*
X165414000Y-113284000D02*
X165414000Y-110684000D01*
X162754000Y-113284000D02*
X162754000Y-110684000D01*
X165414000Y-113284000D02*
X162754000Y-113284000D01*
X165414000Y-114554000D02*
X165414000Y-115884000D01*
X165414000Y-115884000D02*
X164084000Y-115884000D01*
G04 #@! TO.C,JP3*
X171390000Y-110550000D02*
X174050000Y-110550000D01*
X171390000Y-107950000D02*
X171390000Y-110550000D01*
X174050000Y-107950000D02*
X174050000Y-110550000D01*
X171390000Y-107950000D02*
X174050000Y-107950000D01*
X171390000Y-106680000D02*
X171390000Y-105350000D01*
X171390000Y-105350000D02*
X172720000Y-105350000D01*
G04 #@! TO.C,U1*
X151070000Y-96790000D02*
G75*
G02X151070000Y-98790000I0J-1000000D01*
G01*
X151070000Y-98790000D02*
X151070000Y-100440000D01*
X151070000Y-100440000D02*
X186750000Y-100440000D01*
X186750000Y-100440000D02*
X186750000Y-95140000D01*
X186750000Y-95140000D02*
X151070000Y-95140000D01*
X151070000Y-95140000D02*
X151070000Y-96790000D01*
G04 #@! TO.C,Y1*
X179855000Y-106695000D02*
X186105000Y-106695000D01*
X179855000Y-111745000D02*
X186105000Y-111745000D01*
X179855000Y-111745000D02*
G75*
G02X179855000Y-106695000I0J2525000D01*
G01*
X186105000Y-111745000D02*
G75*
G03X186105000Y-106695000I0J2525000D01*
G01*
G04 #@! TO.C,JP4*
X192084000Y-75886000D02*
X189424000Y-75886000D01*
X192084000Y-78486000D02*
X192084000Y-75886000D01*
X189424000Y-78486000D02*
X189424000Y-75886000D01*
X192084000Y-78486000D02*
X189424000Y-78486000D01*
X192084000Y-79756000D02*
X192084000Y-81086000D01*
X192084000Y-81086000D02*
X190754000Y-81086000D01*
D12*
G04 #@! TO.C,G\002A\002A\002A*
G36*
X151008309Y-83038561D02*
X151041080Y-83059512D01*
X151088007Y-83096470D01*
X151126942Y-83129615D01*
X151143424Y-83156645D01*
X151141740Y-83185198D01*
X151129407Y-83216693D01*
X151104440Y-83264259D01*
X151069798Y-83323098D01*
X151028437Y-83388413D01*
X150983316Y-83455403D01*
X150937393Y-83519272D01*
X150928606Y-83530941D01*
X150892753Y-83580794D01*
X150855896Y-83636484D01*
X150821078Y-83692857D01*
X150791341Y-83744759D01*
X150769728Y-83787036D01*
X150759281Y-83814533D01*
X150758770Y-83818671D01*
X150748858Y-83836302D01*
X150732718Y-83849541D01*
X150712248Y-83868838D01*
X150706667Y-83882802D01*
X150697886Y-83901764D01*
X150675916Y-83928671D01*
X150666579Y-83938050D01*
X150639916Y-83969723D01*
X150609494Y-84015028D01*
X150583596Y-84060974D01*
X150542814Y-84140566D01*
X150510696Y-84200757D01*
X150484762Y-84245697D01*
X150462535Y-84279535D01*
X150441537Y-84306420D01*
X150427980Y-84321487D01*
X150400443Y-84353399D01*
X150368472Y-84394421D01*
X150336102Y-84438821D01*
X150307370Y-84480862D01*
X150286313Y-84514809D01*
X150276966Y-84534928D01*
X150276821Y-84536263D01*
X150268565Y-84552680D01*
X150248292Y-84577699D01*
X150244286Y-84581970D01*
X150219478Y-84611118D01*
X150188160Y-84652255D01*
X150162875Y-84688097D01*
X150117236Y-84753334D01*
X150065402Y-84823958D01*
X150011941Y-84894044D01*
X149961419Y-84957669D01*
X149918403Y-85008908D01*
X149899539Y-85029724D01*
X149865515Y-85066389D01*
X149834636Y-85100916D01*
X149821709Y-85116051D01*
X149799169Y-85143040D01*
X149767085Y-85181082D01*
X149736234Y-85217435D01*
X149698127Y-85268496D01*
X149679222Y-85308953D01*
X149677404Y-85321640D01*
X149666434Y-85368133D01*
X149633697Y-85421912D01*
X149578592Y-85483667D01*
X149500518Y-85554087D01*
X149415925Y-85621061D01*
X149367656Y-85654057D01*
X149327312Y-85670726D01*
X149284907Y-85673655D01*
X149238471Y-85667019D01*
X149209567Y-85652317D01*
X149178816Y-85623949D01*
X149154177Y-85590818D01*
X149143608Y-85561825D01*
X149143590Y-85560883D01*
X149148091Y-85538934D01*
X149160050Y-85500150D01*
X149177155Y-85451845D01*
X149182667Y-85437309D01*
X149200865Y-85387159D01*
X149214545Y-85343948D01*
X149221376Y-85315227D01*
X149221744Y-85310853D01*
X149227111Y-85286790D01*
X149241163Y-85248001D01*
X149260248Y-85204221D01*
X149284291Y-85150341D01*
X149311368Y-85085309D01*
X149335899Y-85022558D01*
X149337465Y-85018359D01*
X149431376Y-84791022D01*
X149481956Y-84686205D01*
X149507263Y-84631943D01*
X149532973Y-84570057D01*
X149546345Y-84534185D01*
X149566007Y-84485745D01*
X149594385Y-84425507D01*
X149626494Y-84363832D01*
X149639047Y-84341461D01*
X149666450Y-84292798D01*
X149688092Y-84252385D01*
X149701148Y-84225612D01*
X149703693Y-84218148D01*
X149710497Y-84202201D01*
X149728109Y-84172232D01*
X149746617Y-84143846D01*
X149774617Y-84098573D01*
X149805930Y-84042018D01*
X149832367Y-83989333D01*
X149856187Y-83941523D01*
X149879155Y-83900277D01*
X149896686Y-83873775D01*
X149898093Y-83872103D01*
X149915722Y-83847120D01*
X149937811Y-83808982D01*
X149961560Y-83763532D01*
X149984171Y-83716611D01*
X150002844Y-83674064D01*
X150014780Y-83641731D01*
X150017179Y-83625456D01*
X150016586Y-83624787D01*
X149996418Y-83625150D01*
X149962090Y-83637367D01*
X149920723Y-83658263D01*
X149879435Y-83684662D01*
X149874928Y-83687971D01*
X149838014Y-83712554D01*
X149790532Y-83740385D01*
X149760537Y-83756345D01*
X149720073Y-83780261D01*
X149671698Y-83813899D01*
X149621346Y-83852506D01*
X149574949Y-83891330D01*
X149538439Y-83925618D01*
X149517748Y-83950619D01*
X149517522Y-83951017D01*
X149515797Y-83965009D01*
X149535091Y-83969705D01*
X149540872Y-83969795D01*
X149586970Y-83977727D01*
X149625167Y-83998369D01*
X149652367Y-84026984D01*
X149665476Y-84058840D01*
X149661398Y-84089201D01*
X149637039Y-84113332D01*
X149635308Y-84114252D01*
X149605775Y-84134205D01*
X149574204Y-84161931D01*
X149572600Y-84163556D01*
X149537475Y-84193851D01*
X149500057Y-84218581D01*
X149468344Y-84245012D01*
X149439063Y-84285156D01*
X149432904Y-84296735D01*
X149384784Y-84374212D01*
X149327643Y-84429220D01*
X149304798Y-84443354D01*
X149280814Y-84460057D01*
X149243401Y-84490616D01*
X149197724Y-84530646D01*
X149150103Y-84574666D01*
X149102472Y-84618333D01*
X149059043Y-84655345D01*
X149024561Y-84681836D01*
X149003775Y-84693941D01*
X149003565Y-84694001D01*
X148980799Y-84704248D01*
X148974257Y-84712782D01*
X148964294Y-84725384D01*
X148938031Y-84748350D01*
X148900904Y-84777689D01*
X148858353Y-84809407D01*
X148815814Y-84839512D01*
X148778724Y-84864013D01*
X148752523Y-84878915D01*
X148744341Y-84881590D01*
X148730225Y-84870694D01*
X148726770Y-84854770D01*
X148722081Y-84836521D01*
X148714644Y-84835444D01*
X148699092Y-84833419D01*
X148686707Y-84808319D01*
X148678110Y-84762995D01*
X148673924Y-84700300D01*
X148673929Y-84648503D01*
X148684563Y-84605715D01*
X148713561Y-84549531D01*
X148758991Y-84482888D01*
X148818922Y-84408724D01*
X148865500Y-84357063D01*
X148901682Y-84317285D01*
X148929828Y-84284045D01*
X148945926Y-84262195D01*
X148948206Y-84256993D01*
X148958920Y-84243841D01*
X148973230Y-84237146D01*
X148990125Y-84225785D01*
X149021997Y-84198987D01*
X149065466Y-84159799D01*
X149101352Y-84126103D01*
X149330333Y-84126103D01*
X149341417Y-84117606D01*
X149358513Y-84100051D01*
X149371800Y-84081346D01*
X149370178Y-84074000D01*
X149354738Y-84083828D01*
X149341998Y-84100051D01*
X149331210Y-84119954D01*
X149330333Y-84126103D01*
X149101352Y-84126103D01*
X149117152Y-84111268D01*
X149172937Y-84057166D01*
X149272266Y-83960101D01*
X149356864Y-83879346D01*
X149429855Y-83812242D01*
X149494363Y-83756128D01*
X149553513Y-83708347D01*
X149610429Y-83666238D01*
X149668237Y-83627143D01*
X149707367Y-83602338D01*
X149773841Y-83562597D01*
X149848769Y-83520128D01*
X149919607Y-83481971D01*
X149944667Y-83469152D01*
X149998839Y-83442512D01*
X150036613Y-83426151D01*
X150064730Y-83418369D01*
X150089928Y-83417470D01*
X150118944Y-83421753D01*
X150126718Y-83423263D01*
X150178486Y-83437218D01*
X150209994Y-83457746D01*
X150227024Y-83490637D01*
X150234248Y-83530974D01*
X150234852Y-83579421D01*
X150228515Y-83635522D01*
X150217027Y-83689804D01*
X150202182Y-83732796D01*
X150193109Y-83748359D01*
X150177983Y-83772027D01*
X150158666Y-83807531D01*
X150152432Y-83820000D01*
X150129260Y-83862187D01*
X150103986Y-83900819D01*
X150098839Y-83907591D01*
X150077753Y-83938804D01*
X150052399Y-83982794D01*
X150034084Y-84018309D01*
X150009447Y-84066326D01*
X149984067Y-84111651D01*
X149968775Y-84136304D01*
X149947272Y-84174932D01*
X149932718Y-84212801D01*
X149931773Y-84216685D01*
X149917063Y-84252139D01*
X149892381Y-84287819D01*
X149889983Y-84290478D01*
X149866661Y-84321216D01*
X149836319Y-84368849D01*
X149802734Y-84426566D01*
X149769682Y-84487552D01*
X149740941Y-84544995D01*
X149720286Y-84592083D01*
X149715606Y-84605038D01*
X149701484Y-84641655D01*
X149679943Y-84690627D01*
X149656061Y-84740509D01*
X149635038Y-84783453D01*
X149619587Y-84816940D01*
X149612640Y-84834574D01*
X149612513Y-84835445D01*
X149607394Y-84849863D01*
X149593516Y-84882762D01*
X149573101Y-84928998D01*
X149552402Y-84974652D01*
X149525104Y-85038098D01*
X149500825Y-85101699D01*
X149481110Y-85160517D01*
X149467505Y-85209614D01*
X149461553Y-85244051D01*
X149463715Y-85258159D01*
X149475176Y-85252499D01*
X149499425Y-85230077D01*
X149533125Y-85194590D01*
X149572938Y-85149737D01*
X149615526Y-85099214D01*
X149657550Y-85046720D01*
X149674307Y-85024872D01*
X149708102Y-84980694D01*
X149737044Y-84943846D01*
X149756843Y-84919742D01*
X149761983Y-84914154D01*
X149776620Y-84897042D01*
X149800408Y-84866003D01*
X149822270Y-84836000D01*
X149852498Y-84794645D01*
X149881253Y-84756986D01*
X149896354Y-84738308D01*
X149951264Y-84672868D01*
X149996143Y-84617185D01*
X150037163Y-84563157D01*
X150080494Y-84502677D01*
X150127026Y-84435362D01*
X150168967Y-84373972D01*
X150209537Y-84314380D01*
X150244519Y-84262793D01*
X150269697Y-84225418D01*
X150272717Y-84220898D01*
X150305334Y-84173288D01*
X150340574Y-84123767D01*
X150355250Y-84103826D01*
X150378513Y-84068619D01*
X150408304Y-84017690D01*
X150440137Y-83958923D01*
X150460107Y-83919628D01*
X150492783Y-83857529D01*
X150528706Y-83795845D01*
X150562498Y-83743553D01*
X150579471Y-83720469D01*
X150612068Y-83676416D01*
X150640696Y-83632400D01*
X150656572Y-83603187D01*
X150677044Y-83568979D01*
X150713300Y-83519966D01*
X150762533Y-83459591D01*
X150821935Y-83391297D01*
X150888594Y-83318640D01*
X150916272Y-83283131D01*
X150947157Y-83234357D01*
X150973631Y-83184724D01*
X151015885Y-83096271D01*
X150990587Y-83064110D01*
X150974697Y-83041938D01*
X150975322Y-83033270D01*
X150987310Y-83031949D01*
X151008309Y-83038561D01*
X151008309Y-83038561D01*
G37*
X151008309Y-83038561D02*
X151041080Y-83059512D01*
X151088007Y-83096470D01*
X151126942Y-83129615D01*
X151143424Y-83156645D01*
X151141740Y-83185198D01*
X151129407Y-83216693D01*
X151104440Y-83264259D01*
X151069798Y-83323098D01*
X151028437Y-83388413D01*
X150983316Y-83455403D01*
X150937393Y-83519272D01*
X150928606Y-83530941D01*
X150892753Y-83580794D01*
X150855896Y-83636484D01*
X150821078Y-83692857D01*
X150791341Y-83744759D01*
X150769728Y-83787036D01*
X150759281Y-83814533D01*
X150758770Y-83818671D01*
X150748858Y-83836302D01*
X150732718Y-83849541D01*
X150712248Y-83868838D01*
X150706667Y-83882802D01*
X150697886Y-83901764D01*
X150675916Y-83928671D01*
X150666579Y-83938050D01*
X150639916Y-83969723D01*
X150609494Y-84015028D01*
X150583596Y-84060974D01*
X150542814Y-84140566D01*
X150510696Y-84200757D01*
X150484762Y-84245697D01*
X150462535Y-84279535D01*
X150441537Y-84306420D01*
X150427980Y-84321487D01*
X150400443Y-84353399D01*
X150368472Y-84394421D01*
X150336102Y-84438821D01*
X150307370Y-84480862D01*
X150286313Y-84514809D01*
X150276966Y-84534928D01*
X150276821Y-84536263D01*
X150268565Y-84552680D01*
X150248292Y-84577699D01*
X150244286Y-84581970D01*
X150219478Y-84611118D01*
X150188160Y-84652255D01*
X150162875Y-84688097D01*
X150117236Y-84753334D01*
X150065402Y-84823958D01*
X150011941Y-84894044D01*
X149961419Y-84957669D01*
X149918403Y-85008908D01*
X149899539Y-85029724D01*
X149865515Y-85066389D01*
X149834636Y-85100916D01*
X149821709Y-85116051D01*
X149799169Y-85143040D01*
X149767085Y-85181082D01*
X149736234Y-85217435D01*
X149698127Y-85268496D01*
X149679222Y-85308953D01*
X149677404Y-85321640D01*
X149666434Y-85368133D01*
X149633697Y-85421912D01*
X149578592Y-85483667D01*
X149500518Y-85554087D01*
X149415925Y-85621061D01*
X149367656Y-85654057D01*
X149327312Y-85670726D01*
X149284907Y-85673655D01*
X149238471Y-85667019D01*
X149209567Y-85652317D01*
X149178816Y-85623949D01*
X149154177Y-85590818D01*
X149143608Y-85561825D01*
X149143590Y-85560883D01*
X149148091Y-85538934D01*
X149160050Y-85500150D01*
X149177155Y-85451845D01*
X149182667Y-85437309D01*
X149200865Y-85387159D01*
X149214545Y-85343948D01*
X149221376Y-85315227D01*
X149221744Y-85310853D01*
X149227111Y-85286790D01*
X149241163Y-85248001D01*
X149260248Y-85204221D01*
X149284291Y-85150341D01*
X149311368Y-85085309D01*
X149335899Y-85022558D01*
X149337465Y-85018359D01*
X149431376Y-84791022D01*
X149481956Y-84686205D01*
X149507263Y-84631943D01*
X149532973Y-84570057D01*
X149546345Y-84534185D01*
X149566007Y-84485745D01*
X149594385Y-84425507D01*
X149626494Y-84363832D01*
X149639047Y-84341461D01*
X149666450Y-84292798D01*
X149688092Y-84252385D01*
X149701148Y-84225612D01*
X149703693Y-84218148D01*
X149710497Y-84202201D01*
X149728109Y-84172232D01*
X149746617Y-84143846D01*
X149774617Y-84098573D01*
X149805930Y-84042018D01*
X149832367Y-83989333D01*
X149856187Y-83941523D01*
X149879155Y-83900277D01*
X149896686Y-83873775D01*
X149898093Y-83872103D01*
X149915722Y-83847120D01*
X149937811Y-83808982D01*
X149961560Y-83763532D01*
X149984171Y-83716611D01*
X150002844Y-83674064D01*
X150014780Y-83641731D01*
X150017179Y-83625456D01*
X150016586Y-83624787D01*
X149996418Y-83625150D01*
X149962090Y-83637367D01*
X149920723Y-83658263D01*
X149879435Y-83684662D01*
X149874928Y-83687971D01*
X149838014Y-83712554D01*
X149790532Y-83740385D01*
X149760537Y-83756345D01*
X149720073Y-83780261D01*
X149671698Y-83813899D01*
X149621346Y-83852506D01*
X149574949Y-83891330D01*
X149538439Y-83925618D01*
X149517748Y-83950619D01*
X149517522Y-83951017D01*
X149515797Y-83965009D01*
X149535091Y-83969705D01*
X149540872Y-83969795D01*
X149586970Y-83977727D01*
X149625167Y-83998369D01*
X149652367Y-84026984D01*
X149665476Y-84058840D01*
X149661398Y-84089201D01*
X149637039Y-84113332D01*
X149635308Y-84114252D01*
X149605775Y-84134205D01*
X149574204Y-84161931D01*
X149572600Y-84163556D01*
X149537475Y-84193851D01*
X149500057Y-84218581D01*
X149468344Y-84245012D01*
X149439063Y-84285156D01*
X149432904Y-84296735D01*
X149384784Y-84374212D01*
X149327643Y-84429220D01*
X149304798Y-84443354D01*
X149280814Y-84460057D01*
X149243401Y-84490616D01*
X149197724Y-84530646D01*
X149150103Y-84574666D01*
X149102472Y-84618333D01*
X149059043Y-84655345D01*
X149024561Y-84681836D01*
X149003775Y-84693941D01*
X149003565Y-84694001D01*
X148980799Y-84704248D01*
X148974257Y-84712782D01*
X148964294Y-84725384D01*
X148938031Y-84748350D01*
X148900904Y-84777689D01*
X148858353Y-84809407D01*
X148815814Y-84839512D01*
X148778724Y-84864013D01*
X148752523Y-84878915D01*
X148744341Y-84881590D01*
X148730225Y-84870694D01*
X148726770Y-84854770D01*
X148722081Y-84836521D01*
X148714644Y-84835444D01*
X148699092Y-84833419D01*
X148686707Y-84808319D01*
X148678110Y-84762995D01*
X148673924Y-84700300D01*
X148673929Y-84648503D01*
X148684563Y-84605715D01*
X148713561Y-84549531D01*
X148758991Y-84482888D01*
X148818922Y-84408724D01*
X148865500Y-84357063D01*
X148901682Y-84317285D01*
X148929828Y-84284045D01*
X148945926Y-84262195D01*
X148948206Y-84256993D01*
X148958920Y-84243841D01*
X148973230Y-84237146D01*
X148990125Y-84225785D01*
X149021997Y-84198987D01*
X149065466Y-84159799D01*
X149101352Y-84126103D01*
X149330333Y-84126103D01*
X149341417Y-84117606D01*
X149358513Y-84100051D01*
X149371800Y-84081346D01*
X149370178Y-84074000D01*
X149354738Y-84083828D01*
X149341998Y-84100051D01*
X149331210Y-84119954D01*
X149330333Y-84126103D01*
X149101352Y-84126103D01*
X149117152Y-84111268D01*
X149172937Y-84057166D01*
X149272266Y-83960101D01*
X149356864Y-83879346D01*
X149429855Y-83812242D01*
X149494363Y-83756128D01*
X149553513Y-83708347D01*
X149610429Y-83666238D01*
X149668237Y-83627143D01*
X149707367Y-83602338D01*
X149773841Y-83562597D01*
X149848769Y-83520128D01*
X149919607Y-83481971D01*
X149944667Y-83469152D01*
X149998839Y-83442512D01*
X150036613Y-83426151D01*
X150064730Y-83418369D01*
X150089928Y-83417470D01*
X150118944Y-83421753D01*
X150126718Y-83423263D01*
X150178486Y-83437218D01*
X150209994Y-83457746D01*
X150227024Y-83490637D01*
X150234248Y-83530974D01*
X150234852Y-83579421D01*
X150228515Y-83635522D01*
X150217027Y-83689804D01*
X150202182Y-83732796D01*
X150193109Y-83748359D01*
X150177983Y-83772027D01*
X150158666Y-83807531D01*
X150152432Y-83820000D01*
X150129260Y-83862187D01*
X150103986Y-83900819D01*
X150098839Y-83907591D01*
X150077753Y-83938804D01*
X150052399Y-83982794D01*
X150034084Y-84018309D01*
X150009447Y-84066326D01*
X149984067Y-84111651D01*
X149968775Y-84136304D01*
X149947272Y-84174932D01*
X149932718Y-84212801D01*
X149931773Y-84216685D01*
X149917063Y-84252139D01*
X149892381Y-84287819D01*
X149889983Y-84290478D01*
X149866661Y-84321216D01*
X149836319Y-84368849D01*
X149802734Y-84426566D01*
X149769682Y-84487552D01*
X149740941Y-84544995D01*
X149720286Y-84592083D01*
X149715606Y-84605038D01*
X149701484Y-84641655D01*
X149679943Y-84690627D01*
X149656061Y-84740509D01*
X149635038Y-84783453D01*
X149619587Y-84816940D01*
X149612640Y-84834574D01*
X149612513Y-84835445D01*
X149607394Y-84849863D01*
X149593516Y-84882762D01*
X149573101Y-84928998D01*
X149552402Y-84974652D01*
X149525104Y-85038098D01*
X149500825Y-85101699D01*
X149481110Y-85160517D01*
X149467505Y-85209614D01*
X149461553Y-85244051D01*
X149463715Y-85258159D01*
X149475176Y-85252499D01*
X149499425Y-85230077D01*
X149533125Y-85194590D01*
X149572938Y-85149737D01*
X149615526Y-85099214D01*
X149657550Y-85046720D01*
X149674307Y-85024872D01*
X149708102Y-84980694D01*
X149737044Y-84943846D01*
X149756843Y-84919742D01*
X149761983Y-84914154D01*
X149776620Y-84897042D01*
X149800408Y-84866003D01*
X149822270Y-84836000D01*
X149852498Y-84794645D01*
X149881253Y-84756986D01*
X149896354Y-84738308D01*
X149951264Y-84672868D01*
X149996143Y-84617185D01*
X150037163Y-84563157D01*
X150080494Y-84502677D01*
X150127026Y-84435362D01*
X150168967Y-84373972D01*
X150209537Y-84314380D01*
X150244519Y-84262793D01*
X150269697Y-84225418D01*
X150272717Y-84220898D01*
X150305334Y-84173288D01*
X150340574Y-84123767D01*
X150355250Y-84103826D01*
X150378513Y-84068619D01*
X150408304Y-84017690D01*
X150440137Y-83958923D01*
X150460107Y-83919628D01*
X150492783Y-83857529D01*
X150528706Y-83795845D01*
X150562498Y-83743553D01*
X150579471Y-83720469D01*
X150612068Y-83676416D01*
X150640696Y-83632400D01*
X150656572Y-83603187D01*
X150677044Y-83568979D01*
X150713300Y-83519966D01*
X150762533Y-83459591D01*
X150821935Y-83391297D01*
X150888594Y-83318640D01*
X150916272Y-83283131D01*
X150947157Y-83234357D01*
X150973631Y-83184724D01*
X151015885Y-83096271D01*
X150990587Y-83064110D01*
X150974697Y-83041938D01*
X150975322Y-83033270D01*
X150987310Y-83031949D01*
X151008309Y-83038561D01*
G36*
X151948506Y-84579382D02*
X151957129Y-84593431D01*
X151965481Y-84607806D01*
X151986557Y-84632808D01*
X151998180Y-84645094D01*
X152039232Y-84687083D01*
X152023352Y-84761541D01*
X152011959Y-84805542D01*
X151993891Y-84864851D01*
X151971971Y-84930515D01*
X151956250Y-84974377D01*
X151935828Y-85030257D01*
X151919272Y-85076913D01*
X151908414Y-85109091D01*
X151905026Y-85121286D01*
X151899771Y-85136181D01*
X151885758Y-85168532D01*
X151865611Y-85212363D01*
X151857080Y-85230396D01*
X151830251Y-85289300D01*
X151804099Y-85351079D01*
X151783846Y-85403348D01*
X151782182Y-85408042D01*
X151755231Y-85485110D01*
X151665647Y-85515208D01*
X151576064Y-85545306D01*
X151582276Y-85490192D01*
X151584058Y-85449080D01*
X151580785Y-85415234D01*
X151579060Y-85409078D01*
X151577363Y-85376905D01*
X151583816Y-85357026D01*
X151595430Y-85333860D01*
X151598988Y-85324462D01*
X151606256Y-85297107D01*
X151620975Y-85253755D01*
X151640136Y-85202269D01*
X151660728Y-85150509D01*
X151679741Y-85106338D01*
X151692209Y-85080995D01*
X151708658Y-85044359D01*
X151711095Y-85022680D01*
X151701314Y-85018888D01*
X151681107Y-85035916D01*
X151671749Y-85047543D01*
X151649334Y-85076921D01*
X151632130Y-85098619D01*
X151631629Y-85099219D01*
X151619731Y-85120593D01*
X151618462Y-85127442D01*
X151610163Y-85143478D01*
X151608693Y-85144273D01*
X151591269Y-85160753D01*
X151568644Y-85192920D01*
X151545723Y-85232451D01*
X151527413Y-85271022D01*
X151519309Y-85295942D01*
X151504307Y-85334836D01*
X151479205Y-85372422D01*
X151476715Y-85375194D01*
X151438047Y-85421729D01*
X151396686Y-85478952D01*
X151360545Y-85535520D01*
X151344502Y-85564740D01*
X151322390Y-85599634D01*
X151292329Y-85636555D01*
X151286308Y-85642894D01*
X151257060Y-85677376D01*
X151234341Y-85712151D01*
X151231228Y-85718487D01*
X151212552Y-85747073D01*
X151194637Y-85752164D01*
X151180858Y-85733175D01*
X151179172Y-85727520D01*
X151166153Y-85708023D01*
X151152871Y-85708136D01*
X151127407Y-85706492D01*
X151095017Y-85691245D01*
X151065112Y-85668637D01*
X151047102Y-85644913D01*
X151045334Y-85636783D01*
X151039102Y-85612292D01*
X151032308Y-85604513D01*
X151020062Y-85587082D01*
X151031318Y-85562769D01*
X151041626Y-85551466D01*
X151058767Y-85525795D01*
X151078150Y-85484873D01*
X151095799Y-85438751D01*
X151107743Y-85397476D01*
X151110581Y-85377064D01*
X151116139Y-85354716D01*
X151130292Y-85318760D01*
X151142738Y-85291897D01*
X151166290Y-85234974D01*
X151174752Y-85191952D01*
X151167659Y-85165742D01*
X151163375Y-85162142D01*
X151148545Y-85166373D01*
X151129036Y-85186869D01*
X151127554Y-85188979D01*
X151099785Y-85224831D01*
X151074641Y-85252613D01*
X151054215Y-85275706D01*
X151045345Y-85291103D01*
X151045334Y-85291380D01*
X151038452Y-85307587D01*
X151021742Y-85334018D01*
X151020314Y-85336039D01*
X151000592Y-85367039D01*
X150975978Y-85410345D01*
X150949625Y-85459779D01*
X150924681Y-85509161D01*
X150904300Y-85552313D01*
X150891632Y-85583055D01*
X150889026Y-85593479D01*
X150879102Y-85612478D01*
X150858617Y-85630350D01*
X150828869Y-85657258D01*
X150811802Y-85680930D01*
X150791214Y-85705865D01*
X150757522Y-85734455D01*
X150738450Y-85747580D01*
X150700679Y-85775095D01*
X150669930Y-85803758D01*
X150660651Y-85815403D01*
X150642337Y-85836450D01*
X150626357Y-85835713D01*
X150622474Y-85832854D01*
X150611397Y-85809849D01*
X150612295Y-85791162D01*
X150613414Y-85771295D01*
X150601181Y-85770474D01*
X150586670Y-85784480D01*
X150586180Y-85791756D01*
X150581790Y-85805049D01*
X150562082Y-85802580D01*
X150531608Y-85785435D01*
X150518542Y-85775612D01*
X150497496Y-85757531D01*
X150487383Y-85741083D01*
X150486289Y-85717787D01*
X150492301Y-85679160D01*
X150494304Y-85668215D01*
X150502119Y-85617352D01*
X150502131Y-85590460D01*
X150494003Y-85586551D01*
X150477397Y-85604639D01*
X150474142Y-85609206D01*
X150448957Y-85641965D01*
X150423359Y-85671670D01*
X150403346Y-85695184D01*
X150394122Y-85709680D01*
X150394052Y-85710230D01*
X150386291Y-85722951D01*
X150366023Y-85749457D01*
X150339910Y-85781278D01*
X150299580Y-85821528D01*
X150263179Y-85843685D01*
X150234178Y-85846226D01*
X150219285Y-85834208D01*
X150202648Y-85827657D01*
X150181538Y-85828813D01*
X150153856Y-85826134D01*
X150125577Y-85804199D01*
X150116099Y-85793503D01*
X150094203Y-85764072D01*
X150082120Y-85741211D01*
X150081300Y-85737026D01*
X150080724Y-85717786D01*
X150079303Y-85679423D01*
X150077297Y-85628840D01*
X150076346Y-85605709D01*
X150075079Y-85541930D01*
X150078144Y-85495964D01*
X150086461Y-85459796D01*
X150095735Y-85436376D01*
X150111206Y-85392792D01*
X150119693Y-85350435D01*
X150120227Y-85341092D01*
X150125910Y-85302654D01*
X150139773Y-85257363D01*
X150145548Y-85243400D01*
X150145828Y-85242769D01*
X150405084Y-85242769D01*
X150412947Y-85246308D01*
X150426091Y-85239795D01*
X150810872Y-85239795D01*
X150817385Y-85246308D01*
X150823898Y-85239795D01*
X150817385Y-85233282D01*
X150810872Y-85239795D01*
X150426091Y-85239795D01*
X150433830Y-85235961D01*
X150446154Y-85220256D01*
X150454198Y-85200142D01*
X150452667Y-85194205D01*
X150452038Y-85184662D01*
X150459180Y-85168154D01*
X150469345Y-85146145D01*
X150466605Y-85143661D01*
X150453065Y-85158934D01*
X150430830Y-85190196D01*
X150428162Y-85194205D01*
X150408736Y-85226650D01*
X150405084Y-85242769D01*
X150145828Y-85242769D01*
X150166149Y-85197120D01*
X150186241Y-85151327D01*
X150190578Y-85141312D01*
X150209150Y-85110033D01*
X150240534Y-85068536D01*
X150278721Y-85024615D01*
X150288488Y-85014312D01*
X150328898Y-84974015D01*
X150358274Y-84949701D01*
X150382521Y-84937559D01*
X150407543Y-84933780D01*
X150413420Y-84933692D01*
X150456207Y-84939658D01*
X150502670Y-84954421D01*
X150512024Y-84958616D01*
X150563609Y-84983539D01*
X150595430Y-84929240D01*
X150623301Y-84889336D01*
X150660972Y-84844730D01*
X150686891Y-84818101D01*
X150721845Y-84786669D01*
X150746857Y-84770867D01*
X150769514Y-84767051D01*
X150788000Y-84769554D01*
X150826676Y-84784696D01*
X150862828Y-84809820D01*
X150863795Y-84810734D01*
X150884148Y-84833622D01*
X150893120Y-84857425D01*
X150893629Y-84892506D01*
X150892167Y-84911451D01*
X150885553Y-84959189D01*
X150873964Y-85018874D01*
X150860063Y-85076974D01*
X150846547Y-85127502D01*
X150834973Y-85170827D01*
X150827582Y-85198556D01*
X150827009Y-85200718D01*
X150826992Y-85212605D01*
X150837387Y-85204954D01*
X150855805Y-85180915D01*
X150879857Y-85143639D01*
X150907157Y-85096276D01*
X150909672Y-85091662D01*
X150937702Y-85047790D01*
X150976882Y-84996153D01*
X151019439Y-84946892D01*
X151025795Y-84940166D01*
X151070226Y-84896332D01*
X151106728Y-84867739D01*
X151143276Y-84848994D01*
X151177595Y-84837555D01*
X151232608Y-84823194D01*
X151271028Y-84818848D01*
X151300854Y-84825936D01*
X151330086Y-84845873D01*
X151355325Y-84869048D01*
X151387757Y-84903159D01*
X151404281Y-84930994D01*
X151409805Y-84961942D01*
X151410052Y-84973711D01*
X151411349Y-85006241D01*
X151417410Y-85018014D01*
X151431493Y-85014278D01*
X151434304Y-85012809D01*
X151452174Y-84995949D01*
X151477975Y-84962776D01*
X151506851Y-84919674D01*
X151514177Y-84907774D01*
X151569359Y-84830530D01*
X151639437Y-84753410D01*
X151717171Y-84683301D01*
X151795319Y-84627089D01*
X151829689Y-84607654D01*
X151880559Y-84585936D01*
X151921590Y-84576353D01*
X151948506Y-84579382D01*
X151948506Y-84579382D01*
G37*
X151948506Y-84579382D02*
X151957129Y-84593431D01*
X151965481Y-84607806D01*
X151986557Y-84632808D01*
X151998180Y-84645094D01*
X152039232Y-84687083D01*
X152023352Y-84761541D01*
X152011959Y-84805542D01*
X151993891Y-84864851D01*
X151971971Y-84930515D01*
X151956250Y-84974377D01*
X151935828Y-85030257D01*
X151919272Y-85076913D01*
X151908414Y-85109091D01*
X151905026Y-85121286D01*
X151899771Y-85136181D01*
X151885758Y-85168532D01*
X151865611Y-85212363D01*
X151857080Y-85230396D01*
X151830251Y-85289300D01*
X151804099Y-85351079D01*
X151783846Y-85403348D01*
X151782182Y-85408042D01*
X151755231Y-85485110D01*
X151665647Y-85515208D01*
X151576064Y-85545306D01*
X151582276Y-85490192D01*
X151584058Y-85449080D01*
X151580785Y-85415234D01*
X151579060Y-85409078D01*
X151577363Y-85376905D01*
X151583816Y-85357026D01*
X151595430Y-85333860D01*
X151598988Y-85324462D01*
X151606256Y-85297107D01*
X151620975Y-85253755D01*
X151640136Y-85202269D01*
X151660728Y-85150509D01*
X151679741Y-85106338D01*
X151692209Y-85080995D01*
X151708658Y-85044359D01*
X151711095Y-85022680D01*
X151701314Y-85018888D01*
X151681107Y-85035916D01*
X151671749Y-85047543D01*
X151649334Y-85076921D01*
X151632130Y-85098619D01*
X151631629Y-85099219D01*
X151619731Y-85120593D01*
X151618462Y-85127442D01*
X151610163Y-85143478D01*
X151608693Y-85144273D01*
X151591269Y-85160753D01*
X151568644Y-85192920D01*
X151545723Y-85232451D01*
X151527413Y-85271022D01*
X151519309Y-85295942D01*
X151504307Y-85334836D01*
X151479205Y-85372422D01*
X151476715Y-85375194D01*
X151438047Y-85421729D01*
X151396686Y-85478952D01*
X151360545Y-85535520D01*
X151344502Y-85564740D01*
X151322390Y-85599634D01*
X151292329Y-85636555D01*
X151286308Y-85642894D01*
X151257060Y-85677376D01*
X151234341Y-85712151D01*
X151231228Y-85718487D01*
X151212552Y-85747073D01*
X151194637Y-85752164D01*
X151180858Y-85733175D01*
X151179172Y-85727520D01*
X151166153Y-85708023D01*
X151152871Y-85708136D01*
X151127407Y-85706492D01*
X151095017Y-85691245D01*
X151065112Y-85668637D01*
X151047102Y-85644913D01*
X151045334Y-85636783D01*
X151039102Y-85612292D01*
X151032308Y-85604513D01*
X151020062Y-85587082D01*
X151031318Y-85562769D01*
X151041626Y-85551466D01*
X151058767Y-85525795D01*
X151078150Y-85484873D01*
X151095799Y-85438751D01*
X151107743Y-85397476D01*
X151110581Y-85377064D01*
X151116139Y-85354716D01*
X151130292Y-85318760D01*
X151142738Y-85291897D01*
X151166290Y-85234974D01*
X151174752Y-85191952D01*
X151167659Y-85165742D01*
X151163375Y-85162142D01*
X151148545Y-85166373D01*
X151129036Y-85186869D01*
X151127554Y-85188979D01*
X151099785Y-85224831D01*
X151074641Y-85252613D01*
X151054215Y-85275706D01*
X151045345Y-85291103D01*
X151045334Y-85291380D01*
X151038452Y-85307587D01*
X151021742Y-85334018D01*
X151020314Y-85336039D01*
X151000592Y-85367039D01*
X150975978Y-85410345D01*
X150949625Y-85459779D01*
X150924681Y-85509161D01*
X150904300Y-85552313D01*
X150891632Y-85583055D01*
X150889026Y-85593479D01*
X150879102Y-85612478D01*
X150858617Y-85630350D01*
X150828869Y-85657258D01*
X150811802Y-85680930D01*
X150791214Y-85705865D01*
X150757522Y-85734455D01*
X150738450Y-85747580D01*
X150700679Y-85775095D01*
X150669930Y-85803758D01*
X150660651Y-85815403D01*
X150642337Y-85836450D01*
X150626357Y-85835713D01*
X150622474Y-85832854D01*
X150611397Y-85809849D01*
X150612295Y-85791162D01*
X150613414Y-85771295D01*
X150601181Y-85770474D01*
X150586670Y-85784480D01*
X150586180Y-85791756D01*
X150581790Y-85805049D01*
X150562082Y-85802580D01*
X150531608Y-85785435D01*
X150518542Y-85775612D01*
X150497496Y-85757531D01*
X150487383Y-85741083D01*
X150486289Y-85717787D01*
X150492301Y-85679160D01*
X150494304Y-85668215D01*
X150502119Y-85617352D01*
X150502131Y-85590460D01*
X150494003Y-85586551D01*
X150477397Y-85604639D01*
X150474142Y-85609206D01*
X150448957Y-85641965D01*
X150423359Y-85671670D01*
X150403346Y-85695184D01*
X150394122Y-85709680D01*
X150394052Y-85710230D01*
X150386291Y-85722951D01*
X150366023Y-85749457D01*
X150339910Y-85781278D01*
X150299580Y-85821528D01*
X150263179Y-85843685D01*
X150234178Y-85846226D01*
X150219285Y-85834208D01*
X150202648Y-85827657D01*
X150181538Y-85828813D01*
X150153856Y-85826134D01*
X150125577Y-85804199D01*
X150116099Y-85793503D01*
X150094203Y-85764072D01*
X150082120Y-85741211D01*
X150081300Y-85737026D01*
X150080724Y-85717786D01*
X150079303Y-85679423D01*
X150077297Y-85628840D01*
X150076346Y-85605709D01*
X150075079Y-85541930D01*
X150078144Y-85495964D01*
X150086461Y-85459796D01*
X150095735Y-85436376D01*
X150111206Y-85392792D01*
X150119693Y-85350435D01*
X150120227Y-85341092D01*
X150125910Y-85302654D01*
X150139773Y-85257363D01*
X150145548Y-85243400D01*
X150145828Y-85242769D01*
X150405084Y-85242769D01*
X150412947Y-85246308D01*
X150426091Y-85239795D01*
X150810872Y-85239795D01*
X150817385Y-85246308D01*
X150823898Y-85239795D01*
X150817385Y-85233282D01*
X150810872Y-85239795D01*
X150426091Y-85239795D01*
X150433830Y-85235961D01*
X150446154Y-85220256D01*
X150454198Y-85200142D01*
X150452667Y-85194205D01*
X150452038Y-85184662D01*
X150459180Y-85168154D01*
X150469345Y-85146145D01*
X150466605Y-85143661D01*
X150453065Y-85158934D01*
X150430830Y-85190196D01*
X150428162Y-85194205D01*
X150408736Y-85226650D01*
X150405084Y-85242769D01*
X150145828Y-85242769D01*
X150166149Y-85197120D01*
X150186241Y-85151327D01*
X150190578Y-85141312D01*
X150209150Y-85110033D01*
X150240534Y-85068536D01*
X150278721Y-85024615D01*
X150288488Y-85014312D01*
X150328898Y-84974015D01*
X150358274Y-84949701D01*
X150382521Y-84937559D01*
X150407543Y-84933780D01*
X150413420Y-84933692D01*
X150456207Y-84939658D01*
X150502670Y-84954421D01*
X150512024Y-84958616D01*
X150563609Y-84983539D01*
X150595430Y-84929240D01*
X150623301Y-84889336D01*
X150660972Y-84844730D01*
X150686891Y-84818101D01*
X150721845Y-84786669D01*
X150746857Y-84770867D01*
X150769514Y-84767051D01*
X150788000Y-84769554D01*
X150826676Y-84784696D01*
X150862828Y-84809820D01*
X150863795Y-84810734D01*
X150884148Y-84833622D01*
X150893120Y-84857425D01*
X150893629Y-84892506D01*
X150892167Y-84911451D01*
X150885553Y-84959189D01*
X150873964Y-85018874D01*
X150860063Y-85076974D01*
X150846547Y-85127502D01*
X150834973Y-85170827D01*
X150827582Y-85198556D01*
X150827009Y-85200718D01*
X150826992Y-85212605D01*
X150837387Y-85204954D01*
X150855805Y-85180915D01*
X150879857Y-85143639D01*
X150907157Y-85096276D01*
X150909672Y-85091662D01*
X150937702Y-85047790D01*
X150976882Y-84996153D01*
X151019439Y-84946892D01*
X151025795Y-84940166D01*
X151070226Y-84896332D01*
X151106728Y-84867739D01*
X151143276Y-84848994D01*
X151177595Y-84837555D01*
X151232608Y-84823194D01*
X151271028Y-84818848D01*
X151300854Y-84825936D01*
X151330086Y-84845873D01*
X151355325Y-84869048D01*
X151387757Y-84903159D01*
X151404281Y-84930994D01*
X151409805Y-84961942D01*
X151410052Y-84973711D01*
X151411349Y-85006241D01*
X151417410Y-85018014D01*
X151431493Y-85014278D01*
X151434304Y-85012809D01*
X151452174Y-84995949D01*
X151477975Y-84962776D01*
X151506851Y-84919674D01*
X151514177Y-84907774D01*
X151569359Y-84830530D01*
X151639437Y-84753410D01*
X151717171Y-84683301D01*
X151795319Y-84627089D01*
X151829689Y-84607654D01*
X151880559Y-84585936D01*
X151921590Y-84576353D01*
X151948506Y-84579382D01*
G36*
X153812948Y-83110583D02*
X153831228Y-83138037D01*
X153832821Y-83149918D01*
X153840965Y-83170629D01*
X153851901Y-83175231D01*
X153870322Y-83184221D01*
X153886474Y-83204059D01*
X153892928Y-83224040D01*
X153890334Y-83230606D01*
X153886016Y-83245800D01*
X153880344Y-83280446D01*
X153874325Y-83328051D01*
X153872353Y-83346293D01*
X153859736Y-83427706D01*
X153838105Y-83498552D01*
X153817047Y-83546462D01*
X153778977Y-83619970D01*
X153738534Y-83689002D01*
X153700164Y-83746296D01*
X153676513Y-83775986D01*
X153640770Y-83816621D01*
X153604835Y-83859182D01*
X153562471Y-83911130D01*
X153536299Y-83943744D01*
X153497605Y-83990568D01*
X153458209Y-84035703D01*
X153425921Y-84070234D01*
X153422761Y-84073373D01*
X153395983Y-84102847D01*
X153379473Y-84127197D01*
X153376924Y-84135245D01*
X153368956Y-84150819D01*
X153363898Y-84152154D01*
X153353279Y-84163052D01*
X153350872Y-84177940D01*
X153363866Y-84203576D01*
X153402762Y-84230183D01*
X153405415Y-84231552D01*
X153442369Y-84252242D01*
X153471141Y-84271545D01*
X153477986Y-84277407D01*
X153497400Y-84292478D01*
X153505604Y-84295436D01*
X153518805Y-84307068D01*
X153533695Y-84337082D01*
X153547728Y-84378157D01*
X153558357Y-84422969D01*
X153562898Y-84460191D01*
X153566965Y-84496246D01*
X153574127Y-84518151D01*
X153578821Y-84521399D01*
X153592407Y-84509607D01*
X153611098Y-84482332D01*
X153618419Y-84469296D01*
X153655511Y-84400025D01*
X153683784Y-84349200D01*
X153706140Y-84312001D01*
X153725482Y-84283609D01*
X153744713Y-84259204D01*
X153745583Y-84258169D01*
X153775092Y-84217687D01*
X153803472Y-84170406D01*
X153810237Y-84157220D01*
X153829149Y-84123953D01*
X153846160Y-84103339D01*
X153852633Y-84100051D01*
X153865659Y-84089129D01*
X153883675Y-84061013D01*
X153896611Y-84035095D01*
X153919370Y-83993042D01*
X153944829Y-83957890D01*
X153957548Y-83945297D01*
X153979859Y-83924159D01*
X153989129Y-83908249D01*
X153999390Y-83893817D01*
X154021099Y-83878933D01*
X154042240Y-83860936D01*
X154071577Y-83827997D01*
X154103556Y-83787305D01*
X154132626Y-83746046D01*
X154153235Y-83711409D01*
X154157187Y-83702769D01*
X154169372Y-83684582D01*
X154189751Y-83661139D01*
X154232143Y-83616036D01*
X154261208Y-83582914D01*
X154282204Y-83555494D01*
X154296731Y-83533436D01*
X154343774Y-83467002D01*
X154389597Y-83419386D01*
X154432064Y-83392091D01*
X154469041Y-83386622D01*
X154490785Y-83396807D01*
X154507214Y-83418398D01*
X154510154Y-83429739D01*
X154519771Y-83448800D01*
X154542512Y-83470478D01*
X154574870Y-83494359D01*
X154536912Y-83573673D01*
X154512411Y-83618048D01*
X154486291Y-83654852D01*
X154466592Y-83674192D01*
X154444456Y-83694710D01*
X154414070Y-83730614D01*
X154380988Y-83775193D01*
X154371244Y-83789440D01*
X154328158Y-83852549D01*
X154293877Y-83899340D01*
X154263680Y-83935764D01*
X154232847Y-83967770D01*
X154220334Y-83979683D01*
X154196801Y-84006183D01*
X154184877Y-84028408D01*
X154184513Y-84031332D01*
X154178698Y-84043837D01*
X154173730Y-84042822D01*
X154161081Y-84048577D01*
X154138680Y-84068726D01*
X154112355Y-84096784D01*
X154087934Y-84126265D01*
X154071244Y-84150684D01*
X154067283Y-84161271D01*
X154057498Y-84175728D01*
X154041470Y-84188058D01*
X154021017Y-84208606D01*
X153996925Y-84243536D01*
X153983459Y-84267720D01*
X153962233Y-84304536D01*
X153942355Y-84330738D01*
X153932788Y-84338350D01*
X153916349Y-84353520D01*
X153895720Y-84383906D01*
X153885952Y-84401848D01*
X153866678Y-84439542D01*
X153850759Y-84469588D01*
X153846163Y-84477795D01*
X153835965Y-84497898D01*
X153818275Y-84535285D01*
X153796156Y-84583425D01*
X153785038Y-84608051D01*
X153759551Y-84661280D01*
X153733989Y-84708741D01*
X153712545Y-84742849D01*
X153705927Y-84751200D01*
X153685311Y-84774935D01*
X153676664Y-84790631D01*
X153682897Y-84799804D01*
X153706923Y-84803965D01*
X153751654Y-84804628D01*
X153806770Y-84803603D01*
X153867802Y-84798731D01*
X153914735Y-84784298D01*
X153958659Y-84755784D01*
X153988914Y-84729358D01*
X154019399Y-84705774D01*
X154047314Y-84691210D01*
X154047744Y-84691077D01*
X154078230Y-84676342D01*
X154099847Y-84660942D01*
X154127930Y-84642678D01*
X154172156Y-84619826D01*
X154224024Y-84596242D01*
X154275030Y-84575780D01*
X154316675Y-84562297D01*
X154318193Y-84561916D01*
X154384540Y-84557537D01*
X154451388Y-84573513D01*
X154508328Y-84607178D01*
X154513669Y-84611968D01*
X154542534Y-84642386D01*
X154562860Y-84669860D01*
X154566842Y-84677903D01*
X154577259Y-84694248D01*
X154593561Y-84687233D01*
X154595068Y-84686000D01*
X154620593Y-84674903D01*
X154657747Y-84668809D01*
X154663614Y-84668549D01*
X154701552Y-84672404D01*
X154732687Y-84690088D01*
X154752854Y-84709298D01*
X154780869Y-84733498D01*
X154811697Y-84747116D01*
X154850210Y-84750309D01*
X154901278Y-84743229D01*
X154969773Y-84726034D01*
X155000415Y-84717165D01*
X155090370Y-84691719D01*
X155171306Y-84671103D01*
X155238674Y-84656366D01*
X155287924Y-84648556D01*
X155302548Y-84647586D01*
X155329363Y-84656676D01*
X155362336Y-84679835D01*
X155393774Y-84709944D01*
X155415980Y-84739880D01*
X155421949Y-84758083D01*
X155429468Y-84775258D01*
X155435744Y-84777385D01*
X155443807Y-84785229D01*
X155442067Y-84789472D01*
X155445933Y-84802616D01*
X155457621Y-84808868D01*
X155473937Y-84824525D01*
X155491474Y-84856030D01*
X155505922Y-84893775D01*
X155512975Y-84928151D01*
X155513129Y-84932674D01*
X155502621Y-84945337D01*
X155475599Y-84964659D01*
X155451257Y-84979011D01*
X155398169Y-85017107D01*
X155352583Y-85066175D01*
X155321533Y-85118011D01*
X155314549Y-85138504D01*
X155311215Y-85157744D01*
X155319241Y-85159821D01*
X155341848Y-85148187D01*
X155398643Y-85111602D01*
X155449883Y-85070048D01*
X155477844Y-85041154D01*
X155499422Y-85019940D01*
X155515138Y-85011846D01*
X155531820Y-85004147D01*
X155560767Y-84984339D01*
X155583919Y-84966256D01*
X155616272Y-84941074D01*
X155640651Y-84924517D01*
X155649229Y-84920667D01*
X155665603Y-84913802D01*
X155692012Y-84897179D01*
X155693477Y-84896146D01*
X155734118Y-84876139D01*
X155789370Y-84859740D01*
X155848253Y-84849243D01*
X155899793Y-84846941D01*
X155917966Y-84849254D01*
X155954930Y-84868016D01*
X155970076Y-84892565D01*
X155984296Y-84928796D01*
X155995077Y-84953231D01*
X156009007Y-84985350D01*
X156020940Y-85016161D01*
X156034912Y-85037994D01*
X156051493Y-85046863D01*
X156062852Y-85041031D01*
X156063139Y-85025532D01*
X156066966Y-85015770D01*
X156071858Y-85017510D01*
X156089670Y-85015657D01*
X156103815Y-85005453D01*
X156122942Y-84989560D01*
X156131299Y-84985795D01*
X156145230Y-84978087D01*
X156175680Y-84956802D01*
X156218874Y-84924700D01*
X156271039Y-84884540D01*
X156288154Y-84871112D01*
X156334772Y-84844262D01*
X156398624Y-84820410D01*
X156471208Y-84801475D01*
X156544022Y-84789376D01*
X156608564Y-84786033D01*
X156646026Y-84790331D01*
X156673022Y-84806406D01*
X156704763Y-84838988D01*
X156736275Y-84880879D01*
X156762584Y-84924881D01*
X156778718Y-84963795D01*
X156781073Y-84985795D01*
X156771540Y-85025343D01*
X156756640Y-85070446D01*
X156739784Y-85112193D01*
X156724383Y-85141669D01*
X156718768Y-85148615D01*
X156700418Y-85167901D01*
X156674007Y-85199009D01*
X156644242Y-85235940D01*
X156615832Y-85272696D01*
X156593483Y-85303278D01*
X156581903Y-85321687D01*
X156581231Y-85323875D01*
X156574096Y-85338045D01*
X156555365Y-85367350D01*
X156529045Y-85406069D01*
X156499145Y-85448478D01*
X156469674Y-85488853D01*
X156444641Y-85521471D01*
X156433326Y-85535043D01*
X156421114Y-85554989D01*
X156421667Y-85564350D01*
X156419300Y-85571368D01*
X156414069Y-85571949D01*
X156401306Y-85582708D01*
X156398872Y-85595395D01*
X156388053Y-85628172D01*
X156355995Y-85646324D01*
X156321008Y-85650103D01*
X156277309Y-85642862D01*
X156250679Y-85619368D01*
X156239122Y-85576964D01*
X156238635Y-85540393D01*
X156242132Y-85498365D01*
X156247714Y-85465176D01*
X156250678Y-85455726D01*
X156259317Y-85432814D01*
X156260978Y-85425833D01*
X156269491Y-85409632D01*
X156282476Y-85392692D01*
X156302536Y-85364162D01*
X156311375Y-85346680D01*
X156324222Y-85327840D01*
X156331813Y-85324462D01*
X156342652Y-85314287D01*
X156362036Y-85288301D01*
X156385585Y-85253312D01*
X156408919Y-85216128D01*
X156427657Y-85183555D01*
X156437420Y-85162403D01*
X156437949Y-85159506D01*
X156445296Y-85143490D01*
X156462140Y-85122151D01*
X156480684Y-85104039D01*
X156493136Y-85097703D01*
X156493875Y-85098165D01*
X156503367Y-85093001D01*
X156517643Y-85072418D01*
X156531809Y-85045183D01*
X156540969Y-85020063D01*
X156542154Y-85011690D01*
X156531509Y-85003051D01*
X156504764Y-85003312D01*
X156469708Y-85010979D01*
X156434129Y-85024555D01*
X156413679Y-85036352D01*
X156380562Y-85056411D01*
X156352845Y-85068736D01*
X156330532Y-85081832D01*
X156297620Y-85108233D01*
X156261665Y-85141802D01*
X156228217Y-85174005D01*
X156201478Y-85197311D01*
X156186979Y-85206913D01*
X156186656Y-85206947D01*
X156168352Y-85214532D01*
X156160605Y-85220060D01*
X156140766Y-85236100D01*
X156110947Y-85260075D01*
X156102283Y-85267023D01*
X156076444Y-85292967D01*
X156063526Y-85316406D01*
X156063206Y-85322057D01*
X156054542Y-85342550D01*
X156027641Y-85360438D01*
X155986478Y-85379503D01*
X155963842Y-85392322D01*
X155954146Y-85402501D01*
X155952172Y-85409128D01*
X155940977Y-85426468D01*
X155914095Y-85454152D01*
X155877144Y-85487527D01*
X155835741Y-85521942D01*
X155795501Y-85552744D01*
X155762041Y-85575281D01*
X155740979Y-85584901D01*
X155739876Y-85584974D01*
X155718638Y-85574490D01*
X155713573Y-85566346D01*
X155696951Y-85548875D01*
X155669674Y-85534906D01*
X155637525Y-85513229D01*
X155624126Y-85482043D01*
X155614424Y-85451671D01*
X155603381Y-85434607D01*
X155603306Y-85434560D01*
X155591008Y-85413120D01*
X155592147Y-85377955D01*
X155604546Y-85336193D01*
X155626028Y-85294962D01*
X155654416Y-85261392D01*
X155656821Y-85259333D01*
X155667910Y-85245747D01*
X155688405Y-85217437D01*
X155706834Y-85190815D01*
X155730490Y-85149387D01*
X155735276Y-85124980D01*
X155723031Y-85118812D01*
X155695596Y-85132101D01*
X155660862Y-85160385D01*
X155599950Y-85214440D01*
X155545567Y-85256856D01*
X155487077Y-85295594D01*
X155452422Y-85316390D01*
X155411597Y-85342465D01*
X155380269Y-85366465D01*
X155365056Y-85383306D01*
X155364924Y-85383629D01*
X155349956Y-85398517D01*
X155317348Y-85419538D01*
X155273464Y-85442703D01*
X155262086Y-85448081D01*
X155213593Y-85472418D01*
X155172050Y-85496720D01*
X155145297Y-85516334D01*
X155142735Y-85518921D01*
X155123163Y-85538097D01*
X155105917Y-85543633D01*
X155083110Y-85534990D01*
X155048040Y-85512424D01*
X155008081Y-85480473D01*
X154983592Y-85445808D01*
X154971421Y-85401174D01*
X154968416Y-85339315D01*
X154968538Y-85329428D01*
X154971095Y-85276895D01*
X154978312Y-85240686D01*
X154992777Y-85211158D01*
X155004811Y-85194205D01*
X155031482Y-85154350D01*
X155053297Y-85113716D01*
X155056487Y-85106282D01*
X155070707Y-85078060D01*
X155083429Y-85064231D01*
X155084863Y-85063949D01*
X155095167Y-85053445D01*
X155096308Y-85045390D01*
X155105181Y-85026871D01*
X155128111Y-84998313D01*
X155151320Y-84974487D01*
X155179407Y-84945261D01*
X155196042Y-84922946D01*
X155198087Y-84913899D01*
X155182869Y-84914438D01*
X155150761Y-84923706D01*
X155108619Y-84939711D01*
X155107255Y-84940282D01*
X155037473Y-84963691D01*
X154963814Y-84978594D01*
X154893537Y-84984302D01*
X154833897Y-84980126D01*
X154799400Y-84969546D01*
X154769523Y-84958437D01*
X154749364Y-84957619D01*
X154748410Y-84958151D01*
X154736358Y-84972635D01*
X154715465Y-85003438D01*
X154689929Y-85044325D01*
X154685969Y-85050923D01*
X154658086Y-85095243D01*
X154632001Y-85132651D01*
X154613006Y-85155596D01*
X154611867Y-85156656D01*
X154593326Y-85181134D01*
X154588308Y-85198248D01*
X154580288Y-85217119D01*
X154558935Y-85249431D01*
X154528309Y-85289230D01*
X154516812Y-85303049D01*
X154465639Y-85357757D01*
X154420267Y-85393162D01*
X154387393Y-85409445D01*
X154351659Y-85426061D01*
X154327525Y-85442796D01*
X154322686Y-85449243D01*
X154307102Y-85465244D01*
X154276844Y-85482970D01*
X154267535Y-85487130D01*
X154231030Y-85507150D01*
X154203305Y-85530478D01*
X154200114Y-85534541D01*
X154167773Y-85563735D01*
X154119026Y-85588851D01*
X154063517Y-85605802D01*
X154020309Y-85610740D01*
X153980175Y-85606237D01*
X153941917Y-85589445D01*
X153905648Y-85564315D01*
X153835173Y-85506991D01*
X153785431Y-85456357D01*
X153753919Y-85407321D01*
X153738133Y-85354794D01*
X153737405Y-85337415D01*
X153937819Y-85337415D01*
X153943320Y-85362789D01*
X153962023Y-85386454D01*
X153989395Y-85400794D01*
X154000191Y-85402201D01*
X154019467Y-85396021D01*
X154053562Y-85379378D01*
X154095313Y-85355789D01*
X154097883Y-85354243D01*
X154146671Y-85321046D01*
X154201878Y-85277415D01*
X154259941Y-85226891D01*
X154317296Y-85173014D01*
X154370379Y-85119324D01*
X154415625Y-85069360D01*
X154449472Y-85026664D01*
X154468355Y-84994775D01*
X154471077Y-84983556D01*
X154478125Y-84960015D01*
X154491913Y-84935793D01*
X154505262Y-84911423D01*
X154501317Y-84893203D01*
X154494432Y-84884049D01*
X154475797Y-84855765D01*
X154460030Y-84824432D01*
X154449948Y-84803823D01*
X154437438Y-84793383D01*
X154415173Y-84790844D01*
X154375829Y-84793940D01*
X154365119Y-84795051D01*
X154316408Y-84803096D01*
X154266898Y-84816051D01*
X154222702Y-84831657D01*
X154189934Y-84847652D01*
X154174709Y-84861778D01*
X154174531Y-84865504D01*
X154168206Y-84880629D01*
X154148210Y-84905973D01*
X154135667Y-84919247D01*
X154110155Y-84948498D01*
X154095077Y-84972814D01*
X154093334Y-84979637D01*
X154083449Y-85001909D01*
X154076300Y-85007942D01*
X154059653Y-85027599D01*
X154038584Y-85065525D01*
X154015860Y-85114951D01*
X153994247Y-85169106D01*
X153976510Y-85221221D01*
X153965417Y-85264523D01*
X153963077Y-85285071D01*
X153956991Y-85309817D01*
X153950052Y-85317949D01*
X153937819Y-85337415D01*
X153737405Y-85337415D01*
X153735570Y-85293685D01*
X153741894Y-85231361D01*
X153750661Y-85175742D01*
X153760465Y-85122963D01*
X153768944Y-85085429D01*
X153776349Y-85052662D01*
X153778260Y-85032536D01*
X153777529Y-85030366D01*
X153762368Y-85025706D01*
X153729642Y-85019718D01*
X153687598Y-85013498D01*
X153644481Y-85008144D01*
X153608538Y-85004752D01*
X153588014Y-85004419D01*
X153586285Y-85004925D01*
X153576091Y-85019527D01*
X153557985Y-85053128D01*
X153534449Y-85100842D01*
X153507970Y-85157780D01*
X153503297Y-85168154D01*
X153488143Y-85204935D01*
X153469316Y-85254665D01*
X153453743Y-85298410D01*
X153436972Y-85344047D01*
X153421389Y-85381163D01*
X153410740Y-85401124D01*
X153397996Y-85424735D01*
X153395914Y-85433688D01*
X153390612Y-85458440D01*
X153387436Y-85467744D01*
X153379707Y-85491819D01*
X153369127Y-85529416D01*
X153364784Y-85545897D01*
X153352892Y-85587583D01*
X153341097Y-85622192D01*
X153337601Y-85630564D01*
X153328760Y-85655182D01*
X153316165Y-85697035D01*
X153302219Y-85748042D01*
X153299072Y-85760223D01*
X153285389Y-85809806D01*
X153272492Y-85849704D01*
X153262661Y-85873042D01*
X153260774Y-85875668D01*
X153241977Y-85881544D01*
X153226094Y-85867719D01*
X153220616Y-85844718D01*
X153216456Y-85823287D01*
X153202164Y-85823434D01*
X153179172Y-85841117D01*
X153161290Y-85854247D01*
X153145854Y-85851788D01*
X153122787Y-85832333D01*
X153099266Y-85802878D01*
X153092334Y-85770120D01*
X153101723Y-85727556D01*
X153116946Y-85690456D01*
X153132260Y-85646501D01*
X153135626Y-85612024D01*
X153134381Y-85606086D01*
X153124640Y-85547099D01*
X153126820Y-85478913D01*
X153139538Y-85411914D01*
X153161408Y-85356489D01*
X153169310Y-85344000D01*
X153176369Y-85326227D01*
X153187456Y-85289527D01*
X153200689Y-85240345D01*
X153207362Y-85213744D01*
X153223853Y-85149737D01*
X153242029Y-85084341D01*
X153258565Y-85029411D01*
X153262168Y-85018359D01*
X153283418Y-84953361D01*
X153296365Y-84907973D01*
X153301380Y-84877240D01*
X153298832Y-84856207D01*
X153289090Y-84839918D01*
X153276439Y-84827041D01*
X153246480Y-84792478D01*
X153224351Y-84757846D01*
X153202101Y-84723919D01*
X153170713Y-84686810D01*
X153160460Y-84676464D01*
X153134088Y-84647216D01*
X153118354Y-84622197D01*
X153116411Y-84614593D01*
X153110991Y-84596405D01*
X153098021Y-84598445D01*
X153082434Y-84618075D01*
X153073821Y-84637359D01*
X153064273Y-84668416D01*
X153061138Y-84687983D01*
X153061318Y-84688996D01*
X153056683Y-84704419D01*
X153041602Y-84737848D01*
X153018523Y-84784650D01*
X152989894Y-84840197D01*
X152958163Y-84899855D01*
X152925780Y-84958995D01*
X152895193Y-85012986D01*
X152868850Y-85057196D01*
X152856184Y-85076974D01*
X152835898Y-85112444D01*
X152816938Y-85153226D01*
X152816397Y-85154569D01*
X152798784Y-85190532D01*
X152779900Y-85218011D01*
X152778202Y-85219799D01*
X152765394Y-85238631D01*
X152743355Y-85277610D01*
X152713852Y-85333263D01*
X152678653Y-85402120D01*
X152639525Y-85480712D01*
X152598235Y-85565568D01*
X152556549Y-85653217D01*
X152545809Y-85676154D01*
X152511150Y-85757003D01*
X152479738Y-85842536D01*
X152453582Y-85926177D01*
X152434696Y-86001348D01*
X152425091Y-86061475D01*
X152424382Y-86073161D01*
X152422311Y-86113400D01*
X152415506Y-86135330D01*
X152398105Y-86143025D01*
X152364246Y-86140565D01*
X152334052Y-86135982D01*
X152299754Y-86121786D01*
X152276318Y-86090153D01*
X152262886Y-86038846D01*
X152258597Y-85965629D01*
X152258925Y-85940599D01*
X152271540Y-85824761D01*
X152301855Y-85704212D01*
X152346844Y-85590026D01*
X152363672Y-85556959D01*
X152449377Y-85397528D01*
X152534471Y-85236448D01*
X152556554Y-85194226D01*
X152587595Y-85136806D01*
X152617470Y-85085106D01*
X152642529Y-85045243D01*
X152657624Y-85024892D01*
X152673787Y-85002074D01*
X152698617Y-84960840D01*
X152729289Y-84906152D01*
X152762978Y-84842974D01*
X152779972Y-84809949D01*
X152819424Y-84730235D01*
X152847087Y-84668974D01*
X152864505Y-84622240D01*
X152873226Y-84586107D01*
X152874889Y-84568974D01*
X152878937Y-84536269D01*
X152890265Y-84501994D01*
X152911552Y-84460111D01*
X152945473Y-84404581D01*
X152952832Y-84393128D01*
X152984596Y-84344514D01*
X153011479Y-84304447D01*
X153030188Y-84277767D01*
X153036964Y-84269385D01*
X153047528Y-84256316D01*
X153068758Y-84226768D01*
X153096934Y-84185980D01*
X153112041Y-84163639D01*
X153145419Y-84110456D01*
X153164896Y-84071500D01*
X153169162Y-84049461D01*
X153168466Y-84047872D01*
X153156240Y-84040305D01*
X153136321Y-84052029D01*
X153129057Y-84058532D01*
X153095880Y-84083739D01*
X153057831Y-84105674D01*
X153023876Y-84125404D01*
X152998887Y-84146031D01*
X152997970Y-84147098D01*
X152971021Y-84168293D01*
X152925565Y-84192522D01*
X152867314Y-84217840D01*
X152801983Y-84242301D01*
X152735282Y-84263960D01*
X152672924Y-84280870D01*
X152620621Y-84291087D01*
X152584086Y-84292665D01*
X152576054Y-84290805D01*
X152561146Y-84272646D01*
X152556308Y-84243742D01*
X152550801Y-84212829D01*
X152536350Y-84204256D01*
X152516023Y-84192680D01*
X152502492Y-84163193D01*
X152498759Y-84123660D01*
X152500206Y-84109646D01*
X152521241Y-84039697D01*
X152540370Y-84008024D01*
X153197758Y-84008024D01*
X153199540Y-84008872D01*
X153211427Y-83999702D01*
X153214103Y-83995846D01*
X153217422Y-83983669D01*
X153215640Y-83982820D01*
X153203753Y-83991990D01*
X153201077Y-83995846D01*
X153197758Y-84008024D01*
X152540370Y-84008024D01*
X152563417Y-83969867D01*
X152568316Y-83964409D01*
X152842872Y-83964409D01*
X152846567Y-83969132D01*
X152860631Y-83964514D01*
X152889534Y-83948648D01*
X152913982Y-83934069D01*
X152952666Y-83908126D01*
X152971880Y-83889361D01*
X152970024Y-83879595D01*
X152962669Y-83878615D01*
X152947679Y-83885566D01*
X152920757Y-83902768D01*
X152889548Y-83924749D01*
X152861693Y-83946034D01*
X152844836Y-83961150D01*
X152842872Y-83964409D01*
X152568316Y-83964409D01*
X152628572Y-83897289D01*
X152648410Y-83878615D01*
X152699823Y-83831215D01*
X153016708Y-83831215D01*
X153021456Y-83834177D01*
X153044529Y-83822575D01*
X153047145Y-83821153D01*
X153072309Y-83803754D01*
X153110091Y-83773224D01*
X153154429Y-83734589D01*
X153181539Y-83709719D01*
X153236402Y-83660411D01*
X153278378Y-83629459D01*
X153312013Y-83615860D01*
X153341855Y-83618613D01*
X153372452Y-83636716D01*
X153400449Y-83661502D01*
X153443514Y-83702769D01*
X153500242Y-83637641D01*
X153551813Y-83571264D01*
X153592476Y-83504563D01*
X153620464Y-83441797D01*
X153634012Y-83387225D01*
X153631356Y-83345108D01*
X153626131Y-83333876D01*
X153608311Y-83328439D01*
X153574336Y-83336825D01*
X153528368Y-83356556D01*
X153474570Y-83385150D01*
X153417105Y-83420128D01*
X153360136Y-83459009D01*
X153307826Y-83499312D01*
X153264337Y-83538558D01*
X153242822Y-83562264D01*
X153222707Y-83585335D01*
X153190637Y-83620250D01*
X153152866Y-83660225D01*
X153145129Y-83668279D01*
X153101281Y-83714175D01*
X153071529Y-83746674D01*
X153051638Y-83770884D01*
X153037371Y-83791918D01*
X153026112Y-83811841D01*
X153016708Y-83831215D01*
X152699823Y-83831215D01*
X152719515Y-83813061D01*
X152776017Y-83759654D01*
X152822915Y-83713386D01*
X152865210Y-83669249D01*
X152907903Y-83622235D01*
X152934052Y-83592553D01*
X153003519Y-83515836D01*
X153076128Y-83440492D01*
X153147553Y-83370682D01*
X153213465Y-83310565D01*
X153269537Y-83264300D01*
X153293644Y-83246913D01*
X153372853Y-83199506D01*
X153455760Y-83159688D01*
X153535825Y-83130026D01*
X153606511Y-83113089D01*
X153641955Y-83110103D01*
X153688814Y-83107917D01*
X153729545Y-83102331D01*
X153745726Y-83098000D01*
X153781426Y-83095437D01*
X153812948Y-83110583D01*
X153812948Y-83110583D01*
G37*
X153812948Y-83110583D02*
X153831228Y-83138037D01*
X153832821Y-83149918D01*
X153840965Y-83170629D01*
X153851901Y-83175231D01*
X153870322Y-83184221D01*
X153886474Y-83204059D01*
X153892928Y-83224040D01*
X153890334Y-83230606D01*
X153886016Y-83245800D01*
X153880344Y-83280446D01*
X153874325Y-83328051D01*
X153872353Y-83346293D01*
X153859736Y-83427706D01*
X153838105Y-83498552D01*
X153817047Y-83546462D01*
X153778977Y-83619970D01*
X153738534Y-83689002D01*
X153700164Y-83746296D01*
X153676513Y-83775986D01*
X153640770Y-83816621D01*
X153604835Y-83859182D01*
X153562471Y-83911130D01*
X153536299Y-83943744D01*
X153497605Y-83990568D01*
X153458209Y-84035703D01*
X153425921Y-84070234D01*
X153422761Y-84073373D01*
X153395983Y-84102847D01*
X153379473Y-84127197D01*
X153376924Y-84135245D01*
X153368956Y-84150819D01*
X153363898Y-84152154D01*
X153353279Y-84163052D01*
X153350872Y-84177940D01*
X153363866Y-84203576D01*
X153402762Y-84230183D01*
X153405415Y-84231552D01*
X153442369Y-84252242D01*
X153471141Y-84271545D01*
X153477986Y-84277407D01*
X153497400Y-84292478D01*
X153505604Y-84295436D01*
X153518805Y-84307068D01*
X153533695Y-84337082D01*
X153547728Y-84378157D01*
X153558357Y-84422969D01*
X153562898Y-84460191D01*
X153566965Y-84496246D01*
X153574127Y-84518151D01*
X153578821Y-84521399D01*
X153592407Y-84509607D01*
X153611098Y-84482332D01*
X153618419Y-84469296D01*
X153655511Y-84400025D01*
X153683784Y-84349200D01*
X153706140Y-84312001D01*
X153725482Y-84283609D01*
X153744713Y-84259204D01*
X153745583Y-84258169D01*
X153775092Y-84217687D01*
X153803472Y-84170406D01*
X153810237Y-84157220D01*
X153829149Y-84123953D01*
X153846160Y-84103339D01*
X153852633Y-84100051D01*
X153865659Y-84089129D01*
X153883675Y-84061013D01*
X153896611Y-84035095D01*
X153919370Y-83993042D01*
X153944829Y-83957890D01*
X153957548Y-83945297D01*
X153979859Y-83924159D01*
X153989129Y-83908249D01*
X153999390Y-83893817D01*
X154021099Y-83878933D01*
X154042240Y-83860936D01*
X154071577Y-83827997D01*
X154103556Y-83787305D01*
X154132626Y-83746046D01*
X154153235Y-83711409D01*
X154157187Y-83702769D01*
X154169372Y-83684582D01*
X154189751Y-83661139D01*
X154232143Y-83616036D01*
X154261208Y-83582914D01*
X154282204Y-83555494D01*
X154296731Y-83533436D01*
X154343774Y-83467002D01*
X154389597Y-83419386D01*
X154432064Y-83392091D01*
X154469041Y-83386622D01*
X154490785Y-83396807D01*
X154507214Y-83418398D01*
X154510154Y-83429739D01*
X154519771Y-83448800D01*
X154542512Y-83470478D01*
X154574870Y-83494359D01*
X154536912Y-83573673D01*
X154512411Y-83618048D01*
X154486291Y-83654852D01*
X154466592Y-83674192D01*
X154444456Y-83694710D01*
X154414070Y-83730614D01*
X154380988Y-83775193D01*
X154371244Y-83789440D01*
X154328158Y-83852549D01*
X154293877Y-83899340D01*
X154263680Y-83935764D01*
X154232847Y-83967770D01*
X154220334Y-83979683D01*
X154196801Y-84006183D01*
X154184877Y-84028408D01*
X154184513Y-84031332D01*
X154178698Y-84043837D01*
X154173730Y-84042822D01*
X154161081Y-84048577D01*
X154138680Y-84068726D01*
X154112355Y-84096784D01*
X154087934Y-84126265D01*
X154071244Y-84150684D01*
X154067283Y-84161271D01*
X154057498Y-84175728D01*
X154041470Y-84188058D01*
X154021017Y-84208606D01*
X153996925Y-84243536D01*
X153983459Y-84267720D01*
X153962233Y-84304536D01*
X153942355Y-84330738D01*
X153932788Y-84338350D01*
X153916349Y-84353520D01*
X153895720Y-84383906D01*
X153885952Y-84401848D01*
X153866678Y-84439542D01*
X153850759Y-84469588D01*
X153846163Y-84477795D01*
X153835965Y-84497898D01*
X153818275Y-84535285D01*
X153796156Y-84583425D01*
X153785038Y-84608051D01*
X153759551Y-84661280D01*
X153733989Y-84708741D01*
X153712545Y-84742849D01*
X153705927Y-84751200D01*
X153685311Y-84774935D01*
X153676664Y-84790631D01*
X153682897Y-84799804D01*
X153706923Y-84803965D01*
X153751654Y-84804628D01*
X153806770Y-84803603D01*
X153867802Y-84798731D01*
X153914735Y-84784298D01*
X153958659Y-84755784D01*
X153988914Y-84729358D01*
X154019399Y-84705774D01*
X154047314Y-84691210D01*
X154047744Y-84691077D01*
X154078230Y-84676342D01*
X154099847Y-84660942D01*
X154127930Y-84642678D01*
X154172156Y-84619826D01*
X154224024Y-84596242D01*
X154275030Y-84575780D01*
X154316675Y-84562297D01*
X154318193Y-84561916D01*
X154384540Y-84557537D01*
X154451388Y-84573513D01*
X154508328Y-84607178D01*
X154513669Y-84611968D01*
X154542534Y-84642386D01*
X154562860Y-84669860D01*
X154566842Y-84677903D01*
X154577259Y-84694248D01*
X154593561Y-84687233D01*
X154595068Y-84686000D01*
X154620593Y-84674903D01*
X154657747Y-84668809D01*
X154663614Y-84668549D01*
X154701552Y-84672404D01*
X154732687Y-84690088D01*
X154752854Y-84709298D01*
X154780869Y-84733498D01*
X154811697Y-84747116D01*
X154850210Y-84750309D01*
X154901278Y-84743229D01*
X154969773Y-84726034D01*
X155000415Y-84717165D01*
X155090370Y-84691719D01*
X155171306Y-84671103D01*
X155238674Y-84656366D01*
X155287924Y-84648556D01*
X155302548Y-84647586D01*
X155329363Y-84656676D01*
X155362336Y-84679835D01*
X155393774Y-84709944D01*
X155415980Y-84739880D01*
X155421949Y-84758083D01*
X155429468Y-84775258D01*
X155435744Y-84777385D01*
X155443807Y-84785229D01*
X155442067Y-84789472D01*
X155445933Y-84802616D01*
X155457621Y-84808868D01*
X155473937Y-84824525D01*
X155491474Y-84856030D01*
X155505922Y-84893775D01*
X155512975Y-84928151D01*
X155513129Y-84932674D01*
X155502621Y-84945337D01*
X155475599Y-84964659D01*
X155451257Y-84979011D01*
X155398169Y-85017107D01*
X155352583Y-85066175D01*
X155321533Y-85118011D01*
X155314549Y-85138504D01*
X155311215Y-85157744D01*
X155319241Y-85159821D01*
X155341848Y-85148187D01*
X155398643Y-85111602D01*
X155449883Y-85070048D01*
X155477844Y-85041154D01*
X155499422Y-85019940D01*
X155515138Y-85011846D01*
X155531820Y-85004147D01*
X155560767Y-84984339D01*
X155583919Y-84966256D01*
X155616272Y-84941074D01*
X155640651Y-84924517D01*
X155649229Y-84920667D01*
X155665603Y-84913802D01*
X155692012Y-84897179D01*
X155693477Y-84896146D01*
X155734118Y-84876139D01*
X155789370Y-84859740D01*
X155848253Y-84849243D01*
X155899793Y-84846941D01*
X155917966Y-84849254D01*
X155954930Y-84868016D01*
X155970076Y-84892565D01*
X155984296Y-84928796D01*
X155995077Y-84953231D01*
X156009007Y-84985350D01*
X156020940Y-85016161D01*
X156034912Y-85037994D01*
X156051493Y-85046863D01*
X156062852Y-85041031D01*
X156063139Y-85025532D01*
X156066966Y-85015770D01*
X156071858Y-85017510D01*
X156089670Y-85015657D01*
X156103815Y-85005453D01*
X156122942Y-84989560D01*
X156131299Y-84985795D01*
X156145230Y-84978087D01*
X156175680Y-84956802D01*
X156218874Y-84924700D01*
X156271039Y-84884540D01*
X156288154Y-84871112D01*
X156334772Y-84844262D01*
X156398624Y-84820410D01*
X156471208Y-84801475D01*
X156544022Y-84789376D01*
X156608564Y-84786033D01*
X156646026Y-84790331D01*
X156673022Y-84806406D01*
X156704763Y-84838988D01*
X156736275Y-84880879D01*
X156762584Y-84924881D01*
X156778718Y-84963795D01*
X156781073Y-84985795D01*
X156771540Y-85025343D01*
X156756640Y-85070446D01*
X156739784Y-85112193D01*
X156724383Y-85141669D01*
X156718768Y-85148615D01*
X156700418Y-85167901D01*
X156674007Y-85199009D01*
X156644242Y-85235940D01*
X156615832Y-85272696D01*
X156593483Y-85303278D01*
X156581903Y-85321687D01*
X156581231Y-85323875D01*
X156574096Y-85338045D01*
X156555365Y-85367350D01*
X156529045Y-85406069D01*
X156499145Y-85448478D01*
X156469674Y-85488853D01*
X156444641Y-85521471D01*
X156433326Y-85535043D01*
X156421114Y-85554989D01*
X156421667Y-85564350D01*
X156419300Y-85571368D01*
X156414069Y-85571949D01*
X156401306Y-85582708D01*
X156398872Y-85595395D01*
X156388053Y-85628172D01*
X156355995Y-85646324D01*
X156321008Y-85650103D01*
X156277309Y-85642862D01*
X156250679Y-85619368D01*
X156239122Y-85576964D01*
X156238635Y-85540393D01*
X156242132Y-85498365D01*
X156247714Y-85465176D01*
X156250678Y-85455726D01*
X156259317Y-85432814D01*
X156260978Y-85425833D01*
X156269491Y-85409632D01*
X156282476Y-85392692D01*
X156302536Y-85364162D01*
X156311375Y-85346680D01*
X156324222Y-85327840D01*
X156331813Y-85324462D01*
X156342652Y-85314287D01*
X156362036Y-85288301D01*
X156385585Y-85253312D01*
X156408919Y-85216128D01*
X156427657Y-85183555D01*
X156437420Y-85162403D01*
X156437949Y-85159506D01*
X156445296Y-85143490D01*
X156462140Y-85122151D01*
X156480684Y-85104039D01*
X156493136Y-85097703D01*
X156493875Y-85098165D01*
X156503367Y-85093001D01*
X156517643Y-85072418D01*
X156531809Y-85045183D01*
X156540969Y-85020063D01*
X156542154Y-85011690D01*
X156531509Y-85003051D01*
X156504764Y-85003312D01*
X156469708Y-85010979D01*
X156434129Y-85024555D01*
X156413679Y-85036352D01*
X156380562Y-85056411D01*
X156352845Y-85068736D01*
X156330532Y-85081832D01*
X156297620Y-85108233D01*
X156261665Y-85141802D01*
X156228217Y-85174005D01*
X156201478Y-85197311D01*
X156186979Y-85206913D01*
X156186656Y-85206947D01*
X156168352Y-85214532D01*
X156160605Y-85220060D01*
X156140766Y-85236100D01*
X156110947Y-85260075D01*
X156102283Y-85267023D01*
X156076444Y-85292967D01*
X156063526Y-85316406D01*
X156063206Y-85322057D01*
X156054542Y-85342550D01*
X156027641Y-85360438D01*
X155986478Y-85379503D01*
X155963842Y-85392322D01*
X155954146Y-85402501D01*
X155952172Y-85409128D01*
X155940977Y-85426468D01*
X155914095Y-85454152D01*
X155877144Y-85487527D01*
X155835741Y-85521942D01*
X155795501Y-85552744D01*
X155762041Y-85575281D01*
X155740979Y-85584901D01*
X155739876Y-85584974D01*
X155718638Y-85574490D01*
X155713573Y-85566346D01*
X155696951Y-85548875D01*
X155669674Y-85534906D01*
X155637525Y-85513229D01*
X155624126Y-85482043D01*
X155614424Y-85451671D01*
X155603381Y-85434607D01*
X155603306Y-85434560D01*
X155591008Y-85413120D01*
X155592147Y-85377955D01*
X155604546Y-85336193D01*
X155626028Y-85294962D01*
X155654416Y-85261392D01*
X155656821Y-85259333D01*
X155667910Y-85245747D01*
X155688405Y-85217437D01*
X155706834Y-85190815D01*
X155730490Y-85149387D01*
X155735276Y-85124980D01*
X155723031Y-85118812D01*
X155695596Y-85132101D01*
X155660862Y-85160385D01*
X155599950Y-85214440D01*
X155545567Y-85256856D01*
X155487077Y-85295594D01*
X155452422Y-85316390D01*
X155411597Y-85342465D01*
X155380269Y-85366465D01*
X155365056Y-85383306D01*
X155364924Y-85383629D01*
X155349956Y-85398517D01*
X155317348Y-85419538D01*
X155273464Y-85442703D01*
X155262086Y-85448081D01*
X155213593Y-85472418D01*
X155172050Y-85496720D01*
X155145297Y-85516334D01*
X155142735Y-85518921D01*
X155123163Y-85538097D01*
X155105917Y-85543633D01*
X155083110Y-85534990D01*
X155048040Y-85512424D01*
X155008081Y-85480473D01*
X154983592Y-85445808D01*
X154971421Y-85401174D01*
X154968416Y-85339315D01*
X154968538Y-85329428D01*
X154971095Y-85276895D01*
X154978312Y-85240686D01*
X154992777Y-85211158D01*
X155004811Y-85194205D01*
X155031482Y-85154350D01*
X155053297Y-85113716D01*
X155056487Y-85106282D01*
X155070707Y-85078060D01*
X155083429Y-85064231D01*
X155084863Y-85063949D01*
X155095167Y-85053445D01*
X155096308Y-85045390D01*
X155105181Y-85026871D01*
X155128111Y-84998313D01*
X155151320Y-84974487D01*
X155179407Y-84945261D01*
X155196042Y-84922946D01*
X155198087Y-84913899D01*
X155182869Y-84914438D01*
X155150761Y-84923706D01*
X155108619Y-84939711D01*
X155107255Y-84940282D01*
X155037473Y-84963691D01*
X154963814Y-84978594D01*
X154893537Y-84984302D01*
X154833897Y-84980126D01*
X154799400Y-84969546D01*
X154769523Y-84958437D01*
X154749364Y-84957619D01*
X154748410Y-84958151D01*
X154736358Y-84972635D01*
X154715465Y-85003438D01*
X154689929Y-85044325D01*
X154685969Y-85050923D01*
X154658086Y-85095243D01*
X154632001Y-85132651D01*
X154613006Y-85155596D01*
X154611867Y-85156656D01*
X154593326Y-85181134D01*
X154588308Y-85198248D01*
X154580288Y-85217119D01*
X154558935Y-85249431D01*
X154528309Y-85289230D01*
X154516812Y-85303049D01*
X154465639Y-85357757D01*
X154420267Y-85393162D01*
X154387393Y-85409445D01*
X154351659Y-85426061D01*
X154327525Y-85442796D01*
X154322686Y-85449243D01*
X154307102Y-85465244D01*
X154276844Y-85482970D01*
X154267535Y-85487130D01*
X154231030Y-85507150D01*
X154203305Y-85530478D01*
X154200114Y-85534541D01*
X154167773Y-85563735D01*
X154119026Y-85588851D01*
X154063517Y-85605802D01*
X154020309Y-85610740D01*
X153980175Y-85606237D01*
X153941917Y-85589445D01*
X153905648Y-85564315D01*
X153835173Y-85506991D01*
X153785431Y-85456357D01*
X153753919Y-85407321D01*
X153738133Y-85354794D01*
X153737405Y-85337415D01*
X153937819Y-85337415D01*
X153943320Y-85362789D01*
X153962023Y-85386454D01*
X153989395Y-85400794D01*
X154000191Y-85402201D01*
X154019467Y-85396021D01*
X154053562Y-85379378D01*
X154095313Y-85355789D01*
X154097883Y-85354243D01*
X154146671Y-85321046D01*
X154201878Y-85277415D01*
X154259941Y-85226891D01*
X154317296Y-85173014D01*
X154370379Y-85119324D01*
X154415625Y-85069360D01*
X154449472Y-85026664D01*
X154468355Y-84994775D01*
X154471077Y-84983556D01*
X154478125Y-84960015D01*
X154491913Y-84935793D01*
X154505262Y-84911423D01*
X154501317Y-84893203D01*
X154494432Y-84884049D01*
X154475797Y-84855765D01*
X154460030Y-84824432D01*
X154449948Y-84803823D01*
X154437438Y-84793383D01*
X154415173Y-84790844D01*
X154375829Y-84793940D01*
X154365119Y-84795051D01*
X154316408Y-84803096D01*
X154266898Y-84816051D01*
X154222702Y-84831657D01*
X154189934Y-84847652D01*
X154174709Y-84861778D01*
X154174531Y-84865504D01*
X154168206Y-84880629D01*
X154148210Y-84905973D01*
X154135667Y-84919247D01*
X154110155Y-84948498D01*
X154095077Y-84972814D01*
X154093334Y-84979637D01*
X154083449Y-85001909D01*
X154076300Y-85007942D01*
X154059653Y-85027599D01*
X154038584Y-85065525D01*
X154015860Y-85114951D01*
X153994247Y-85169106D01*
X153976510Y-85221221D01*
X153965417Y-85264523D01*
X153963077Y-85285071D01*
X153956991Y-85309817D01*
X153950052Y-85317949D01*
X153937819Y-85337415D01*
X153737405Y-85337415D01*
X153735570Y-85293685D01*
X153741894Y-85231361D01*
X153750661Y-85175742D01*
X153760465Y-85122963D01*
X153768944Y-85085429D01*
X153776349Y-85052662D01*
X153778260Y-85032536D01*
X153777529Y-85030366D01*
X153762368Y-85025706D01*
X153729642Y-85019718D01*
X153687598Y-85013498D01*
X153644481Y-85008144D01*
X153608538Y-85004752D01*
X153588014Y-85004419D01*
X153586285Y-85004925D01*
X153576091Y-85019527D01*
X153557985Y-85053128D01*
X153534449Y-85100842D01*
X153507970Y-85157780D01*
X153503297Y-85168154D01*
X153488143Y-85204935D01*
X153469316Y-85254665D01*
X153453743Y-85298410D01*
X153436972Y-85344047D01*
X153421389Y-85381163D01*
X153410740Y-85401124D01*
X153397996Y-85424735D01*
X153395914Y-85433688D01*
X153390612Y-85458440D01*
X153387436Y-85467744D01*
X153379707Y-85491819D01*
X153369127Y-85529416D01*
X153364784Y-85545897D01*
X153352892Y-85587583D01*
X153341097Y-85622192D01*
X153337601Y-85630564D01*
X153328760Y-85655182D01*
X153316165Y-85697035D01*
X153302219Y-85748042D01*
X153299072Y-85760223D01*
X153285389Y-85809806D01*
X153272492Y-85849704D01*
X153262661Y-85873042D01*
X153260774Y-85875668D01*
X153241977Y-85881544D01*
X153226094Y-85867719D01*
X153220616Y-85844718D01*
X153216456Y-85823287D01*
X153202164Y-85823434D01*
X153179172Y-85841117D01*
X153161290Y-85854247D01*
X153145854Y-85851788D01*
X153122787Y-85832333D01*
X153099266Y-85802878D01*
X153092334Y-85770120D01*
X153101723Y-85727556D01*
X153116946Y-85690456D01*
X153132260Y-85646501D01*
X153135626Y-85612024D01*
X153134381Y-85606086D01*
X153124640Y-85547099D01*
X153126820Y-85478913D01*
X153139538Y-85411914D01*
X153161408Y-85356489D01*
X153169310Y-85344000D01*
X153176369Y-85326227D01*
X153187456Y-85289527D01*
X153200689Y-85240345D01*
X153207362Y-85213744D01*
X153223853Y-85149737D01*
X153242029Y-85084341D01*
X153258565Y-85029411D01*
X153262168Y-85018359D01*
X153283418Y-84953361D01*
X153296365Y-84907973D01*
X153301380Y-84877240D01*
X153298832Y-84856207D01*
X153289090Y-84839918D01*
X153276439Y-84827041D01*
X153246480Y-84792478D01*
X153224351Y-84757846D01*
X153202101Y-84723919D01*
X153170713Y-84686810D01*
X153160460Y-84676464D01*
X153134088Y-84647216D01*
X153118354Y-84622197D01*
X153116411Y-84614593D01*
X153110991Y-84596405D01*
X153098021Y-84598445D01*
X153082434Y-84618075D01*
X153073821Y-84637359D01*
X153064273Y-84668416D01*
X153061138Y-84687983D01*
X153061318Y-84688996D01*
X153056683Y-84704419D01*
X153041602Y-84737848D01*
X153018523Y-84784650D01*
X152989894Y-84840197D01*
X152958163Y-84899855D01*
X152925780Y-84958995D01*
X152895193Y-85012986D01*
X152868850Y-85057196D01*
X152856184Y-85076974D01*
X152835898Y-85112444D01*
X152816938Y-85153226D01*
X152816397Y-85154569D01*
X152798784Y-85190532D01*
X152779900Y-85218011D01*
X152778202Y-85219799D01*
X152765394Y-85238631D01*
X152743355Y-85277610D01*
X152713852Y-85333263D01*
X152678653Y-85402120D01*
X152639525Y-85480712D01*
X152598235Y-85565568D01*
X152556549Y-85653217D01*
X152545809Y-85676154D01*
X152511150Y-85757003D01*
X152479738Y-85842536D01*
X152453582Y-85926177D01*
X152434696Y-86001348D01*
X152425091Y-86061475D01*
X152424382Y-86073161D01*
X152422311Y-86113400D01*
X152415506Y-86135330D01*
X152398105Y-86143025D01*
X152364246Y-86140565D01*
X152334052Y-86135982D01*
X152299754Y-86121786D01*
X152276318Y-86090153D01*
X152262886Y-86038846D01*
X152258597Y-85965629D01*
X152258925Y-85940599D01*
X152271540Y-85824761D01*
X152301855Y-85704212D01*
X152346844Y-85590026D01*
X152363672Y-85556959D01*
X152449377Y-85397528D01*
X152534471Y-85236448D01*
X152556554Y-85194226D01*
X152587595Y-85136806D01*
X152617470Y-85085106D01*
X152642529Y-85045243D01*
X152657624Y-85024892D01*
X152673787Y-85002074D01*
X152698617Y-84960840D01*
X152729289Y-84906152D01*
X152762978Y-84842974D01*
X152779972Y-84809949D01*
X152819424Y-84730235D01*
X152847087Y-84668974D01*
X152864505Y-84622240D01*
X152873226Y-84586107D01*
X152874889Y-84568974D01*
X152878937Y-84536269D01*
X152890265Y-84501994D01*
X152911552Y-84460111D01*
X152945473Y-84404581D01*
X152952832Y-84393128D01*
X152984596Y-84344514D01*
X153011479Y-84304447D01*
X153030188Y-84277767D01*
X153036964Y-84269385D01*
X153047528Y-84256316D01*
X153068758Y-84226768D01*
X153096934Y-84185980D01*
X153112041Y-84163639D01*
X153145419Y-84110456D01*
X153164896Y-84071500D01*
X153169162Y-84049461D01*
X153168466Y-84047872D01*
X153156240Y-84040305D01*
X153136321Y-84052029D01*
X153129057Y-84058532D01*
X153095880Y-84083739D01*
X153057831Y-84105674D01*
X153023876Y-84125404D01*
X152998887Y-84146031D01*
X152997970Y-84147098D01*
X152971021Y-84168293D01*
X152925565Y-84192522D01*
X152867314Y-84217840D01*
X152801983Y-84242301D01*
X152735282Y-84263960D01*
X152672924Y-84280870D01*
X152620621Y-84291087D01*
X152584086Y-84292665D01*
X152576054Y-84290805D01*
X152561146Y-84272646D01*
X152556308Y-84243742D01*
X152550801Y-84212829D01*
X152536350Y-84204256D01*
X152516023Y-84192680D01*
X152502492Y-84163193D01*
X152498759Y-84123660D01*
X152500206Y-84109646D01*
X152521241Y-84039697D01*
X152540370Y-84008024D01*
X153197758Y-84008024D01*
X153199540Y-84008872D01*
X153211427Y-83999702D01*
X153214103Y-83995846D01*
X153217422Y-83983669D01*
X153215640Y-83982820D01*
X153203753Y-83991990D01*
X153201077Y-83995846D01*
X153197758Y-84008024D01*
X152540370Y-84008024D01*
X152563417Y-83969867D01*
X152568316Y-83964409D01*
X152842872Y-83964409D01*
X152846567Y-83969132D01*
X152860631Y-83964514D01*
X152889534Y-83948648D01*
X152913982Y-83934069D01*
X152952666Y-83908126D01*
X152971880Y-83889361D01*
X152970024Y-83879595D01*
X152962669Y-83878615D01*
X152947679Y-83885566D01*
X152920757Y-83902768D01*
X152889548Y-83924749D01*
X152861693Y-83946034D01*
X152844836Y-83961150D01*
X152842872Y-83964409D01*
X152568316Y-83964409D01*
X152628572Y-83897289D01*
X152648410Y-83878615D01*
X152699823Y-83831215D01*
X153016708Y-83831215D01*
X153021456Y-83834177D01*
X153044529Y-83822575D01*
X153047145Y-83821153D01*
X153072309Y-83803754D01*
X153110091Y-83773224D01*
X153154429Y-83734589D01*
X153181539Y-83709719D01*
X153236402Y-83660411D01*
X153278378Y-83629459D01*
X153312013Y-83615860D01*
X153341855Y-83618613D01*
X153372452Y-83636716D01*
X153400449Y-83661502D01*
X153443514Y-83702769D01*
X153500242Y-83637641D01*
X153551813Y-83571264D01*
X153592476Y-83504563D01*
X153620464Y-83441797D01*
X153634012Y-83387225D01*
X153631356Y-83345108D01*
X153626131Y-83333876D01*
X153608311Y-83328439D01*
X153574336Y-83336825D01*
X153528368Y-83356556D01*
X153474570Y-83385150D01*
X153417105Y-83420128D01*
X153360136Y-83459009D01*
X153307826Y-83499312D01*
X153264337Y-83538558D01*
X153242822Y-83562264D01*
X153222707Y-83585335D01*
X153190637Y-83620250D01*
X153152866Y-83660225D01*
X153145129Y-83668279D01*
X153101281Y-83714175D01*
X153071529Y-83746674D01*
X153051638Y-83770884D01*
X153037371Y-83791918D01*
X153026112Y-83811841D01*
X153016708Y-83831215D01*
X152699823Y-83831215D01*
X152719515Y-83813061D01*
X152776017Y-83759654D01*
X152822915Y-83713386D01*
X152865210Y-83669249D01*
X152907903Y-83622235D01*
X152934052Y-83592553D01*
X153003519Y-83515836D01*
X153076128Y-83440492D01*
X153147553Y-83370682D01*
X153213465Y-83310565D01*
X153269537Y-83264300D01*
X153293644Y-83246913D01*
X153372853Y-83199506D01*
X153455760Y-83159688D01*
X153535825Y-83130026D01*
X153606511Y-83113089D01*
X153641955Y-83110103D01*
X153688814Y-83107917D01*
X153729545Y-83102331D01*
X153745726Y-83098000D01*
X153781426Y-83095437D01*
X153812948Y-83110583D01*
G36*
X143199787Y-83704291D02*
X143307259Y-83715168D01*
X143392154Y-83736606D01*
X143456150Y-83769655D01*
X143500924Y-83815368D01*
X143528154Y-83874795D01*
X143536492Y-83915390D01*
X143546647Y-83976562D01*
X143557300Y-84012204D01*
X143568884Y-84022838D01*
X143581836Y-84008986D01*
X143592715Y-83982820D01*
X143608982Y-83953568D01*
X143634209Y-83943902D01*
X143639579Y-83943744D01*
X143665604Y-83949727D01*
X143672821Y-83969026D01*
X143680516Y-83996808D01*
X143700542Y-84003093D01*
X143725824Y-83988518D01*
X143747411Y-83972998D01*
X143757737Y-83976925D01*
X143757201Y-84001774D01*
X143746203Y-84049019D01*
X143744184Y-84056319D01*
X143720094Y-84142966D01*
X143701508Y-84211505D01*
X143686638Y-84268835D01*
X143673694Y-84321859D01*
X143660890Y-84377477D01*
X143660299Y-84380103D01*
X143630271Y-84503725D01*
X143596309Y-84622307D01*
X143556169Y-84744820D01*
X143535087Y-84811627D01*
X143514278Y-84886539D01*
X143498271Y-84953231D01*
X143483261Y-85012525D01*
X143464440Y-85070914D01*
X143445680Y-85116492D01*
X143444254Y-85119314D01*
X143426093Y-85158059D01*
X143414521Y-85189606D01*
X143412308Y-85201183D01*
X143405759Y-85227264D01*
X143394515Y-85250022D01*
X143386681Y-85268632D01*
X143376815Y-85303089D01*
X143364562Y-85355072D01*
X143349565Y-85426260D01*
X143331469Y-85518331D01*
X143309920Y-85632964D01*
X143287731Y-85754308D01*
X143276874Y-85809688D01*
X143265738Y-85859024D01*
X143256304Y-85893728D01*
X143254175Y-85899816D01*
X143245797Y-85933999D01*
X143245812Y-85958431D01*
X143254084Y-85966215D01*
X143269298Y-85952222D01*
X143289750Y-85919248D01*
X143313735Y-85870091D01*
X143339547Y-85807548D01*
X143342452Y-85799897D01*
X143362462Y-85751310D01*
X143382652Y-85709654D01*
X143398829Y-85683534D01*
X143399565Y-85682667D01*
X143421475Y-85649079D01*
X143431956Y-85624051D01*
X143442430Y-85595127D01*
X143459987Y-85552691D01*
X143477472Y-85513333D01*
X143503351Y-85456826D01*
X143531193Y-85395787D01*
X143546770Y-85361506D01*
X143565983Y-85321719D01*
X143582328Y-85292405D01*
X143591003Y-85281136D01*
X143600852Y-85266640D01*
X143617107Y-85234333D01*
X143636589Y-85190629D01*
X143640585Y-85181104D01*
X143667628Y-85123269D01*
X143696143Y-85081116D01*
X143733071Y-85044855D01*
X143742907Y-85036781D01*
X143779326Y-85009895D01*
X143809885Y-84991420D01*
X143825605Y-84985795D01*
X143850459Y-84991285D01*
X143890080Y-85005631D01*
X143936136Y-85025644D01*
X143959385Y-85036988D01*
X143973036Y-85056220D01*
X143984642Y-85095891D01*
X143989374Y-85123827D01*
X143997623Y-85174613D01*
X144007515Y-85221996D01*
X144013504Y-85244411D01*
X144019549Y-85282350D01*
X144021462Y-85341689D01*
X144019133Y-85418090D01*
X144018257Y-85433283D01*
X144014664Y-85495699D01*
X144013317Y-85535618D01*
X144014555Y-85556523D01*
X144018722Y-85561901D01*
X144026158Y-85555234D01*
X144029749Y-85550492D01*
X144050112Y-85516958D01*
X144074768Y-85468501D01*
X144099753Y-85413905D01*
X144121103Y-85361954D01*
X144134856Y-85321433D01*
X144136848Y-85313123D01*
X144150984Y-85275073D01*
X144169243Y-85247754D01*
X144187454Y-85224041D01*
X144193847Y-85208698D01*
X144203828Y-85195059D01*
X144229595Y-85173076D01*
X144255024Y-85154762D01*
X144313600Y-85125339D01*
X144368224Y-85120547D01*
X144422992Y-85140239D01*
X144436199Y-85148320D01*
X144448543Y-85157294D01*
X144457439Y-85168112D01*
X144463111Y-85184421D01*
X144465786Y-85209869D01*
X144465690Y-85248104D01*
X144463050Y-85302774D01*
X144458090Y-85377526D01*
X144453977Y-85435179D01*
X144446698Y-85536498D01*
X144441204Y-85614795D01*
X144437445Y-85673036D01*
X144435368Y-85714185D01*
X144434924Y-85741208D01*
X144436059Y-85757069D01*
X144438723Y-85764734D01*
X144442865Y-85767167D01*
X144448224Y-85767333D01*
X144466010Y-85756543D01*
X144473472Y-85742625D01*
X144486872Y-85718591D01*
X144511655Y-85686460D01*
X144524618Y-85672001D01*
X144557559Y-85632312D01*
X144591306Y-85584473D01*
X144604454Y-85563196D01*
X144630388Y-85522454D01*
X144656436Y-85487584D01*
X144668685Y-85474153D01*
X144685677Y-85453377D01*
X144712357Y-85415252D01*
X144734467Y-85381447D01*
X144965534Y-85381447D01*
X144982828Y-85408198D01*
X145016636Y-85428477D01*
X145049655Y-85423740D01*
X145078550Y-85394896D01*
X145086813Y-85379820D01*
X145106027Y-85325800D01*
X145115266Y-85270216D01*
X145113874Y-85221409D01*
X145101835Y-85188544D01*
X145089816Y-85175216D01*
X145080147Y-85176880D01*
X145068120Y-85196953D01*
X145056981Y-85221108D01*
X145033570Y-85263573D01*
X145005941Y-85300899D01*
X144996693Y-85310450D01*
X144968195Y-85347189D01*
X144965534Y-85381447D01*
X144734467Y-85381447D01*
X144745276Y-85364922D01*
X144780982Y-85307534D01*
X144786563Y-85298307D01*
X144837007Y-85217627D01*
X144879863Y-85156727D01*
X144918449Y-85111724D01*
X144956078Y-85078738D01*
X144994687Y-85054610D01*
X145037535Y-85039562D01*
X145081043Y-85036012D01*
X145115168Y-85044313D01*
X145123057Y-85050103D01*
X145149131Y-85064593D01*
X145171812Y-85053873D01*
X145189836Y-85018696D01*
X145192825Y-85008590D01*
X145219721Y-84919905D01*
X145251434Y-84832605D01*
X145284407Y-84756009D01*
X145303481Y-84718769D01*
X145326355Y-84676145D01*
X145357672Y-84615388D01*
X145394748Y-84541923D01*
X145434899Y-84461172D01*
X145475442Y-84378559D01*
X145513692Y-84299507D01*
X145546965Y-84229439D01*
X145566162Y-84187974D01*
X145589037Y-84142094D01*
X145610226Y-84107115D01*
X145626211Y-84088594D01*
X145630071Y-84087026D01*
X145652092Y-84094966D01*
X145683257Y-84114790D01*
X145716053Y-84140503D01*
X145742968Y-84166110D01*
X145756488Y-84185616D01*
X145756924Y-84188250D01*
X145753616Y-84214512D01*
X145745315Y-84255341D01*
X145734449Y-84300335D01*
X145723449Y-84339091D01*
X145718193Y-84354051D01*
X145708329Y-84382569D01*
X145696114Y-84423038D01*
X145691799Y-84438490D01*
X145676105Y-84486221D01*
X145654733Y-84539622D01*
X145644775Y-84561415D01*
X145627253Y-84601206D01*
X145615870Y-84633699D01*
X145613445Y-84646310D01*
X145608933Y-84672537D01*
X145598209Y-84709120D01*
X145584989Y-84745122D01*
X145572988Y-84769608D01*
X145570466Y-84772799D01*
X145563349Y-84791711D01*
X145561539Y-84811351D01*
X145556399Y-84838065D01*
X145548513Y-84849026D01*
X145539618Y-84866390D01*
X145535519Y-84897795D01*
X145535488Y-84900841D01*
X145529708Y-84944258D01*
X145517132Y-84981483D01*
X145503830Y-85012558D01*
X145486606Y-85058571D01*
X145469195Y-85109538D01*
X145448960Y-85165183D01*
X145421627Y-85231578D01*
X145392308Y-85296459D01*
X145385055Y-85311436D01*
X145356003Y-85370873D01*
X145335797Y-85414258D01*
X145321571Y-85448807D01*
X145310459Y-85481738D01*
X145299596Y-85520269D01*
X145294541Y-85539385D01*
X145286375Y-85577316D01*
X145277664Y-85628837D01*
X145269082Y-85688254D01*
X145261304Y-85749876D01*
X145255003Y-85808012D01*
X145250852Y-85856968D01*
X145249527Y-85891055D01*
X145251332Y-85904340D01*
X145269830Y-85905323D01*
X145300362Y-85883986D01*
X145342440Y-85840852D01*
X145395577Y-85776445D01*
X145459283Y-85691290D01*
X145489898Y-85648292D01*
X145526705Y-85597218D01*
X145569406Y-85539811D01*
X145601820Y-85497462D01*
X145635969Y-85449087D01*
X145666510Y-85397950D01*
X145685638Y-85357908D01*
X145708527Y-85312697D01*
X145739234Y-85283023D01*
X145782248Y-85266970D01*
X145842062Y-85262620D01*
X145901099Y-85265925D01*
X145972828Y-85268678D01*
X146023852Y-85261583D01*
X146057933Y-85243747D01*
X146073443Y-85224867D01*
X146104606Y-85195099D01*
X146149823Y-85178309D01*
X146198925Y-85177892D01*
X146207977Y-85179978D01*
X146257669Y-85203436D01*
X146285011Y-85238316D01*
X146289346Y-85281619D01*
X146270018Y-85330343D01*
X146247404Y-85360244D01*
X146206428Y-85424537D01*
X146184304Y-85500406D01*
X146183325Y-85576828D01*
X146189999Y-85627298D01*
X146253755Y-85619746D01*
X146305532Y-85607676D01*
X146359417Y-85585545D01*
X146408785Y-85557236D01*
X146447013Y-85526635D01*
X146467479Y-85497623D01*
X146468575Y-85493795D01*
X146494072Y-85395851D01*
X146526262Y-85298477D01*
X146562823Y-85207161D01*
X146601438Y-85127390D01*
X146639785Y-85064652D01*
X146661299Y-85037897D01*
X146687483Y-85005791D01*
X146706662Y-84976026D01*
X146723612Y-84954135D01*
X146747149Y-84948475D01*
X146782689Y-84958888D01*
X146812329Y-84972937D01*
X146856062Y-84999602D01*
X146883569Y-85029833D01*
X146897634Y-85069754D01*
X146901041Y-85125490D01*
X146899416Y-85164524D01*
X146892541Y-85230760D01*
X146879065Y-85284692D01*
X146855432Y-85339888D01*
X146851287Y-85348142D01*
X146831717Y-85389650D01*
X146819467Y-85421717D01*
X146816979Y-85437871D01*
X146817279Y-85438287D01*
X146827975Y-85438464D01*
X146847269Y-85424406D01*
X146876444Y-85394703D01*
X146916782Y-85347944D01*
X146969564Y-85282720D01*
X147036073Y-85197620D01*
X147036306Y-85197319D01*
X147095473Y-85122215D01*
X147142255Y-85066788D01*
X147178912Y-85029172D01*
X147207704Y-85007497D01*
X147230892Y-84999896D01*
X147250735Y-85004502D01*
X147261050Y-85011568D01*
X147281246Y-85037421D01*
X147287810Y-85052099D01*
X147302424Y-85072588D01*
X147314365Y-85076974D01*
X147328671Y-85079996D01*
X147330269Y-85091773D01*
X147318067Y-85116374D01*
X147293712Y-85153832D01*
X147271679Y-85189465D01*
X147257604Y-85218215D01*
X147254872Y-85228693D01*
X147249175Y-85246911D01*
X147233757Y-85282577D01*
X147211131Y-85330140D01*
X147189886Y-85372329D01*
X147163985Y-85423669D01*
X147143806Y-85465763D01*
X147131619Y-85493731D01*
X147129198Y-85502719D01*
X147140774Y-85497456D01*
X147167745Y-85479669D01*
X147204944Y-85452828D01*
X147216979Y-85443792D01*
X147304802Y-85367600D01*
X147384872Y-85279842D01*
X147448983Y-85189610D01*
X147453980Y-85181179D01*
X147479176Y-85144235D01*
X147516204Y-85097531D01*
X147558260Y-85049509D01*
X147571112Y-85035824D01*
X147610901Y-84995010D01*
X147638371Y-84970108D01*
X147658855Y-84957872D01*
X147677685Y-84955054D01*
X147698743Y-84958113D01*
X147735578Y-84972831D01*
X147762867Y-85003964D01*
X147769180Y-85014969D01*
X147795026Y-85062798D01*
X147757306Y-85134895D01*
X147732235Y-85176843D01*
X147706231Y-85211083D01*
X147689585Y-85226650D01*
X147661273Y-85251415D01*
X147645641Y-85272359D01*
X147638022Y-85293209D01*
X147644932Y-85297860D01*
X147663054Y-85289091D01*
X147689070Y-85269679D01*
X147719665Y-85242406D01*
X147751520Y-85210048D01*
X147781319Y-85175386D01*
X147805745Y-85141198D01*
X147809399Y-85135166D01*
X147846090Y-85086456D01*
X147886956Y-85061848D01*
X147936155Y-85059394D01*
X147960181Y-85064467D01*
X147988647Y-85070635D01*
X148012977Y-85069988D01*
X148041092Y-85060592D01*
X148080914Y-85040517D01*
X148099129Y-85030585D01*
X148148793Y-85001376D01*
X148195406Y-84970730D01*
X148228906Y-84945264D01*
X148228992Y-84945189D01*
X148273009Y-84915321D01*
X148309199Y-84907933D01*
X148335038Y-84922379D01*
X148347999Y-84958017D01*
X148349026Y-84975816D01*
X148339737Y-85006376D01*
X148315713Y-85045654D01*
X148282719Y-85086294D01*
X148246520Y-85120939D01*
X148222026Y-85137869D01*
X148194447Y-85155118D01*
X148180219Y-85168210D01*
X148179693Y-85169887D01*
X148168813Y-85179454D01*
X148140549Y-85196065D01*
X148101465Y-85216511D01*
X148058126Y-85237581D01*
X148017096Y-85256066D01*
X147984939Y-85268756D01*
X147969682Y-85272587D01*
X147951839Y-85281083D01*
X147921714Y-85303233D01*
X147885571Y-85334394D01*
X147882662Y-85337086D01*
X147834901Y-85380283D01*
X147782215Y-85426097D01*
X147745893Y-85456476D01*
X147700744Y-85495295D01*
X147649467Y-85542413D01*
X147606749Y-85584059D01*
X147570967Y-85617912D01*
X147540605Y-85642254D01*
X147521199Y-85652750D01*
X147518974Y-85652776D01*
X147495336Y-85655512D01*
X147475582Y-85663517D01*
X147440804Y-85670280D01*
X147411011Y-85655142D01*
X147390961Y-85622251D01*
X147385129Y-85584674D01*
X147383713Y-85556523D01*
X147378189Y-85538579D01*
X147366639Y-85531962D01*
X147347147Y-85537790D01*
X147317794Y-85557183D01*
X147276665Y-85591257D01*
X147221843Y-85641133D01*
X147151410Y-85707928D01*
X147116687Y-85741321D01*
X147086999Y-85765602D01*
X147061563Y-85779263D01*
X147055584Y-85780359D01*
X147032621Y-85787625D01*
X147026924Y-85793385D01*
X147007213Y-85804205D01*
X146975787Y-85805524D01*
X146944898Y-85798056D01*
X146929952Y-85787740D01*
X146921563Y-85764206D01*
X146920308Y-85720572D01*
X146923527Y-85677022D01*
X146926934Y-85622716D01*
X146923603Y-85592534D01*
X146912940Y-85585281D01*
X146894352Y-85599767D01*
X146888493Y-85606531D01*
X146863987Y-85627411D01*
X146831539Y-85646388D01*
X146773839Y-85675446D01*
X146737422Y-85699032D01*
X146718711Y-85719464D01*
X146718658Y-85719559D01*
X146700146Y-85732466D01*
X146664884Y-85743699D01*
X146641734Y-85747923D01*
X146599716Y-85751896D01*
X146572892Y-85747875D01*
X146551092Y-85733822D01*
X146545331Y-85728591D01*
X146522508Y-85710156D01*
X146503194Y-85708294D01*
X146476398Y-85720159D01*
X146443867Y-85739607D01*
X146402526Y-85767712D01*
X146377263Y-85786309D01*
X146341193Y-85811436D01*
X146311091Y-85828198D01*
X146297375Y-85832462D01*
X146280105Y-85838978D01*
X146277949Y-85844452D01*
X146266493Y-85858187D01*
X146236802Y-85865101D01*
X146195886Y-85864791D01*
X146150761Y-85856852D01*
X146136516Y-85852614D01*
X146071740Y-85820524D01*
X146025439Y-85772806D01*
X145997170Y-85708389D01*
X145986490Y-85626206D01*
X145992954Y-85525185D01*
X145994932Y-85511271D01*
X146004991Y-85444080D01*
X145953574Y-85435393D01*
X145907897Y-85433754D01*
X145871319Y-85443474D01*
X145850528Y-85462182D01*
X145848103Y-85472783D01*
X145839908Y-85492678D01*
X145819513Y-85521010D01*
X145812283Y-85529314D01*
X145788288Y-85559330D01*
X145757033Y-85603326D01*
X145724478Y-85652836D01*
X145717847Y-85663444D01*
X145678492Y-85722001D01*
X145631356Y-85784926D01*
X145586555Y-85838721D01*
X145586008Y-85839328D01*
X145548466Y-85882566D01*
X145515226Y-85923737D01*
X145492418Y-85955185D01*
X145489539Y-85959817D01*
X145464049Y-85990904D01*
X145427150Y-86022978D01*
X145411301Y-86033930D01*
X145369379Y-86063680D01*
X145330276Y-86096545D01*
X145319718Y-86106883D01*
X145298076Y-86131063D01*
X145293998Y-86142211D01*
X145305993Y-86145065D01*
X145307707Y-86145077D01*
X145323804Y-86148470D01*
X145317209Y-86160156D01*
X145298862Y-86168474D01*
X145283904Y-86160108D01*
X145257713Y-86151332D01*
X145226541Y-86152810D01*
X145173244Y-86151370D01*
X145126182Y-86125202D01*
X145086566Y-86075141D01*
X145072121Y-86046470D01*
X145054535Y-86008872D01*
X145040705Y-85983221D01*
X145034623Y-85975744D01*
X145024500Y-85985769D01*
X145013405Y-86003770D01*
X145004799Y-86023522D01*
X145011910Y-86026283D01*
X145019459Y-86023717D01*
X145035867Y-86019148D01*
X145038795Y-86026775D01*
X145029091Y-86051631D01*
X145025501Y-86059570D01*
X145013378Y-86081285D01*
X145003160Y-86081088D01*
X144995311Y-86071763D01*
X144983782Y-86061261D01*
X144970563Y-86066340D01*
X144949624Y-86089796D01*
X144945671Y-86094785D01*
X144918816Y-86128281D01*
X144895390Y-86156505D01*
X144891194Y-86161359D01*
X144875044Y-86189088D01*
X144871180Y-86206862D01*
X144878081Y-86212249D01*
X144898993Y-86196482D01*
X144929591Y-86164529D01*
X144958635Y-86133981D01*
X144979615Y-86115333D01*
X144988182Y-86112427D01*
X144988206Y-86112745D01*
X144979723Y-86137179D01*
X144958002Y-86170637D01*
X144929437Y-86205017D01*
X144900419Y-86232218D01*
X144887088Y-86240928D01*
X144845635Y-86252553D01*
X144791241Y-86255940D01*
X144734799Y-86251564D01*
X144687198Y-86239902D01*
X144670036Y-86231435D01*
X144629888Y-86190934D01*
X144600840Y-86132641D01*
X144585937Y-86063536D01*
X144584616Y-86035647D01*
X144582758Y-85994976D01*
X144577978Y-85966096D01*
X144573583Y-85957437D01*
X144558692Y-85961704D01*
X144534510Y-85980552D01*
X144524737Y-85990200D01*
X144501850Y-86015831D01*
X144495749Y-86030798D01*
X144504462Y-86042509D01*
X144509718Y-86046532D01*
X144529569Y-86065150D01*
X144525805Y-86075800D01*
X144497547Y-86079821D01*
X144487771Y-86079949D01*
X144447064Y-86083325D01*
X144412874Y-86091312D01*
X144377276Y-86096108D01*
X144354093Y-86091984D01*
X144327188Y-86071464D01*
X144302496Y-86036528D01*
X144287070Y-85998355D01*
X144285026Y-85982485D01*
X144279856Y-85957873D01*
X144270652Y-85932568D01*
X144795346Y-85932568D01*
X144800386Y-85959358D01*
X144813735Y-85962038D01*
X144834846Y-85941925D01*
X144852247Y-85922106D01*
X144881321Y-85890618D01*
X144913725Y-85856426D01*
X144950406Y-85814174D01*
X144986644Y-85765680D01*
X145018472Y-85717092D01*
X145041921Y-85674555D01*
X145053025Y-85644216D01*
X145053417Y-85640011D01*
X145042728Y-85623193D01*
X145023497Y-85611985D01*
X144993986Y-85596135D01*
X144959013Y-85571389D01*
X144951664Y-85565397D01*
X144921825Y-85544928D01*
X144897753Y-85536275D01*
X144892626Y-85536850D01*
X144873972Y-85554625D01*
X144852966Y-85590279D01*
X144832745Y-85636223D01*
X144816444Y-85684870D01*
X144807198Y-85728631D01*
X144806194Y-85746002D01*
X144805343Y-85789497D01*
X144801887Y-85844289D01*
X144798397Y-85881308D01*
X144795346Y-85932568D01*
X144270652Y-85932568D01*
X144267033Y-85922621D01*
X144263024Y-85913453D01*
X144248713Y-85879717D01*
X144240290Y-85855611D01*
X144239542Y-85852000D01*
X144234678Y-85832165D01*
X144224410Y-85798953D01*
X144220989Y-85788709D01*
X144211802Y-85752387D01*
X144211248Y-85715378D01*
X144219262Y-85666178D01*
X144220280Y-85661327D01*
X144230695Y-85619284D01*
X144241091Y-85588561D01*
X144247810Y-85577311D01*
X144256818Y-85560163D01*
X144258975Y-85542234D01*
X144257879Y-85522929D01*
X144250462Y-85523979D01*
X144235157Y-85539746D01*
X144218568Y-85564336D01*
X144197301Y-85604896D01*
X144175759Y-85652981D01*
X144174271Y-85656615D01*
X144149997Y-85712664D01*
X144119074Y-85779034D01*
X144087372Y-85843203D01*
X144080858Y-85855815D01*
X144056231Y-85904383D01*
X144037064Y-85944757D01*
X144026084Y-85971068D01*
X144024513Y-85977211D01*
X144016145Y-86002285D01*
X143995187Y-86035215D01*
X143967864Y-86068482D01*
X143940398Y-86094566D01*
X143919012Y-86105948D01*
X143917937Y-86106000D01*
X143883953Y-86101946D01*
X143842920Y-86091804D01*
X143804548Y-86078607D01*
X143778547Y-86065386D01*
X143773969Y-86061044D01*
X143767987Y-86038032D01*
X143765389Y-85994736D01*
X143766018Y-85936683D01*
X143769718Y-85869399D01*
X143776332Y-85798410D01*
X143782855Y-85747795D01*
X143790622Y-85691841D01*
X143793900Y-85655800D01*
X143792411Y-85633874D01*
X143785877Y-85620266D01*
X143776288Y-85611026D01*
X143764406Y-85598318D01*
X143758727Y-85580867D01*
X143758612Y-85552108D01*
X143763422Y-85505474D01*
X143764872Y-85493795D01*
X143772641Y-85436703D01*
X143781124Y-85381500D01*
X143788370Y-85340744D01*
X143793648Y-85303756D01*
X143789618Y-85287226D01*
X143784113Y-85285385D01*
X143770603Y-85296236D01*
X143749146Y-85325114D01*
X143722952Y-85366502D01*
X143695229Y-85414883D01*
X143669184Y-85464741D01*
X143648027Y-85510560D01*
X143638145Y-85536365D01*
X143624639Y-85571308D01*
X143602834Y-85621842D01*
X143576122Y-85680280D01*
X143556334Y-85721744D01*
X143529546Y-85777972D01*
X143506486Y-85828527D01*
X143489998Y-85867047D01*
X143483552Y-85884564D01*
X143472497Y-85911593D01*
X143452113Y-85952538D01*
X143426586Y-85999044D01*
X143423686Y-86004067D01*
X143399677Y-86046584D01*
X143381865Y-86080311D01*
X143373489Y-86099061D01*
X143373231Y-86100461D01*
X143367908Y-86116400D01*
X143354109Y-86148035D01*
X143339139Y-86179599D01*
X143312288Y-86225774D01*
X143289052Y-86247577D01*
X143281609Y-86249282D01*
X143259378Y-86256047D01*
X143253459Y-86263420D01*
X143239384Y-86266975D01*
X143205810Y-86257596D01*
X143176613Y-86245656D01*
X143133421Y-86224173D01*
X143124204Y-86216718D01*
X143269026Y-86216718D01*
X143275539Y-86223231D01*
X143282052Y-86216718D01*
X143275539Y-86210205D01*
X143269026Y-86216718D01*
X143124204Y-86216718D01*
X143108398Y-86203934D01*
X143094711Y-86178873D01*
X143092122Y-86170668D01*
X143079850Y-86140186D01*
X143066385Y-86123262D01*
X143065085Y-86122686D01*
X143049224Y-86128621D01*
X143020255Y-86148740D01*
X142983747Y-86179060D01*
X142974101Y-86187762D01*
X142890445Y-86254680D01*
X142810112Y-86297716D01*
X142729660Y-86318147D01*
X142645648Y-86317249D01*
X142630770Y-86315068D01*
X142529684Y-86285793D01*
X142434096Y-86233816D01*
X142349430Y-86162487D01*
X142310084Y-86117002D01*
X142281514Y-86075616D01*
X142253928Y-86028475D01*
X142230118Y-85981428D01*
X142212878Y-85940325D01*
X142205002Y-85911016D01*
X142206702Y-85900495D01*
X142204961Y-85886643D01*
X142194717Y-85856990D01*
X142185390Y-85834522D01*
X142166039Y-85779851D01*
X142146130Y-85704376D01*
X142145673Y-85702205D01*
X142328294Y-85702205D01*
X142333698Y-85764972D01*
X142351231Y-85835073D01*
X142377805Y-85904892D01*
X142410331Y-85966813D01*
X142445722Y-86013218D01*
X142459222Y-86025156D01*
X142497251Y-86056217D01*
X142533214Y-86089471D01*
X142561691Y-86119464D01*
X142577262Y-86140738D01*
X142578667Y-86145382D01*
X142589438Y-86157212D01*
X142615432Y-86172657D01*
X142647169Y-86187058D01*
X142675169Y-86195756D01*
X142682872Y-86196597D01*
X142706246Y-86191459D01*
X142741536Y-86178556D01*
X142755309Y-86172581D01*
X142797320Y-86147742D01*
X142839038Y-86113724D01*
X142874584Y-86076497D01*
X142898075Y-86042034D01*
X142904250Y-86021333D01*
X142910065Y-85995343D01*
X142924785Y-85957003D01*
X142936927Y-85931203D01*
X142955062Y-85892708D01*
X142966863Y-85862384D01*
X142969436Y-85851067D01*
X142974822Y-85834208D01*
X142989656Y-85798457D01*
X143011958Y-85748329D01*
X143039743Y-85688342D01*
X143054599Y-85657050D01*
X143085875Y-85589284D01*
X143113705Y-85524503D01*
X143135641Y-85468739D01*
X143149234Y-85428019D01*
X143151643Y-85418058D01*
X143163079Y-85372856D01*
X143180763Y-85317201D01*
X143197301Y-85272359D01*
X143211724Y-85235064D01*
X143225626Y-85196191D01*
X143240165Y-85151920D01*
X143256502Y-85098432D01*
X143275797Y-85031910D01*
X143299209Y-84948533D01*
X143327899Y-84844483D01*
X143333792Y-84822974D01*
X143367040Y-84701772D01*
X143394315Y-84602916D01*
X143416416Y-84523596D01*
X143434143Y-84461002D01*
X143448295Y-84412326D01*
X143459672Y-84374758D01*
X143469074Y-84345488D01*
X143472791Y-84334513D01*
X143488317Y-84286088D01*
X143504756Y-84229847D01*
X143511686Y-84204256D01*
X143523305Y-84160408D01*
X143533156Y-84124381D01*
X143537353Y-84109820D01*
X143535607Y-84090626D01*
X143523645Y-84087026D01*
X143499268Y-84079949D01*
X143465157Y-84062419D01*
X143430150Y-84039987D01*
X143403086Y-84018204D01*
X143393120Y-84005059D01*
X143388473Y-83983199D01*
X143382593Y-83946789D01*
X143380336Y-83930718D01*
X143371510Y-83881794D01*
X143357751Y-83853361D01*
X143333572Y-83839866D01*
X143293488Y-83835753D01*
X143286402Y-83835611D01*
X143247165Y-83837908D01*
X143208748Y-83847907D01*
X143162770Y-83868348D01*
X143125244Y-83888322D01*
X143085399Y-83913258D01*
X143038019Y-83947359D01*
X142987500Y-83986884D01*
X142938239Y-84028091D01*
X142894630Y-84067240D01*
X142861070Y-84100589D01*
X142841953Y-84124399D01*
X142839180Y-84131786D01*
X142831502Y-84147403D01*
X142812467Y-84173463D01*
X142806616Y-84180581D01*
X142785488Y-84209646D01*
X142774495Y-84232494D01*
X142774052Y-84235727D01*
X142765073Y-84253577D01*
X142742281Y-84280228D01*
X142727481Y-84294551D01*
X142707341Y-84314339D01*
X142689715Y-84336159D01*
X142672784Y-84363761D01*
X142654731Y-84400894D01*
X142633739Y-84451307D01*
X142607990Y-84518751D01*
X142575666Y-84606975D01*
X142574555Y-84610038D01*
X142548389Y-84681009D01*
X142521163Y-84752821D01*
X142496183Y-84816863D01*
X142477564Y-84862622D01*
X142427330Y-84991928D01*
X142388011Y-85115074D01*
X142360297Y-85228781D01*
X142344880Y-85329770D01*
X142342450Y-85414760D01*
X142349993Y-85467744D01*
X142352129Y-85496928D01*
X142349752Y-85541833D01*
X142343554Y-85591487D01*
X142336127Y-85639777D01*
X142330655Y-85679419D01*
X142328301Y-85701977D01*
X142328294Y-85702205D01*
X142145673Y-85702205D01*
X142126918Y-85613282D01*
X142113929Y-85539121D01*
X142115747Y-85501357D01*
X142134720Y-85475230D01*
X142154001Y-85447758D01*
X142161536Y-85406773D01*
X142161923Y-85390827D01*
X142165097Y-85330824D01*
X142173526Y-85257703D01*
X142185767Y-85179999D01*
X142200380Y-85106248D01*
X142215921Y-85044986D01*
X142224862Y-85018359D01*
X142240267Y-84972639D01*
X142256948Y-84913527D01*
X142271473Y-84853252D01*
X142272379Y-84849026D01*
X142292414Y-84758082D01*
X142309398Y-84689662D01*
X142324441Y-84640571D01*
X142338653Y-84607614D01*
X142353141Y-84587598D01*
X142366354Y-84578441D01*
X142393914Y-84552293D01*
X142411018Y-84511470D01*
X142423439Y-84466522D01*
X142435332Y-84424589D01*
X142437040Y-84418708D01*
X142450952Y-84387681D01*
X142475724Y-84346130D01*
X142502382Y-84307990D01*
X142534831Y-84263572D01*
X142574415Y-84207248D01*
X142614150Y-84149005D01*
X142626532Y-84130421D01*
X142662225Y-84079981D01*
X142702347Y-84028872D01*
X142742994Y-83981440D01*
X142780262Y-83942034D01*
X142810246Y-83914998D01*
X142829041Y-83904680D01*
X142829320Y-83904674D01*
X142842308Y-83896531D01*
X142870526Y-83874365D01*
X142909823Y-83841555D01*
X142956044Y-83801485D01*
X142956220Y-83801329D01*
X143073442Y-83697992D01*
X143199787Y-83704291D01*
X143199787Y-83704291D01*
G37*
X143199787Y-83704291D02*
X143307259Y-83715168D01*
X143392154Y-83736606D01*
X143456150Y-83769655D01*
X143500924Y-83815368D01*
X143528154Y-83874795D01*
X143536492Y-83915390D01*
X143546647Y-83976562D01*
X143557300Y-84012204D01*
X143568884Y-84022838D01*
X143581836Y-84008986D01*
X143592715Y-83982820D01*
X143608982Y-83953568D01*
X143634209Y-83943902D01*
X143639579Y-83943744D01*
X143665604Y-83949727D01*
X143672821Y-83969026D01*
X143680516Y-83996808D01*
X143700542Y-84003093D01*
X143725824Y-83988518D01*
X143747411Y-83972998D01*
X143757737Y-83976925D01*
X143757201Y-84001774D01*
X143746203Y-84049019D01*
X143744184Y-84056319D01*
X143720094Y-84142966D01*
X143701508Y-84211505D01*
X143686638Y-84268835D01*
X143673694Y-84321859D01*
X143660890Y-84377477D01*
X143660299Y-84380103D01*
X143630271Y-84503725D01*
X143596309Y-84622307D01*
X143556169Y-84744820D01*
X143535087Y-84811627D01*
X143514278Y-84886539D01*
X143498271Y-84953231D01*
X143483261Y-85012525D01*
X143464440Y-85070914D01*
X143445680Y-85116492D01*
X143444254Y-85119314D01*
X143426093Y-85158059D01*
X143414521Y-85189606D01*
X143412308Y-85201183D01*
X143405759Y-85227264D01*
X143394515Y-85250022D01*
X143386681Y-85268632D01*
X143376815Y-85303089D01*
X143364562Y-85355072D01*
X143349565Y-85426260D01*
X143331469Y-85518331D01*
X143309920Y-85632964D01*
X143287731Y-85754308D01*
X143276874Y-85809688D01*
X143265738Y-85859024D01*
X143256304Y-85893728D01*
X143254175Y-85899816D01*
X143245797Y-85933999D01*
X143245812Y-85958431D01*
X143254084Y-85966215D01*
X143269298Y-85952222D01*
X143289750Y-85919248D01*
X143313735Y-85870091D01*
X143339547Y-85807548D01*
X143342452Y-85799897D01*
X143362462Y-85751310D01*
X143382652Y-85709654D01*
X143398829Y-85683534D01*
X143399565Y-85682667D01*
X143421475Y-85649079D01*
X143431956Y-85624051D01*
X143442430Y-85595127D01*
X143459987Y-85552691D01*
X143477472Y-85513333D01*
X143503351Y-85456826D01*
X143531193Y-85395787D01*
X143546770Y-85361506D01*
X143565983Y-85321719D01*
X143582328Y-85292405D01*
X143591003Y-85281136D01*
X143600852Y-85266640D01*
X143617107Y-85234333D01*
X143636589Y-85190629D01*
X143640585Y-85181104D01*
X143667628Y-85123269D01*
X143696143Y-85081116D01*
X143733071Y-85044855D01*
X143742907Y-85036781D01*
X143779326Y-85009895D01*
X143809885Y-84991420D01*
X143825605Y-84985795D01*
X143850459Y-84991285D01*
X143890080Y-85005631D01*
X143936136Y-85025644D01*
X143959385Y-85036988D01*
X143973036Y-85056220D01*
X143984642Y-85095891D01*
X143989374Y-85123827D01*
X143997623Y-85174613D01*
X144007515Y-85221996D01*
X144013504Y-85244411D01*
X144019549Y-85282350D01*
X144021462Y-85341689D01*
X144019133Y-85418090D01*
X144018257Y-85433283D01*
X144014664Y-85495699D01*
X144013317Y-85535618D01*
X144014555Y-85556523D01*
X144018722Y-85561901D01*
X144026158Y-85555234D01*
X144029749Y-85550492D01*
X144050112Y-85516958D01*
X144074768Y-85468501D01*
X144099753Y-85413905D01*
X144121103Y-85361954D01*
X144134856Y-85321433D01*
X144136848Y-85313123D01*
X144150984Y-85275073D01*
X144169243Y-85247754D01*
X144187454Y-85224041D01*
X144193847Y-85208698D01*
X144203828Y-85195059D01*
X144229595Y-85173076D01*
X144255024Y-85154762D01*
X144313600Y-85125339D01*
X144368224Y-85120547D01*
X144422992Y-85140239D01*
X144436199Y-85148320D01*
X144448543Y-85157294D01*
X144457439Y-85168112D01*
X144463111Y-85184421D01*
X144465786Y-85209869D01*
X144465690Y-85248104D01*
X144463050Y-85302774D01*
X144458090Y-85377526D01*
X144453977Y-85435179D01*
X144446698Y-85536498D01*
X144441204Y-85614795D01*
X144437445Y-85673036D01*
X144435368Y-85714185D01*
X144434924Y-85741208D01*
X144436059Y-85757069D01*
X144438723Y-85764734D01*
X144442865Y-85767167D01*
X144448224Y-85767333D01*
X144466010Y-85756543D01*
X144473472Y-85742625D01*
X144486872Y-85718591D01*
X144511655Y-85686460D01*
X144524618Y-85672001D01*
X144557559Y-85632312D01*
X144591306Y-85584473D01*
X144604454Y-85563196D01*
X144630388Y-85522454D01*
X144656436Y-85487584D01*
X144668685Y-85474153D01*
X144685677Y-85453377D01*
X144712357Y-85415252D01*
X144734467Y-85381447D01*
X144965534Y-85381447D01*
X144982828Y-85408198D01*
X145016636Y-85428477D01*
X145049655Y-85423740D01*
X145078550Y-85394896D01*
X145086813Y-85379820D01*
X145106027Y-85325800D01*
X145115266Y-85270216D01*
X145113874Y-85221409D01*
X145101835Y-85188544D01*
X145089816Y-85175216D01*
X145080147Y-85176880D01*
X145068120Y-85196953D01*
X145056981Y-85221108D01*
X145033570Y-85263573D01*
X145005941Y-85300899D01*
X144996693Y-85310450D01*
X144968195Y-85347189D01*
X144965534Y-85381447D01*
X144734467Y-85381447D01*
X144745276Y-85364922D01*
X144780982Y-85307534D01*
X144786563Y-85298307D01*
X144837007Y-85217627D01*
X144879863Y-85156727D01*
X144918449Y-85111724D01*
X144956078Y-85078738D01*
X144994687Y-85054610D01*
X145037535Y-85039562D01*
X145081043Y-85036012D01*
X145115168Y-85044313D01*
X145123057Y-85050103D01*
X145149131Y-85064593D01*
X145171812Y-85053873D01*
X145189836Y-85018696D01*
X145192825Y-85008590D01*
X145219721Y-84919905D01*
X145251434Y-84832605D01*
X145284407Y-84756009D01*
X145303481Y-84718769D01*
X145326355Y-84676145D01*
X145357672Y-84615388D01*
X145394748Y-84541923D01*
X145434899Y-84461172D01*
X145475442Y-84378559D01*
X145513692Y-84299507D01*
X145546965Y-84229439D01*
X145566162Y-84187974D01*
X145589037Y-84142094D01*
X145610226Y-84107115D01*
X145626211Y-84088594D01*
X145630071Y-84087026D01*
X145652092Y-84094966D01*
X145683257Y-84114790D01*
X145716053Y-84140503D01*
X145742968Y-84166110D01*
X145756488Y-84185616D01*
X145756924Y-84188250D01*
X145753616Y-84214512D01*
X145745315Y-84255341D01*
X145734449Y-84300335D01*
X145723449Y-84339091D01*
X145718193Y-84354051D01*
X145708329Y-84382569D01*
X145696114Y-84423038D01*
X145691799Y-84438490D01*
X145676105Y-84486221D01*
X145654733Y-84539622D01*
X145644775Y-84561415D01*
X145627253Y-84601206D01*
X145615870Y-84633699D01*
X145613445Y-84646310D01*
X145608933Y-84672537D01*
X145598209Y-84709120D01*
X145584989Y-84745122D01*
X145572988Y-84769608D01*
X145570466Y-84772799D01*
X145563349Y-84791711D01*
X145561539Y-84811351D01*
X145556399Y-84838065D01*
X145548513Y-84849026D01*
X145539618Y-84866390D01*
X145535519Y-84897795D01*
X145535488Y-84900841D01*
X145529708Y-84944258D01*
X145517132Y-84981483D01*
X145503830Y-85012558D01*
X145486606Y-85058571D01*
X145469195Y-85109538D01*
X145448960Y-85165183D01*
X145421627Y-85231578D01*
X145392308Y-85296459D01*
X145385055Y-85311436D01*
X145356003Y-85370873D01*
X145335797Y-85414258D01*
X145321571Y-85448807D01*
X145310459Y-85481738D01*
X145299596Y-85520269D01*
X145294541Y-85539385D01*
X145286375Y-85577316D01*
X145277664Y-85628837D01*
X145269082Y-85688254D01*
X145261304Y-85749876D01*
X145255003Y-85808012D01*
X145250852Y-85856968D01*
X145249527Y-85891055D01*
X145251332Y-85904340D01*
X145269830Y-85905323D01*
X145300362Y-85883986D01*
X145342440Y-85840852D01*
X145395577Y-85776445D01*
X145459283Y-85691290D01*
X145489898Y-85648292D01*
X145526705Y-85597218D01*
X145569406Y-85539811D01*
X145601820Y-85497462D01*
X145635969Y-85449087D01*
X145666510Y-85397950D01*
X145685638Y-85357908D01*
X145708527Y-85312697D01*
X145739234Y-85283023D01*
X145782248Y-85266970D01*
X145842062Y-85262620D01*
X145901099Y-85265925D01*
X145972828Y-85268678D01*
X146023852Y-85261583D01*
X146057933Y-85243747D01*
X146073443Y-85224867D01*
X146104606Y-85195099D01*
X146149823Y-85178309D01*
X146198925Y-85177892D01*
X146207977Y-85179978D01*
X146257669Y-85203436D01*
X146285011Y-85238316D01*
X146289346Y-85281619D01*
X146270018Y-85330343D01*
X146247404Y-85360244D01*
X146206428Y-85424537D01*
X146184304Y-85500406D01*
X146183325Y-85576828D01*
X146189999Y-85627298D01*
X146253755Y-85619746D01*
X146305532Y-85607676D01*
X146359417Y-85585545D01*
X146408785Y-85557236D01*
X146447013Y-85526635D01*
X146467479Y-85497623D01*
X146468575Y-85493795D01*
X146494072Y-85395851D01*
X146526262Y-85298477D01*
X146562823Y-85207161D01*
X146601438Y-85127390D01*
X146639785Y-85064652D01*
X146661299Y-85037897D01*
X146687483Y-85005791D01*
X146706662Y-84976026D01*
X146723612Y-84954135D01*
X146747149Y-84948475D01*
X146782689Y-84958888D01*
X146812329Y-84972937D01*
X146856062Y-84999602D01*
X146883569Y-85029833D01*
X146897634Y-85069754D01*
X146901041Y-85125490D01*
X146899416Y-85164524D01*
X146892541Y-85230760D01*
X146879065Y-85284692D01*
X146855432Y-85339888D01*
X146851287Y-85348142D01*
X146831717Y-85389650D01*
X146819467Y-85421717D01*
X146816979Y-85437871D01*
X146817279Y-85438287D01*
X146827975Y-85438464D01*
X146847269Y-85424406D01*
X146876444Y-85394703D01*
X146916782Y-85347944D01*
X146969564Y-85282720D01*
X147036073Y-85197620D01*
X147036306Y-85197319D01*
X147095473Y-85122215D01*
X147142255Y-85066788D01*
X147178912Y-85029172D01*
X147207704Y-85007497D01*
X147230892Y-84999896D01*
X147250735Y-85004502D01*
X147261050Y-85011568D01*
X147281246Y-85037421D01*
X147287810Y-85052099D01*
X147302424Y-85072588D01*
X147314365Y-85076974D01*
X147328671Y-85079996D01*
X147330269Y-85091773D01*
X147318067Y-85116374D01*
X147293712Y-85153832D01*
X147271679Y-85189465D01*
X147257604Y-85218215D01*
X147254872Y-85228693D01*
X147249175Y-85246911D01*
X147233757Y-85282577D01*
X147211131Y-85330140D01*
X147189886Y-85372329D01*
X147163985Y-85423669D01*
X147143806Y-85465763D01*
X147131619Y-85493731D01*
X147129198Y-85502719D01*
X147140774Y-85497456D01*
X147167745Y-85479669D01*
X147204944Y-85452828D01*
X147216979Y-85443792D01*
X147304802Y-85367600D01*
X147384872Y-85279842D01*
X147448983Y-85189610D01*
X147453980Y-85181179D01*
X147479176Y-85144235D01*
X147516204Y-85097531D01*
X147558260Y-85049509D01*
X147571112Y-85035824D01*
X147610901Y-84995010D01*
X147638371Y-84970108D01*
X147658855Y-84957872D01*
X147677685Y-84955054D01*
X147698743Y-84958113D01*
X147735578Y-84972831D01*
X147762867Y-85003964D01*
X147769180Y-85014969D01*
X147795026Y-85062798D01*
X147757306Y-85134895D01*
X147732235Y-85176843D01*
X147706231Y-85211083D01*
X147689585Y-85226650D01*
X147661273Y-85251415D01*
X147645641Y-85272359D01*
X147638022Y-85293209D01*
X147644932Y-85297860D01*
X147663054Y-85289091D01*
X147689070Y-85269679D01*
X147719665Y-85242406D01*
X147751520Y-85210048D01*
X147781319Y-85175386D01*
X147805745Y-85141198D01*
X147809399Y-85135166D01*
X147846090Y-85086456D01*
X147886956Y-85061848D01*
X147936155Y-85059394D01*
X147960181Y-85064467D01*
X147988647Y-85070635D01*
X148012977Y-85069988D01*
X148041092Y-85060592D01*
X148080914Y-85040517D01*
X148099129Y-85030585D01*
X148148793Y-85001376D01*
X148195406Y-84970730D01*
X148228906Y-84945264D01*
X148228992Y-84945189D01*
X148273009Y-84915321D01*
X148309199Y-84907933D01*
X148335038Y-84922379D01*
X148347999Y-84958017D01*
X148349026Y-84975816D01*
X148339737Y-85006376D01*
X148315713Y-85045654D01*
X148282719Y-85086294D01*
X148246520Y-85120939D01*
X148222026Y-85137869D01*
X148194447Y-85155118D01*
X148180219Y-85168210D01*
X148179693Y-85169887D01*
X148168813Y-85179454D01*
X148140549Y-85196065D01*
X148101465Y-85216511D01*
X148058126Y-85237581D01*
X148017096Y-85256066D01*
X147984939Y-85268756D01*
X147969682Y-85272587D01*
X147951839Y-85281083D01*
X147921714Y-85303233D01*
X147885571Y-85334394D01*
X147882662Y-85337086D01*
X147834901Y-85380283D01*
X147782215Y-85426097D01*
X147745893Y-85456476D01*
X147700744Y-85495295D01*
X147649467Y-85542413D01*
X147606749Y-85584059D01*
X147570967Y-85617912D01*
X147540605Y-85642254D01*
X147521199Y-85652750D01*
X147518974Y-85652776D01*
X147495336Y-85655512D01*
X147475582Y-85663517D01*
X147440804Y-85670280D01*
X147411011Y-85655142D01*
X147390961Y-85622251D01*
X147385129Y-85584674D01*
X147383713Y-85556523D01*
X147378189Y-85538579D01*
X147366639Y-85531962D01*
X147347147Y-85537790D01*
X147317794Y-85557183D01*
X147276665Y-85591257D01*
X147221843Y-85641133D01*
X147151410Y-85707928D01*
X147116687Y-85741321D01*
X147086999Y-85765602D01*
X147061563Y-85779263D01*
X147055584Y-85780359D01*
X147032621Y-85787625D01*
X147026924Y-85793385D01*
X147007213Y-85804205D01*
X146975787Y-85805524D01*
X146944898Y-85798056D01*
X146929952Y-85787740D01*
X146921563Y-85764206D01*
X146920308Y-85720572D01*
X146923527Y-85677022D01*
X146926934Y-85622716D01*
X146923603Y-85592534D01*
X146912940Y-85585281D01*
X146894352Y-85599767D01*
X146888493Y-85606531D01*
X146863987Y-85627411D01*
X146831539Y-85646388D01*
X146773839Y-85675446D01*
X146737422Y-85699032D01*
X146718711Y-85719464D01*
X146718658Y-85719559D01*
X146700146Y-85732466D01*
X146664884Y-85743699D01*
X146641734Y-85747923D01*
X146599716Y-85751896D01*
X146572892Y-85747875D01*
X146551092Y-85733822D01*
X146545331Y-85728591D01*
X146522508Y-85710156D01*
X146503194Y-85708294D01*
X146476398Y-85720159D01*
X146443867Y-85739607D01*
X146402526Y-85767712D01*
X146377263Y-85786309D01*
X146341193Y-85811436D01*
X146311091Y-85828198D01*
X146297375Y-85832462D01*
X146280105Y-85838978D01*
X146277949Y-85844452D01*
X146266493Y-85858187D01*
X146236802Y-85865101D01*
X146195886Y-85864791D01*
X146150761Y-85856852D01*
X146136516Y-85852614D01*
X146071740Y-85820524D01*
X146025439Y-85772806D01*
X145997170Y-85708389D01*
X145986490Y-85626206D01*
X145992954Y-85525185D01*
X145994932Y-85511271D01*
X146004991Y-85444080D01*
X145953574Y-85435393D01*
X145907897Y-85433754D01*
X145871319Y-85443474D01*
X145850528Y-85462182D01*
X145848103Y-85472783D01*
X145839908Y-85492678D01*
X145819513Y-85521010D01*
X145812283Y-85529314D01*
X145788288Y-85559330D01*
X145757033Y-85603326D01*
X145724478Y-85652836D01*
X145717847Y-85663444D01*
X145678492Y-85722001D01*
X145631356Y-85784926D01*
X145586555Y-85838721D01*
X145586008Y-85839328D01*
X145548466Y-85882566D01*
X145515226Y-85923737D01*
X145492418Y-85955185D01*
X145489539Y-85959817D01*
X145464049Y-85990904D01*
X145427150Y-86022978D01*
X145411301Y-86033930D01*
X145369379Y-86063680D01*
X145330276Y-86096545D01*
X145319718Y-86106883D01*
X145298076Y-86131063D01*
X145293998Y-86142211D01*
X145305993Y-86145065D01*
X145307707Y-86145077D01*
X145323804Y-86148470D01*
X145317209Y-86160156D01*
X145298862Y-86168474D01*
X145283904Y-86160108D01*
X145257713Y-86151332D01*
X145226541Y-86152810D01*
X145173244Y-86151370D01*
X145126182Y-86125202D01*
X145086566Y-86075141D01*
X145072121Y-86046470D01*
X145054535Y-86008872D01*
X145040705Y-85983221D01*
X145034623Y-85975744D01*
X145024500Y-85985769D01*
X145013405Y-86003770D01*
X145004799Y-86023522D01*
X145011910Y-86026283D01*
X145019459Y-86023717D01*
X145035867Y-86019148D01*
X145038795Y-86026775D01*
X145029091Y-86051631D01*
X145025501Y-86059570D01*
X145013378Y-86081285D01*
X145003160Y-86081088D01*
X144995311Y-86071763D01*
X144983782Y-86061261D01*
X144970563Y-86066340D01*
X144949624Y-86089796D01*
X144945671Y-86094785D01*
X144918816Y-86128281D01*
X144895390Y-86156505D01*
X144891194Y-86161359D01*
X144875044Y-86189088D01*
X144871180Y-86206862D01*
X144878081Y-86212249D01*
X144898993Y-86196482D01*
X144929591Y-86164529D01*
X144958635Y-86133981D01*
X144979615Y-86115333D01*
X144988182Y-86112427D01*
X144988206Y-86112745D01*
X144979723Y-86137179D01*
X144958002Y-86170637D01*
X144929437Y-86205017D01*
X144900419Y-86232218D01*
X144887088Y-86240928D01*
X144845635Y-86252553D01*
X144791241Y-86255940D01*
X144734799Y-86251564D01*
X144687198Y-86239902D01*
X144670036Y-86231435D01*
X144629888Y-86190934D01*
X144600840Y-86132641D01*
X144585937Y-86063536D01*
X144584616Y-86035647D01*
X144582758Y-85994976D01*
X144577978Y-85966096D01*
X144573583Y-85957437D01*
X144558692Y-85961704D01*
X144534510Y-85980552D01*
X144524737Y-85990200D01*
X144501850Y-86015831D01*
X144495749Y-86030798D01*
X144504462Y-86042509D01*
X144509718Y-86046532D01*
X144529569Y-86065150D01*
X144525805Y-86075800D01*
X144497547Y-86079821D01*
X144487771Y-86079949D01*
X144447064Y-86083325D01*
X144412874Y-86091312D01*
X144377276Y-86096108D01*
X144354093Y-86091984D01*
X144327188Y-86071464D01*
X144302496Y-86036528D01*
X144287070Y-85998355D01*
X144285026Y-85982485D01*
X144279856Y-85957873D01*
X144270652Y-85932568D01*
X144795346Y-85932568D01*
X144800386Y-85959358D01*
X144813735Y-85962038D01*
X144834846Y-85941925D01*
X144852247Y-85922106D01*
X144881321Y-85890618D01*
X144913725Y-85856426D01*
X144950406Y-85814174D01*
X144986644Y-85765680D01*
X145018472Y-85717092D01*
X145041921Y-85674555D01*
X145053025Y-85644216D01*
X145053417Y-85640011D01*
X145042728Y-85623193D01*
X145023497Y-85611985D01*
X144993986Y-85596135D01*
X144959013Y-85571389D01*
X144951664Y-85565397D01*
X144921825Y-85544928D01*
X144897753Y-85536275D01*
X144892626Y-85536850D01*
X144873972Y-85554625D01*
X144852966Y-85590279D01*
X144832745Y-85636223D01*
X144816444Y-85684870D01*
X144807198Y-85728631D01*
X144806194Y-85746002D01*
X144805343Y-85789497D01*
X144801887Y-85844289D01*
X144798397Y-85881308D01*
X144795346Y-85932568D01*
X144270652Y-85932568D01*
X144267033Y-85922621D01*
X144263024Y-85913453D01*
X144248713Y-85879717D01*
X144240290Y-85855611D01*
X144239542Y-85852000D01*
X144234678Y-85832165D01*
X144224410Y-85798953D01*
X144220989Y-85788709D01*
X144211802Y-85752387D01*
X144211248Y-85715378D01*
X144219262Y-85666178D01*
X144220280Y-85661327D01*
X144230695Y-85619284D01*
X144241091Y-85588561D01*
X144247810Y-85577311D01*
X144256818Y-85560163D01*
X144258975Y-85542234D01*
X144257879Y-85522929D01*
X144250462Y-85523979D01*
X144235157Y-85539746D01*
X144218568Y-85564336D01*
X144197301Y-85604896D01*
X144175759Y-85652981D01*
X144174271Y-85656615D01*
X144149997Y-85712664D01*
X144119074Y-85779034D01*
X144087372Y-85843203D01*
X144080858Y-85855815D01*
X144056231Y-85904383D01*
X144037064Y-85944757D01*
X144026084Y-85971068D01*
X144024513Y-85977211D01*
X144016145Y-86002285D01*
X143995187Y-86035215D01*
X143967864Y-86068482D01*
X143940398Y-86094566D01*
X143919012Y-86105948D01*
X143917937Y-86106000D01*
X143883953Y-86101946D01*
X143842920Y-86091804D01*
X143804548Y-86078607D01*
X143778547Y-86065386D01*
X143773969Y-86061044D01*
X143767987Y-86038032D01*
X143765389Y-85994736D01*
X143766018Y-85936683D01*
X143769718Y-85869399D01*
X143776332Y-85798410D01*
X143782855Y-85747795D01*
X143790622Y-85691841D01*
X143793900Y-85655800D01*
X143792411Y-85633874D01*
X143785877Y-85620266D01*
X143776288Y-85611026D01*
X143764406Y-85598318D01*
X143758727Y-85580867D01*
X143758612Y-85552108D01*
X143763422Y-85505474D01*
X143764872Y-85493795D01*
X143772641Y-85436703D01*
X143781124Y-85381500D01*
X143788370Y-85340744D01*
X143793648Y-85303756D01*
X143789618Y-85287226D01*
X143784113Y-85285385D01*
X143770603Y-85296236D01*
X143749146Y-85325114D01*
X143722952Y-85366502D01*
X143695229Y-85414883D01*
X143669184Y-85464741D01*
X143648027Y-85510560D01*
X143638145Y-85536365D01*
X143624639Y-85571308D01*
X143602834Y-85621842D01*
X143576122Y-85680280D01*
X143556334Y-85721744D01*
X143529546Y-85777972D01*
X143506486Y-85828527D01*
X143489998Y-85867047D01*
X143483552Y-85884564D01*
X143472497Y-85911593D01*
X143452113Y-85952538D01*
X143426586Y-85999044D01*
X143423686Y-86004067D01*
X143399677Y-86046584D01*
X143381865Y-86080311D01*
X143373489Y-86099061D01*
X143373231Y-86100461D01*
X143367908Y-86116400D01*
X143354109Y-86148035D01*
X143339139Y-86179599D01*
X143312288Y-86225774D01*
X143289052Y-86247577D01*
X143281609Y-86249282D01*
X143259378Y-86256047D01*
X143253459Y-86263420D01*
X143239384Y-86266975D01*
X143205810Y-86257596D01*
X143176613Y-86245656D01*
X143133421Y-86224173D01*
X143124204Y-86216718D01*
X143269026Y-86216718D01*
X143275539Y-86223231D01*
X143282052Y-86216718D01*
X143275539Y-86210205D01*
X143269026Y-86216718D01*
X143124204Y-86216718D01*
X143108398Y-86203934D01*
X143094711Y-86178873D01*
X143092122Y-86170668D01*
X143079850Y-86140186D01*
X143066385Y-86123262D01*
X143065085Y-86122686D01*
X143049224Y-86128621D01*
X143020255Y-86148740D01*
X142983747Y-86179060D01*
X142974101Y-86187762D01*
X142890445Y-86254680D01*
X142810112Y-86297716D01*
X142729660Y-86318147D01*
X142645648Y-86317249D01*
X142630770Y-86315068D01*
X142529684Y-86285793D01*
X142434096Y-86233816D01*
X142349430Y-86162487D01*
X142310084Y-86117002D01*
X142281514Y-86075616D01*
X142253928Y-86028475D01*
X142230118Y-85981428D01*
X142212878Y-85940325D01*
X142205002Y-85911016D01*
X142206702Y-85900495D01*
X142204961Y-85886643D01*
X142194717Y-85856990D01*
X142185390Y-85834522D01*
X142166039Y-85779851D01*
X142146130Y-85704376D01*
X142145673Y-85702205D01*
X142328294Y-85702205D01*
X142333698Y-85764972D01*
X142351231Y-85835073D01*
X142377805Y-85904892D01*
X142410331Y-85966813D01*
X142445722Y-86013218D01*
X142459222Y-86025156D01*
X142497251Y-86056217D01*
X142533214Y-86089471D01*
X142561691Y-86119464D01*
X142577262Y-86140738D01*
X142578667Y-86145382D01*
X142589438Y-86157212D01*
X142615432Y-86172657D01*
X142647169Y-86187058D01*
X142675169Y-86195756D01*
X142682872Y-86196597D01*
X142706246Y-86191459D01*
X142741536Y-86178556D01*
X142755309Y-86172581D01*
X142797320Y-86147742D01*
X142839038Y-86113724D01*
X142874584Y-86076497D01*
X142898075Y-86042034D01*
X142904250Y-86021333D01*
X142910065Y-85995343D01*
X142924785Y-85957003D01*
X142936927Y-85931203D01*
X142955062Y-85892708D01*
X142966863Y-85862384D01*
X142969436Y-85851067D01*
X142974822Y-85834208D01*
X142989656Y-85798457D01*
X143011958Y-85748329D01*
X143039743Y-85688342D01*
X143054599Y-85657050D01*
X143085875Y-85589284D01*
X143113705Y-85524503D01*
X143135641Y-85468739D01*
X143149234Y-85428019D01*
X143151643Y-85418058D01*
X143163079Y-85372856D01*
X143180763Y-85317201D01*
X143197301Y-85272359D01*
X143211724Y-85235064D01*
X143225626Y-85196191D01*
X143240165Y-85151920D01*
X143256502Y-85098432D01*
X143275797Y-85031910D01*
X143299209Y-84948533D01*
X143327899Y-84844483D01*
X143333792Y-84822974D01*
X143367040Y-84701772D01*
X143394315Y-84602916D01*
X143416416Y-84523596D01*
X143434143Y-84461002D01*
X143448295Y-84412326D01*
X143459672Y-84374758D01*
X143469074Y-84345488D01*
X143472791Y-84334513D01*
X143488317Y-84286088D01*
X143504756Y-84229847D01*
X143511686Y-84204256D01*
X143523305Y-84160408D01*
X143533156Y-84124381D01*
X143537353Y-84109820D01*
X143535607Y-84090626D01*
X143523645Y-84087026D01*
X143499268Y-84079949D01*
X143465157Y-84062419D01*
X143430150Y-84039987D01*
X143403086Y-84018204D01*
X143393120Y-84005059D01*
X143388473Y-83983199D01*
X143382593Y-83946789D01*
X143380336Y-83930718D01*
X143371510Y-83881794D01*
X143357751Y-83853361D01*
X143333572Y-83839866D01*
X143293488Y-83835753D01*
X143286402Y-83835611D01*
X143247165Y-83837908D01*
X143208748Y-83847907D01*
X143162770Y-83868348D01*
X143125244Y-83888322D01*
X143085399Y-83913258D01*
X143038019Y-83947359D01*
X142987500Y-83986884D01*
X142938239Y-84028091D01*
X142894630Y-84067240D01*
X142861070Y-84100589D01*
X142841953Y-84124399D01*
X142839180Y-84131786D01*
X142831502Y-84147403D01*
X142812467Y-84173463D01*
X142806616Y-84180581D01*
X142785488Y-84209646D01*
X142774495Y-84232494D01*
X142774052Y-84235727D01*
X142765073Y-84253577D01*
X142742281Y-84280228D01*
X142727481Y-84294551D01*
X142707341Y-84314339D01*
X142689715Y-84336159D01*
X142672784Y-84363761D01*
X142654731Y-84400894D01*
X142633739Y-84451307D01*
X142607990Y-84518751D01*
X142575666Y-84606975D01*
X142574555Y-84610038D01*
X142548389Y-84681009D01*
X142521163Y-84752821D01*
X142496183Y-84816863D01*
X142477564Y-84862622D01*
X142427330Y-84991928D01*
X142388011Y-85115074D01*
X142360297Y-85228781D01*
X142344880Y-85329770D01*
X142342450Y-85414760D01*
X142349993Y-85467744D01*
X142352129Y-85496928D01*
X142349752Y-85541833D01*
X142343554Y-85591487D01*
X142336127Y-85639777D01*
X142330655Y-85679419D01*
X142328301Y-85701977D01*
X142328294Y-85702205D01*
X142145673Y-85702205D01*
X142126918Y-85613282D01*
X142113929Y-85539121D01*
X142115747Y-85501357D01*
X142134720Y-85475230D01*
X142154001Y-85447758D01*
X142161536Y-85406773D01*
X142161923Y-85390827D01*
X142165097Y-85330824D01*
X142173526Y-85257703D01*
X142185767Y-85179999D01*
X142200380Y-85106248D01*
X142215921Y-85044986D01*
X142224862Y-85018359D01*
X142240267Y-84972639D01*
X142256948Y-84913527D01*
X142271473Y-84853252D01*
X142272379Y-84849026D01*
X142292414Y-84758082D01*
X142309398Y-84689662D01*
X142324441Y-84640571D01*
X142338653Y-84607614D01*
X142353141Y-84587598D01*
X142366354Y-84578441D01*
X142393914Y-84552293D01*
X142411018Y-84511470D01*
X142423439Y-84466522D01*
X142435332Y-84424589D01*
X142437040Y-84418708D01*
X142450952Y-84387681D01*
X142475724Y-84346130D01*
X142502382Y-84307990D01*
X142534831Y-84263572D01*
X142574415Y-84207248D01*
X142614150Y-84149005D01*
X142626532Y-84130421D01*
X142662225Y-84079981D01*
X142702347Y-84028872D01*
X142742994Y-83981440D01*
X142780262Y-83942034D01*
X142810246Y-83914998D01*
X142829041Y-83904680D01*
X142829320Y-83904674D01*
X142842308Y-83896531D01*
X142870526Y-83874365D01*
X142909823Y-83841555D01*
X142956044Y-83801485D01*
X142956220Y-83801329D01*
X143073442Y-83697992D01*
X143199787Y-83704291D01*
G04 #@! TO.C,R1*
D13*
X150980380Y-100891666D02*
X150504190Y-101225000D01*
X150980380Y-101463095D02*
X149980380Y-101463095D01*
X149980380Y-101082142D01*
X150028000Y-100986904D01*
X150075619Y-100939285D01*
X150170857Y-100891666D01*
X150313714Y-100891666D01*
X150408952Y-100939285D01*
X150456571Y-100986904D01*
X150504190Y-101082142D01*
X150504190Y-101463095D01*
X150980380Y-99939285D02*
X150980380Y-100510714D01*
X150980380Y-100225000D02*
X149980380Y-100225000D01*
X150123238Y-100320238D01*
X150218476Y-100415476D01*
X150266095Y-100510714D01*
G04 #@! TO.C,C1*
X181048333Y-116087142D02*
X181000714Y-116134761D01*
X180857857Y-116182380D01*
X180762619Y-116182380D01*
X180619761Y-116134761D01*
X180524523Y-116039523D01*
X180476904Y-115944285D01*
X180429285Y-115753809D01*
X180429285Y-115610952D01*
X180476904Y-115420476D01*
X180524523Y-115325238D01*
X180619761Y-115230000D01*
X180762619Y-115182380D01*
X180857857Y-115182380D01*
X181000714Y-115230000D01*
X181048333Y-115277619D01*
X182000714Y-116182380D02*
X181429285Y-116182380D01*
X181715000Y-116182380D02*
X181715000Y-115182380D01*
X181619761Y-115325238D01*
X181524523Y-115420476D01*
X181429285Y-115468095D01*
G04 #@! TO.C,C2*
X184378333Y-113227142D02*
X184330714Y-113274761D01*
X184187857Y-113322380D01*
X184092619Y-113322380D01*
X183949761Y-113274761D01*
X183854523Y-113179523D01*
X183806904Y-113084285D01*
X183759285Y-112893809D01*
X183759285Y-112750952D01*
X183806904Y-112560476D01*
X183854523Y-112465238D01*
X183949761Y-112370000D01*
X184092619Y-112322380D01*
X184187857Y-112322380D01*
X184330714Y-112370000D01*
X184378333Y-112417619D01*
X184759285Y-112417619D02*
X184806904Y-112370000D01*
X184902142Y-112322380D01*
X185140238Y-112322380D01*
X185235476Y-112370000D01*
X185283095Y-112417619D01*
X185330714Y-112512857D01*
X185330714Y-112608095D01*
X185283095Y-112750952D01*
X184711666Y-113322380D01*
X185330714Y-113322380D01*
G04 #@! TO.C,JP1*
X193730666Y-74636380D02*
X193730666Y-75350666D01*
X193683047Y-75493523D01*
X193587809Y-75588761D01*
X193444952Y-75636380D01*
X193349714Y-75636380D01*
X194206857Y-75636380D02*
X194206857Y-74636380D01*
X194587809Y-74636380D01*
X194683047Y-74684000D01*
X194730666Y-74731619D01*
X194778285Y-74826857D01*
X194778285Y-74969714D01*
X194730666Y-75064952D01*
X194683047Y-75112571D01*
X194587809Y-75160190D01*
X194206857Y-75160190D01*
X195730666Y-75636380D02*
X195159238Y-75636380D01*
X195444952Y-75636380D02*
X195444952Y-74636380D01*
X195349714Y-74779238D01*
X195254476Y-74874476D01*
X195159238Y-74922095D01*
G04 #@! TO.C,JP2*
X163250666Y-116336380D02*
X163250666Y-117050666D01*
X163203047Y-117193523D01*
X163107809Y-117288761D01*
X162964952Y-117336380D01*
X162869714Y-117336380D01*
X163726857Y-117336380D02*
X163726857Y-116336380D01*
X164107809Y-116336380D01*
X164203047Y-116384000D01*
X164250666Y-116431619D01*
X164298285Y-116526857D01*
X164298285Y-116669714D01*
X164250666Y-116764952D01*
X164203047Y-116812571D01*
X164107809Y-116860190D01*
X163726857Y-116860190D01*
X164679238Y-116431619D02*
X164726857Y-116384000D01*
X164822095Y-116336380D01*
X165060190Y-116336380D01*
X165155428Y-116384000D01*
X165203047Y-116431619D01*
X165250666Y-116526857D01*
X165250666Y-116622095D01*
X165203047Y-116764952D01*
X164631619Y-117336380D01*
X165250666Y-117336380D01*
G04 #@! TO.C,JP3*
X171886666Y-103802380D02*
X171886666Y-104516666D01*
X171839047Y-104659523D01*
X171743809Y-104754761D01*
X171600952Y-104802380D01*
X171505714Y-104802380D01*
X172362857Y-104802380D02*
X172362857Y-103802380D01*
X172743809Y-103802380D01*
X172839047Y-103850000D01*
X172886666Y-103897619D01*
X172934285Y-103992857D01*
X172934285Y-104135714D01*
X172886666Y-104230952D01*
X172839047Y-104278571D01*
X172743809Y-104326190D01*
X172362857Y-104326190D01*
X173267619Y-103802380D02*
X173886666Y-103802380D01*
X173553333Y-104183333D01*
X173696190Y-104183333D01*
X173791428Y-104230952D01*
X173839047Y-104278571D01*
X173886666Y-104373809D01*
X173886666Y-104611904D01*
X173839047Y-104707142D01*
X173791428Y-104754761D01*
X173696190Y-104802380D01*
X173410476Y-104802380D01*
X173315238Y-104754761D01*
X173267619Y-104707142D01*
G04 #@! TO.C,U1*
X149522380Y-98551904D02*
X150331904Y-98551904D01*
X150427142Y-98504285D01*
X150474761Y-98456666D01*
X150522380Y-98361428D01*
X150522380Y-98170952D01*
X150474761Y-98075714D01*
X150427142Y-98028095D01*
X150331904Y-97980476D01*
X149522380Y-97980476D01*
X150522380Y-96980476D02*
X150522380Y-97551904D01*
X150522380Y-97266190D02*
X149522380Y-97266190D01*
X149665238Y-97361428D01*
X149760476Y-97456666D01*
X149808095Y-97551904D01*
G04 #@! TO.C,Y1*
X182503809Y-105671190D02*
X182503809Y-106147380D01*
X182170476Y-105147380D02*
X182503809Y-105671190D01*
X182837142Y-105147380D01*
X183694285Y-106147380D02*
X183122857Y-106147380D01*
X183408571Y-106147380D02*
X183408571Y-105147380D01*
X183313333Y-105290238D01*
X183218095Y-105385476D01*
X183122857Y-105433095D01*
G04 #@! TO.C,JP4*
X189920666Y-74636380D02*
X189920666Y-75350666D01*
X189873047Y-75493523D01*
X189777809Y-75588761D01*
X189634952Y-75636380D01*
X189539714Y-75636380D01*
X190396857Y-75636380D02*
X190396857Y-74636380D01*
X190777809Y-74636380D01*
X190873047Y-74684000D01*
X190920666Y-74731619D01*
X190968285Y-74826857D01*
X190968285Y-74969714D01*
X190920666Y-75064952D01*
X190873047Y-75112571D01*
X190777809Y-75160190D01*
X190396857Y-75160190D01*
X191825428Y-74969714D02*
X191825428Y-75636380D01*
X191587333Y-74588761D02*
X191349238Y-75303047D01*
X191968285Y-75303047D01*
G04 #@! TD*
M02*
