M48
;DRILL file {KiCad (5.0.2)-1} date 5/31/2020 8:37:25 PM
;FORMAT={-:-/ absolute / inch / decimal}
FMAT,2
INCH,TZ
T1C0.0157
T2C0.0315
T3C0.0394
%
G90
G05
T1
X6.58Y-4.46
T2
X5.9Y-2.8
X6.Y-2.8
X6.1Y-2.8
X6.2Y-2.8
X6.2598Y-4.7
X6.3Y-2.8
X6.3598Y-4.7
X6.4Y-2.8
X6.4598Y-4.7
X6.5Y-2.8
X6.5598Y-4.7
X6.6Y-2.8
X6.6598Y-4.7
X6.7Y-2.8
X6.7598Y-4.7
X6.8Y-2.8
X6.8598Y-4.7
X6.9598Y-2.8
X6.9598Y-4.7
X7.0598Y-2.8
X7.1598Y-2.8
X7.1598Y-4.7
X7.2598Y-2.8
X7.2598Y-4.7
X7.3598Y-2.8
X7.3598Y-4.7
X7.4598Y-2.8
X7.4598Y-4.7
X7.5598Y-2.8
X7.5598Y-4.7
X7.6598Y-2.8
X7.6598Y-4.7
X7.1079Y-4.3
X7.3Y-4.3
X6.Y-3.7
X6.Y-4.
X6.1Y-3.7
X6.1Y-4.
X6.2Y-3.7
X6.2Y-4.
X6.3Y-3.7
X6.3Y-4.
X6.4Y-3.7
X6.4Y-4.
X6.5Y-3.7
X6.5Y-4.
X6.6Y-3.7
X6.6Y-4.
X6.7Y-3.7
X6.7Y-4.
X6.8Y-3.7
X6.8Y-4.
X6.9Y-3.7
X6.9Y-4.
X7.Y-3.7
X7.Y-4.
X7.1Y-3.7
X7.1Y-4.
X7.2Y-3.7
X7.2Y-4.
X7.3Y-3.7
X7.3Y-4.
T3
X7.66Y-3.04
X7.66Y-3.14
X6.8Y-4.2
X6.8Y-4.3
X6.46Y-4.41
X6.46Y-4.51
X7.51Y-3.04
X7.51Y-3.14
T0
M30
