G04 #@! TF.GenerationSoftware,KiCad,Pcbnew,(5.0.2)-1*
G04 #@! TF.CreationDate,2020-05-31T20:37:23-05:00*
G04 #@! TF.ProjectId,ATMEGABootloader_Hardware,41544d45-4741-4426-9f6f-746c6f616465,rev?*
G04 #@! TF.SameCoordinates,Original*
G04 #@! TF.FileFunction,Soldermask,Bot*
G04 #@! TF.FilePolarity,Negative*
%FSLAX46Y46*%
G04 Gerber Fmt 4.6, Leading zero omitted, Abs format (unit mm)*
G04 Created by KiCad (PCBNEW (5.0.2)-1) date 5/31/2020 8:37:23 PM*
%MOMM*%
%LPD*%
G01*
G04 APERTURE LIST*
%ADD10C,0.100000*%
G04 APERTURE END LIST*
D10*
G36*
X194726821Y-118541313D02*
X194726824Y-118541314D01*
X194726825Y-118541314D01*
X194887239Y-118589975D01*
X194887241Y-118589976D01*
X194887244Y-118589977D01*
X195035078Y-118668995D01*
X195164659Y-118775341D01*
X195271005Y-118904922D01*
X195350023Y-119052756D01*
X195398687Y-119213179D01*
X195415117Y-119380000D01*
X195398687Y-119546821D01*
X195350023Y-119707244D01*
X195271005Y-119855078D01*
X195164659Y-119984659D01*
X195035078Y-120091005D01*
X194887244Y-120170023D01*
X194887241Y-120170024D01*
X194887239Y-120170025D01*
X194726825Y-120218686D01*
X194726824Y-120218686D01*
X194726821Y-120218687D01*
X194601804Y-120231000D01*
X194518196Y-120231000D01*
X194393179Y-120218687D01*
X194393176Y-120218686D01*
X194393175Y-120218686D01*
X194232761Y-120170025D01*
X194232759Y-120170024D01*
X194232756Y-120170023D01*
X194084922Y-120091005D01*
X193955341Y-119984659D01*
X193848995Y-119855078D01*
X193769977Y-119707244D01*
X193721313Y-119546821D01*
X193704883Y-119380000D01*
X193721313Y-119213179D01*
X193769977Y-119052756D01*
X193848995Y-118904922D01*
X193955341Y-118775341D01*
X194084922Y-118668995D01*
X194232756Y-118589977D01*
X194232759Y-118589976D01*
X194232761Y-118589975D01*
X194393175Y-118541314D01*
X194393176Y-118541314D01*
X194393179Y-118541313D01*
X194518196Y-118529000D01*
X194601804Y-118529000D01*
X194726821Y-118541313D01*
X194726821Y-118541313D01*
G37*
G36*
X192186821Y-118541313D02*
X192186824Y-118541314D01*
X192186825Y-118541314D01*
X192347239Y-118589975D01*
X192347241Y-118589976D01*
X192347244Y-118589977D01*
X192495078Y-118668995D01*
X192624659Y-118775341D01*
X192731005Y-118904922D01*
X192810023Y-119052756D01*
X192858687Y-119213179D01*
X192875117Y-119380000D01*
X192858687Y-119546821D01*
X192810023Y-119707244D01*
X192731005Y-119855078D01*
X192624659Y-119984659D01*
X192495078Y-120091005D01*
X192347244Y-120170023D01*
X192347241Y-120170024D01*
X192347239Y-120170025D01*
X192186825Y-120218686D01*
X192186824Y-120218686D01*
X192186821Y-120218687D01*
X192061804Y-120231000D01*
X191978196Y-120231000D01*
X191853179Y-120218687D01*
X191853176Y-120218686D01*
X191853175Y-120218686D01*
X191692761Y-120170025D01*
X191692759Y-120170024D01*
X191692756Y-120170023D01*
X191544922Y-120091005D01*
X191415341Y-119984659D01*
X191308995Y-119855078D01*
X191229977Y-119707244D01*
X191181313Y-119546821D01*
X191164883Y-119380000D01*
X191181313Y-119213179D01*
X191229977Y-119052756D01*
X191308995Y-118904922D01*
X191415341Y-118775341D01*
X191544922Y-118668995D01*
X191692756Y-118589977D01*
X191692759Y-118589976D01*
X191692761Y-118589975D01*
X191853175Y-118541314D01*
X191853176Y-118541314D01*
X191853179Y-118541313D01*
X191978196Y-118529000D01*
X192061804Y-118529000D01*
X192186821Y-118541313D01*
X192186821Y-118541313D01*
G37*
G36*
X189646821Y-118541313D02*
X189646824Y-118541314D01*
X189646825Y-118541314D01*
X189807239Y-118589975D01*
X189807241Y-118589976D01*
X189807244Y-118589977D01*
X189955078Y-118668995D01*
X190084659Y-118775341D01*
X190191005Y-118904922D01*
X190270023Y-119052756D01*
X190318687Y-119213179D01*
X190335117Y-119380000D01*
X190318687Y-119546821D01*
X190270023Y-119707244D01*
X190191005Y-119855078D01*
X190084659Y-119984659D01*
X189955078Y-120091005D01*
X189807244Y-120170023D01*
X189807241Y-120170024D01*
X189807239Y-120170025D01*
X189646825Y-120218686D01*
X189646824Y-120218686D01*
X189646821Y-120218687D01*
X189521804Y-120231000D01*
X189438196Y-120231000D01*
X189313179Y-120218687D01*
X189313176Y-120218686D01*
X189313175Y-120218686D01*
X189152761Y-120170025D01*
X189152759Y-120170024D01*
X189152756Y-120170023D01*
X189004922Y-120091005D01*
X188875341Y-119984659D01*
X188768995Y-119855078D01*
X188689977Y-119707244D01*
X188641313Y-119546821D01*
X188624883Y-119380000D01*
X188641313Y-119213179D01*
X188689977Y-119052756D01*
X188768995Y-118904922D01*
X188875341Y-118775341D01*
X189004922Y-118668995D01*
X189152756Y-118589977D01*
X189152759Y-118589976D01*
X189152761Y-118589975D01*
X189313175Y-118541314D01*
X189313176Y-118541314D01*
X189313179Y-118541313D01*
X189438196Y-118529000D01*
X189521804Y-118529000D01*
X189646821Y-118541313D01*
X189646821Y-118541313D01*
G37*
G36*
X187106821Y-118541313D02*
X187106824Y-118541314D01*
X187106825Y-118541314D01*
X187267239Y-118589975D01*
X187267241Y-118589976D01*
X187267244Y-118589977D01*
X187415078Y-118668995D01*
X187544659Y-118775341D01*
X187651005Y-118904922D01*
X187730023Y-119052756D01*
X187778687Y-119213179D01*
X187795117Y-119380000D01*
X187778687Y-119546821D01*
X187730023Y-119707244D01*
X187651005Y-119855078D01*
X187544659Y-119984659D01*
X187415078Y-120091005D01*
X187267244Y-120170023D01*
X187267241Y-120170024D01*
X187267239Y-120170025D01*
X187106825Y-120218686D01*
X187106824Y-120218686D01*
X187106821Y-120218687D01*
X186981804Y-120231000D01*
X186898196Y-120231000D01*
X186773179Y-120218687D01*
X186773176Y-120218686D01*
X186773175Y-120218686D01*
X186612761Y-120170025D01*
X186612759Y-120170024D01*
X186612756Y-120170023D01*
X186464922Y-120091005D01*
X186335341Y-119984659D01*
X186228995Y-119855078D01*
X186149977Y-119707244D01*
X186101313Y-119546821D01*
X186084883Y-119380000D01*
X186101313Y-119213179D01*
X186149977Y-119052756D01*
X186228995Y-118904922D01*
X186335341Y-118775341D01*
X186464922Y-118668995D01*
X186612756Y-118589977D01*
X186612759Y-118589976D01*
X186612761Y-118589975D01*
X186773175Y-118541314D01*
X186773176Y-118541314D01*
X186773179Y-118541313D01*
X186898196Y-118529000D01*
X186981804Y-118529000D01*
X187106821Y-118541313D01*
X187106821Y-118541313D01*
G37*
G36*
X184566821Y-118541313D02*
X184566824Y-118541314D01*
X184566825Y-118541314D01*
X184727239Y-118589975D01*
X184727241Y-118589976D01*
X184727244Y-118589977D01*
X184875078Y-118668995D01*
X185004659Y-118775341D01*
X185111005Y-118904922D01*
X185190023Y-119052756D01*
X185238687Y-119213179D01*
X185255117Y-119380000D01*
X185238687Y-119546821D01*
X185190023Y-119707244D01*
X185111005Y-119855078D01*
X185004659Y-119984659D01*
X184875078Y-120091005D01*
X184727244Y-120170023D01*
X184727241Y-120170024D01*
X184727239Y-120170025D01*
X184566825Y-120218686D01*
X184566824Y-120218686D01*
X184566821Y-120218687D01*
X184441804Y-120231000D01*
X184358196Y-120231000D01*
X184233179Y-120218687D01*
X184233176Y-120218686D01*
X184233175Y-120218686D01*
X184072761Y-120170025D01*
X184072759Y-120170024D01*
X184072756Y-120170023D01*
X183924922Y-120091005D01*
X183795341Y-119984659D01*
X183688995Y-119855078D01*
X183609977Y-119707244D01*
X183561313Y-119546821D01*
X183544883Y-119380000D01*
X183561313Y-119213179D01*
X183609977Y-119052756D01*
X183688995Y-118904922D01*
X183795341Y-118775341D01*
X183924922Y-118668995D01*
X184072756Y-118589977D01*
X184072759Y-118589976D01*
X184072761Y-118589975D01*
X184233175Y-118541314D01*
X184233176Y-118541314D01*
X184233179Y-118541313D01*
X184358196Y-118529000D01*
X184441804Y-118529000D01*
X184566821Y-118541313D01*
X184566821Y-118541313D01*
G37*
G36*
X182026821Y-118541313D02*
X182026824Y-118541314D01*
X182026825Y-118541314D01*
X182187239Y-118589975D01*
X182187241Y-118589976D01*
X182187244Y-118589977D01*
X182335078Y-118668995D01*
X182464659Y-118775341D01*
X182571005Y-118904922D01*
X182650023Y-119052756D01*
X182698687Y-119213179D01*
X182715117Y-119380000D01*
X182698687Y-119546821D01*
X182650023Y-119707244D01*
X182571005Y-119855078D01*
X182464659Y-119984659D01*
X182335078Y-120091005D01*
X182187244Y-120170023D01*
X182187241Y-120170024D01*
X182187239Y-120170025D01*
X182026825Y-120218686D01*
X182026824Y-120218686D01*
X182026821Y-120218687D01*
X181901804Y-120231000D01*
X181818196Y-120231000D01*
X181693179Y-120218687D01*
X181693176Y-120218686D01*
X181693175Y-120218686D01*
X181532761Y-120170025D01*
X181532759Y-120170024D01*
X181532756Y-120170023D01*
X181384922Y-120091005D01*
X181255341Y-119984659D01*
X181148995Y-119855078D01*
X181069977Y-119707244D01*
X181021313Y-119546821D01*
X181004883Y-119380000D01*
X181021313Y-119213179D01*
X181069977Y-119052756D01*
X181148995Y-118904922D01*
X181255341Y-118775341D01*
X181384922Y-118668995D01*
X181532756Y-118589977D01*
X181532759Y-118589976D01*
X181532761Y-118589975D01*
X181693175Y-118541314D01*
X181693176Y-118541314D01*
X181693179Y-118541313D01*
X181818196Y-118529000D01*
X181901804Y-118529000D01*
X182026821Y-118541313D01*
X182026821Y-118541313D01*
G37*
G36*
X176946821Y-118541313D02*
X176946824Y-118541314D01*
X176946825Y-118541314D01*
X177107239Y-118589975D01*
X177107241Y-118589976D01*
X177107244Y-118589977D01*
X177255078Y-118668995D01*
X177384659Y-118775341D01*
X177491005Y-118904922D01*
X177570023Y-119052756D01*
X177618687Y-119213179D01*
X177635117Y-119380000D01*
X177618687Y-119546821D01*
X177570023Y-119707244D01*
X177491005Y-119855078D01*
X177384659Y-119984659D01*
X177255078Y-120091005D01*
X177107244Y-120170023D01*
X177107241Y-120170024D01*
X177107239Y-120170025D01*
X176946825Y-120218686D01*
X176946824Y-120218686D01*
X176946821Y-120218687D01*
X176821804Y-120231000D01*
X176738196Y-120231000D01*
X176613179Y-120218687D01*
X176613176Y-120218686D01*
X176613175Y-120218686D01*
X176452761Y-120170025D01*
X176452759Y-120170024D01*
X176452756Y-120170023D01*
X176304922Y-120091005D01*
X176175341Y-119984659D01*
X176068995Y-119855078D01*
X175989977Y-119707244D01*
X175941313Y-119546821D01*
X175924883Y-119380000D01*
X175941313Y-119213179D01*
X175989977Y-119052756D01*
X176068995Y-118904922D01*
X176175341Y-118775341D01*
X176304922Y-118668995D01*
X176452756Y-118589977D01*
X176452759Y-118589976D01*
X176452761Y-118589975D01*
X176613175Y-118541314D01*
X176613176Y-118541314D01*
X176613179Y-118541313D01*
X176738196Y-118529000D01*
X176821804Y-118529000D01*
X176946821Y-118541313D01*
X176946821Y-118541313D01*
G37*
G36*
X174406821Y-118541313D02*
X174406824Y-118541314D01*
X174406825Y-118541314D01*
X174567239Y-118589975D01*
X174567241Y-118589976D01*
X174567244Y-118589977D01*
X174715078Y-118668995D01*
X174844659Y-118775341D01*
X174951005Y-118904922D01*
X175030023Y-119052756D01*
X175078687Y-119213179D01*
X175095117Y-119380000D01*
X175078687Y-119546821D01*
X175030023Y-119707244D01*
X174951005Y-119855078D01*
X174844659Y-119984659D01*
X174715078Y-120091005D01*
X174567244Y-120170023D01*
X174567241Y-120170024D01*
X174567239Y-120170025D01*
X174406825Y-120218686D01*
X174406824Y-120218686D01*
X174406821Y-120218687D01*
X174281804Y-120231000D01*
X174198196Y-120231000D01*
X174073179Y-120218687D01*
X174073176Y-120218686D01*
X174073175Y-120218686D01*
X173912761Y-120170025D01*
X173912759Y-120170024D01*
X173912756Y-120170023D01*
X173764922Y-120091005D01*
X173635341Y-119984659D01*
X173528995Y-119855078D01*
X173449977Y-119707244D01*
X173401313Y-119546821D01*
X173384883Y-119380000D01*
X173401313Y-119213179D01*
X173449977Y-119052756D01*
X173528995Y-118904922D01*
X173635341Y-118775341D01*
X173764922Y-118668995D01*
X173912756Y-118589977D01*
X173912759Y-118589976D01*
X173912761Y-118589975D01*
X174073175Y-118541314D01*
X174073176Y-118541314D01*
X174073179Y-118541313D01*
X174198196Y-118529000D01*
X174281804Y-118529000D01*
X174406821Y-118541313D01*
X174406821Y-118541313D01*
G37*
G36*
X169326821Y-118541313D02*
X169326824Y-118541314D01*
X169326825Y-118541314D01*
X169487239Y-118589975D01*
X169487241Y-118589976D01*
X169487244Y-118589977D01*
X169635078Y-118668995D01*
X169764659Y-118775341D01*
X169871005Y-118904922D01*
X169950023Y-119052756D01*
X169998687Y-119213179D01*
X170015117Y-119380000D01*
X169998687Y-119546821D01*
X169950023Y-119707244D01*
X169871005Y-119855078D01*
X169764659Y-119984659D01*
X169635078Y-120091005D01*
X169487244Y-120170023D01*
X169487241Y-120170024D01*
X169487239Y-120170025D01*
X169326825Y-120218686D01*
X169326824Y-120218686D01*
X169326821Y-120218687D01*
X169201804Y-120231000D01*
X169118196Y-120231000D01*
X168993179Y-120218687D01*
X168993176Y-120218686D01*
X168993175Y-120218686D01*
X168832761Y-120170025D01*
X168832759Y-120170024D01*
X168832756Y-120170023D01*
X168684922Y-120091005D01*
X168555341Y-119984659D01*
X168448995Y-119855078D01*
X168369977Y-119707244D01*
X168321313Y-119546821D01*
X168304883Y-119380000D01*
X168321313Y-119213179D01*
X168369977Y-119052756D01*
X168448995Y-118904922D01*
X168555341Y-118775341D01*
X168684922Y-118668995D01*
X168832756Y-118589977D01*
X168832759Y-118589976D01*
X168832761Y-118589975D01*
X168993175Y-118541314D01*
X168993176Y-118541314D01*
X168993179Y-118541313D01*
X169118196Y-118529000D01*
X169201804Y-118529000D01*
X169326821Y-118541313D01*
X169326821Y-118541313D01*
G37*
G36*
X166786821Y-118541313D02*
X166786824Y-118541314D01*
X166786825Y-118541314D01*
X166947239Y-118589975D01*
X166947241Y-118589976D01*
X166947244Y-118589977D01*
X167095078Y-118668995D01*
X167224659Y-118775341D01*
X167331005Y-118904922D01*
X167410023Y-119052756D01*
X167458687Y-119213179D01*
X167475117Y-119380000D01*
X167458687Y-119546821D01*
X167410023Y-119707244D01*
X167331005Y-119855078D01*
X167224659Y-119984659D01*
X167095078Y-120091005D01*
X166947244Y-120170023D01*
X166947241Y-120170024D01*
X166947239Y-120170025D01*
X166786825Y-120218686D01*
X166786824Y-120218686D01*
X166786821Y-120218687D01*
X166661804Y-120231000D01*
X166578196Y-120231000D01*
X166453179Y-120218687D01*
X166453176Y-120218686D01*
X166453175Y-120218686D01*
X166292761Y-120170025D01*
X166292759Y-120170024D01*
X166292756Y-120170023D01*
X166144922Y-120091005D01*
X166015341Y-119984659D01*
X165908995Y-119855078D01*
X165829977Y-119707244D01*
X165781313Y-119546821D01*
X165764883Y-119380000D01*
X165781313Y-119213179D01*
X165829977Y-119052756D01*
X165908995Y-118904922D01*
X166015341Y-118775341D01*
X166144922Y-118668995D01*
X166292756Y-118589977D01*
X166292759Y-118589976D01*
X166292761Y-118589975D01*
X166453175Y-118541314D01*
X166453176Y-118541314D01*
X166453179Y-118541313D01*
X166578196Y-118529000D01*
X166661804Y-118529000D01*
X166786821Y-118541313D01*
X166786821Y-118541313D01*
G37*
G36*
X164246821Y-118541313D02*
X164246824Y-118541314D01*
X164246825Y-118541314D01*
X164407239Y-118589975D01*
X164407241Y-118589976D01*
X164407244Y-118589977D01*
X164555078Y-118668995D01*
X164684659Y-118775341D01*
X164791005Y-118904922D01*
X164870023Y-119052756D01*
X164918687Y-119213179D01*
X164935117Y-119380000D01*
X164918687Y-119546821D01*
X164870023Y-119707244D01*
X164791005Y-119855078D01*
X164684659Y-119984659D01*
X164555078Y-120091005D01*
X164407244Y-120170023D01*
X164407241Y-120170024D01*
X164407239Y-120170025D01*
X164246825Y-120218686D01*
X164246824Y-120218686D01*
X164246821Y-120218687D01*
X164121804Y-120231000D01*
X164038196Y-120231000D01*
X163913179Y-120218687D01*
X163913176Y-120218686D01*
X163913175Y-120218686D01*
X163752761Y-120170025D01*
X163752759Y-120170024D01*
X163752756Y-120170023D01*
X163604922Y-120091005D01*
X163475341Y-119984659D01*
X163368995Y-119855078D01*
X163289977Y-119707244D01*
X163241313Y-119546821D01*
X163224883Y-119380000D01*
X163241313Y-119213179D01*
X163289977Y-119052756D01*
X163368995Y-118904922D01*
X163475341Y-118775341D01*
X163604922Y-118668995D01*
X163752756Y-118589977D01*
X163752759Y-118589976D01*
X163752761Y-118589975D01*
X163913175Y-118541314D01*
X163913176Y-118541314D01*
X163913179Y-118541313D01*
X164038196Y-118529000D01*
X164121804Y-118529000D01*
X164246821Y-118541313D01*
X164246821Y-118541313D01*
G37*
G36*
X161706821Y-118541313D02*
X161706824Y-118541314D01*
X161706825Y-118541314D01*
X161867239Y-118589975D01*
X161867241Y-118589976D01*
X161867244Y-118589977D01*
X162015078Y-118668995D01*
X162144659Y-118775341D01*
X162251005Y-118904922D01*
X162330023Y-119052756D01*
X162378687Y-119213179D01*
X162395117Y-119380000D01*
X162378687Y-119546821D01*
X162330023Y-119707244D01*
X162251005Y-119855078D01*
X162144659Y-119984659D01*
X162015078Y-120091005D01*
X161867244Y-120170023D01*
X161867241Y-120170024D01*
X161867239Y-120170025D01*
X161706825Y-120218686D01*
X161706824Y-120218686D01*
X161706821Y-120218687D01*
X161581804Y-120231000D01*
X161498196Y-120231000D01*
X161373179Y-120218687D01*
X161373176Y-120218686D01*
X161373175Y-120218686D01*
X161212761Y-120170025D01*
X161212759Y-120170024D01*
X161212756Y-120170023D01*
X161064922Y-120091005D01*
X160935341Y-119984659D01*
X160828995Y-119855078D01*
X160749977Y-119707244D01*
X160701313Y-119546821D01*
X160684883Y-119380000D01*
X160701313Y-119213179D01*
X160749977Y-119052756D01*
X160828995Y-118904922D01*
X160935341Y-118775341D01*
X161064922Y-118668995D01*
X161212756Y-118589977D01*
X161212759Y-118589976D01*
X161212761Y-118589975D01*
X161373175Y-118541314D01*
X161373176Y-118541314D01*
X161373179Y-118541313D01*
X161498196Y-118529000D01*
X161581804Y-118529000D01*
X161706821Y-118541313D01*
X161706821Y-118541313D01*
G37*
G36*
X159851000Y-120231000D02*
X158149000Y-120231000D01*
X158149000Y-118529000D01*
X159851000Y-118529000D01*
X159851000Y-120231000D01*
X159851000Y-120231000D01*
G37*
G36*
X171866821Y-118541313D02*
X171866824Y-118541314D01*
X171866825Y-118541314D01*
X172027239Y-118589975D01*
X172027241Y-118589976D01*
X172027244Y-118589977D01*
X172175078Y-118668995D01*
X172304659Y-118775341D01*
X172411005Y-118904922D01*
X172490023Y-119052756D01*
X172538687Y-119213179D01*
X172555117Y-119380000D01*
X172538687Y-119546821D01*
X172490023Y-119707244D01*
X172411005Y-119855078D01*
X172304659Y-119984659D01*
X172175078Y-120091005D01*
X172027244Y-120170023D01*
X172027241Y-120170024D01*
X172027239Y-120170025D01*
X171866825Y-120218686D01*
X171866824Y-120218686D01*
X171866821Y-120218687D01*
X171741804Y-120231000D01*
X171658196Y-120231000D01*
X171533179Y-120218687D01*
X171533176Y-120218686D01*
X171533175Y-120218686D01*
X171372761Y-120170025D01*
X171372759Y-120170024D01*
X171372756Y-120170023D01*
X171224922Y-120091005D01*
X171095341Y-119984659D01*
X170988995Y-119855078D01*
X170909977Y-119707244D01*
X170861313Y-119546821D01*
X170844883Y-119380000D01*
X170861313Y-119213179D01*
X170909977Y-119052756D01*
X170988995Y-118904922D01*
X171095341Y-118775341D01*
X171224922Y-118668995D01*
X171372756Y-118589977D01*
X171372759Y-118589976D01*
X171372761Y-118589975D01*
X171533175Y-118541314D01*
X171533176Y-118541314D01*
X171533179Y-118541313D01*
X171658196Y-118529000D01*
X171741804Y-118529000D01*
X171866821Y-118541313D01*
X171866821Y-118541313D01*
G37*
G36*
X164985000Y-115455000D02*
X163183000Y-115455000D01*
X163183000Y-113653000D01*
X164985000Y-113653000D01*
X164985000Y-115455000D01*
X164985000Y-115455000D01*
G37*
G36*
X164194443Y-111119519D02*
X164260627Y-111126037D01*
X164373853Y-111160384D01*
X164430467Y-111177557D01*
X164569087Y-111251652D01*
X164586991Y-111261222D01*
X164622729Y-111290552D01*
X164724186Y-111373814D01*
X164807448Y-111475271D01*
X164836778Y-111511009D01*
X164836779Y-111511011D01*
X164920443Y-111667533D01*
X164920443Y-111667534D01*
X164971963Y-111837373D01*
X164989359Y-112014000D01*
X164971963Y-112190627D01*
X164937616Y-112303853D01*
X164920443Y-112360467D01*
X164846348Y-112499087D01*
X164836778Y-112516991D01*
X164807448Y-112552729D01*
X164724186Y-112654186D01*
X164622729Y-112737448D01*
X164586991Y-112766778D01*
X164586989Y-112766779D01*
X164430467Y-112850443D01*
X164373853Y-112867616D01*
X164260627Y-112901963D01*
X164194442Y-112908482D01*
X164128260Y-112915000D01*
X164039740Y-112915000D01*
X163973558Y-112908482D01*
X163907373Y-112901963D01*
X163794147Y-112867616D01*
X163737533Y-112850443D01*
X163581011Y-112766779D01*
X163581009Y-112766778D01*
X163545271Y-112737448D01*
X163443814Y-112654186D01*
X163360552Y-112552729D01*
X163331222Y-112516991D01*
X163321652Y-112499087D01*
X163247557Y-112360467D01*
X163230384Y-112303853D01*
X163196037Y-112190627D01*
X163178641Y-112014000D01*
X163196037Y-111837373D01*
X163247557Y-111667534D01*
X163247557Y-111667533D01*
X163331221Y-111511011D01*
X163331222Y-111511009D01*
X163360552Y-111475271D01*
X163443814Y-111373814D01*
X163545271Y-111290552D01*
X163581009Y-111261222D01*
X163598913Y-111251652D01*
X163737533Y-111177557D01*
X163794147Y-111160384D01*
X163907373Y-111126037D01*
X163973557Y-111119519D01*
X164039740Y-111113000D01*
X164128260Y-111113000D01*
X164194443Y-111119519D01*
X164194443Y-111119519D01*
G37*
G36*
X172830443Y-108325519D02*
X172896627Y-108332037D01*
X173009853Y-108366384D01*
X173066467Y-108383557D01*
X173190363Y-108449782D01*
X173222991Y-108467222D01*
X173258729Y-108496552D01*
X173360186Y-108579814D01*
X173443448Y-108681271D01*
X173472778Y-108717009D01*
X173472779Y-108717011D01*
X173556443Y-108873533D01*
X173556443Y-108873534D01*
X173607963Y-109043373D01*
X173625359Y-109220000D01*
X173607963Y-109396627D01*
X173590667Y-109453643D01*
X173556443Y-109566467D01*
X173538831Y-109599416D01*
X173472778Y-109722991D01*
X173466524Y-109730611D01*
X173360186Y-109860186D01*
X173258729Y-109943448D01*
X173222991Y-109972778D01*
X173222989Y-109972779D01*
X173066467Y-110056443D01*
X173009853Y-110073616D01*
X172896627Y-110107963D01*
X172830443Y-110114481D01*
X172764260Y-110121000D01*
X172675740Y-110121000D01*
X172609557Y-110114481D01*
X172543373Y-110107963D01*
X172430147Y-110073616D01*
X172373533Y-110056443D01*
X172217011Y-109972779D01*
X172217009Y-109972778D01*
X172181271Y-109943448D01*
X172079814Y-109860186D01*
X171973476Y-109730611D01*
X171967222Y-109722991D01*
X171901169Y-109599416D01*
X171883557Y-109566467D01*
X171849333Y-109453643D01*
X171832037Y-109396627D01*
X171814641Y-109220000D01*
X171832037Y-109043373D01*
X171883557Y-108873534D01*
X171883557Y-108873533D01*
X171967221Y-108717011D01*
X171967222Y-108717009D01*
X171996552Y-108681271D01*
X172079814Y-108579814D01*
X172181271Y-108496552D01*
X172217009Y-108467222D01*
X172249637Y-108449782D01*
X172373533Y-108383557D01*
X172430147Y-108366384D01*
X172543373Y-108332037D01*
X172609557Y-108325519D01*
X172675740Y-108319000D01*
X172764260Y-108319000D01*
X172830443Y-108325519D01*
X172830443Y-108325519D01*
G37*
G36*
X185653643Y-108449781D02*
X185799415Y-108510162D01*
X185930611Y-108597824D01*
X186042176Y-108709389D01*
X186129838Y-108840585D01*
X186190219Y-108986357D01*
X186221000Y-109141107D01*
X186221000Y-109298893D01*
X186190219Y-109453643D01*
X186129838Y-109599415D01*
X186042176Y-109730611D01*
X185930611Y-109842176D01*
X185799415Y-109929838D01*
X185653643Y-109990219D01*
X185498893Y-110021000D01*
X185341107Y-110021000D01*
X185186357Y-109990219D01*
X185040585Y-109929838D01*
X184909389Y-109842176D01*
X184797824Y-109730611D01*
X184710162Y-109599415D01*
X184649781Y-109453643D01*
X184619000Y-109298893D01*
X184619000Y-109141107D01*
X184649781Y-108986357D01*
X184710162Y-108840585D01*
X184797824Y-108709389D01*
X184909389Y-108597824D01*
X185040585Y-108510162D01*
X185186357Y-108449781D01*
X185341107Y-108419000D01*
X185498893Y-108419000D01*
X185653643Y-108449781D01*
X185653643Y-108449781D01*
G37*
G36*
X180773643Y-108449781D02*
X180919415Y-108510162D01*
X181050611Y-108597824D01*
X181162176Y-108709389D01*
X181249838Y-108840585D01*
X181310219Y-108986357D01*
X181341000Y-109141107D01*
X181341000Y-109298893D01*
X181310219Y-109453643D01*
X181249838Y-109599415D01*
X181162176Y-109730611D01*
X181050611Y-109842176D01*
X180919415Y-109929838D01*
X180773643Y-109990219D01*
X180618893Y-110021000D01*
X180461107Y-110021000D01*
X180306357Y-109990219D01*
X180160585Y-109929838D01*
X180029389Y-109842176D01*
X179917824Y-109730611D01*
X179830162Y-109599415D01*
X179769781Y-109453643D01*
X179739000Y-109298893D01*
X179739000Y-109141107D01*
X179769781Y-108986357D01*
X179830162Y-108840585D01*
X179917824Y-108709389D01*
X180029389Y-108597824D01*
X180160585Y-108510162D01*
X180306357Y-108449781D01*
X180461107Y-108419000D01*
X180618893Y-108419000D01*
X180773643Y-108449781D01*
X180773643Y-108449781D01*
G37*
G36*
X173621000Y-107581000D02*
X171819000Y-107581000D01*
X171819000Y-105779000D01*
X173621000Y-105779000D01*
X173621000Y-107581000D01*
X173621000Y-107581000D01*
G37*
G36*
X172886821Y-100761313D02*
X172886824Y-100761314D01*
X172886825Y-100761314D01*
X173047239Y-100809975D01*
X173047241Y-100809976D01*
X173047244Y-100809977D01*
X173195078Y-100888995D01*
X173324659Y-100995341D01*
X173431005Y-101124922D01*
X173510023Y-101272756D01*
X173558687Y-101433179D01*
X173575117Y-101600000D01*
X173558687Y-101766821D01*
X173510023Y-101927244D01*
X173431005Y-102075078D01*
X173324659Y-102204659D01*
X173195078Y-102311005D01*
X173047244Y-102390023D01*
X173047241Y-102390024D01*
X173047239Y-102390025D01*
X172886825Y-102438686D01*
X172886824Y-102438686D01*
X172886821Y-102438687D01*
X172761804Y-102451000D01*
X172678196Y-102451000D01*
X172553179Y-102438687D01*
X172553176Y-102438686D01*
X172553175Y-102438686D01*
X172392761Y-102390025D01*
X172392759Y-102390024D01*
X172392756Y-102390023D01*
X172244922Y-102311005D01*
X172115341Y-102204659D01*
X172008995Y-102075078D01*
X171929977Y-101927244D01*
X171881313Y-101766821D01*
X171864883Y-101600000D01*
X171881313Y-101433179D01*
X171929977Y-101272756D01*
X172008995Y-101124922D01*
X172115341Y-100995341D01*
X172244922Y-100888995D01*
X172392756Y-100809977D01*
X172392759Y-100809976D01*
X172392761Y-100809975D01*
X172553175Y-100761314D01*
X172553176Y-100761314D01*
X172553179Y-100761313D01*
X172678196Y-100749000D01*
X172761804Y-100749000D01*
X172886821Y-100761313D01*
X172886821Y-100761313D01*
G37*
G36*
X153251000Y-102451000D02*
X151549000Y-102451000D01*
X151549000Y-100749000D01*
X153251000Y-100749000D01*
X153251000Y-102451000D01*
X153251000Y-102451000D01*
G37*
G36*
X155106821Y-100761313D02*
X155106824Y-100761314D01*
X155106825Y-100761314D01*
X155267239Y-100809975D01*
X155267241Y-100809976D01*
X155267244Y-100809977D01*
X155415078Y-100888995D01*
X155544659Y-100995341D01*
X155651005Y-101124922D01*
X155730023Y-101272756D01*
X155778687Y-101433179D01*
X155795117Y-101600000D01*
X155778687Y-101766821D01*
X155730023Y-101927244D01*
X155651005Y-102075078D01*
X155544659Y-102204659D01*
X155415078Y-102311005D01*
X155267244Y-102390023D01*
X155267241Y-102390024D01*
X155267239Y-102390025D01*
X155106825Y-102438686D01*
X155106824Y-102438686D01*
X155106821Y-102438687D01*
X154981804Y-102451000D01*
X154898196Y-102451000D01*
X154773179Y-102438687D01*
X154773176Y-102438686D01*
X154773175Y-102438686D01*
X154612761Y-102390025D01*
X154612759Y-102390024D01*
X154612756Y-102390023D01*
X154464922Y-102311005D01*
X154335341Y-102204659D01*
X154228995Y-102075078D01*
X154149977Y-101927244D01*
X154101313Y-101766821D01*
X154084883Y-101600000D01*
X154101313Y-101433179D01*
X154149977Y-101272756D01*
X154228995Y-101124922D01*
X154335341Y-100995341D01*
X154464922Y-100888995D01*
X154612756Y-100809977D01*
X154612759Y-100809976D01*
X154612761Y-100809975D01*
X154773175Y-100761314D01*
X154773176Y-100761314D01*
X154773179Y-100761313D01*
X154898196Y-100749000D01*
X154981804Y-100749000D01*
X155106821Y-100761313D01*
X155106821Y-100761313D01*
G37*
G36*
X185586821Y-100761313D02*
X185586824Y-100761314D01*
X185586825Y-100761314D01*
X185747239Y-100809975D01*
X185747241Y-100809976D01*
X185747244Y-100809977D01*
X185895078Y-100888995D01*
X186024659Y-100995341D01*
X186131005Y-101124922D01*
X186210023Y-101272756D01*
X186258687Y-101433179D01*
X186275117Y-101600000D01*
X186258687Y-101766821D01*
X186210023Y-101927244D01*
X186131005Y-102075078D01*
X186024659Y-102204659D01*
X185895078Y-102311005D01*
X185747244Y-102390023D01*
X185747241Y-102390024D01*
X185747239Y-102390025D01*
X185586825Y-102438686D01*
X185586824Y-102438686D01*
X185586821Y-102438687D01*
X185461804Y-102451000D01*
X185378196Y-102451000D01*
X185253179Y-102438687D01*
X185253176Y-102438686D01*
X185253175Y-102438686D01*
X185092761Y-102390025D01*
X185092759Y-102390024D01*
X185092756Y-102390023D01*
X184944922Y-102311005D01*
X184815341Y-102204659D01*
X184708995Y-102075078D01*
X184629977Y-101927244D01*
X184581313Y-101766821D01*
X184564883Y-101600000D01*
X184581313Y-101433179D01*
X184629977Y-101272756D01*
X184708995Y-101124922D01*
X184815341Y-100995341D01*
X184944922Y-100888995D01*
X185092756Y-100809977D01*
X185092759Y-100809976D01*
X185092761Y-100809975D01*
X185253175Y-100761314D01*
X185253176Y-100761314D01*
X185253179Y-100761313D01*
X185378196Y-100749000D01*
X185461804Y-100749000D01*
X185586821Y-100761313D01*
X185586821Y-100761313D01*
G37*
G36*
X157646821Y-100761313D02*
X157646824Y-100761314D01*
X157646825Y-100761314D01*
X157807239Y-100809975D01*
X157807241Y-100809976D01*
X157807244Y-100809977D01*
X157955078Y-100888995D01*
X158084659Y-100995341D01*
X158191005Y-101124922D01*
X158270023Y-101272756D01*
X158318687Y-101433179D01*
X158335117Y-101600000D01*
X158318687Y-101766821D01*
X158270023Y-101927244D01*
X158191005Y-102075078D01*
X158084659Y-102204659D01*
X157955078Y-102311005D01*
X157807244Y-102390023D01*
X157807241Y-102390024D01*
X157807239Y-102390025D01*
X157646825Y-102438686D01*
X157646824Y-102438686D01*
X157646821Y-102438687D01*
X157521804Y-102451000D01*
X157438196Y-102451000D01*
X157313179Y-102438687D01*
X157313176Y-102438686D01*
X157313175Y-102438686D01*
X157152761Y-102390025D01*
X157152759Y-102390024D01*
X157152756Y-102390023D01*
X157004922Y-102311005D01*
X156875341Y-102204659D01*
X156768995Y-102075078D01*
X156689977Y-101927244D01*
X156641313Y-101766821D01*
X156624883Y-101600000D01*
X156641313Y-101433179D01*
X156689977Y-101272756D01*
X156768995Y-101124922D01*
X156875341Y-100995341D01*
X157004922Y-100888995D01*
X157152756Y-100809977D01*
X157152759Y-100809976D01*
X157152761Y-100809975D01*
X157313175Y-100761314D01*
X157313176Y-100761314D01*
X157313179Y-100761313D01*
X157438196Y-100749000D01*
X157521804Y-100749000D01*
X157646821Y-100761313D01*
X157646821Y-100761313D01*
G37*
G36*
X183046821Y-100761313D02*
X183046824Y-100761314D01*
X183046825Y-100761314D01*
X183207239Y-100809975D01*
X183207241Y-100809976D01*
X183207244Y-100809977D01*
X183355078Y-100888995D01*
X183484659Y-100995341D01*
X183591005Y-101124922D01*
X183670023Y-101272756D01*
X183718687Y-101433179D01*
X183735117Y-101600000D01*
X183718687Y-101766821D01*
X183670023Y-101927244D01*
X183591005Y-102075078D01*
X183484659Y-102204659D01*
X183355078Y-102311005D01*
X183207244Y-102390023D01*
X183207241Y-102390024D01*
X183207239Y-102390025D01*
X183046825Y-102438686D01*
X183046824Y-102438686D01*
X183046821Y-102438687D01*
X182921804Y-102451000D01*
X182838196Y-102451000D01*
X182713179Y-102438687D01*
X182713176Y-102438686D01*
X182713175Y-102438686D01*
X182552761Y-102390025D01*
X182552759Y-102390024D01*
X182552756Y-102390023D01*
X182404922Y-102311005D01*
X182275341Y-102204659D01*
X182168995Y-102075078D01*
X182089977Y-101927244D01*
X182041313Y-101766821D01*
X182024883Y-101600000D01*
X182041313Y-101433179D01*
X182089977Y-101272756D01*
X182168995Y-101124922D01*
X182275341Y-100995341D01*
X182404922Y-100888995D01*
X182552756Y-100809977D01*
X182552759Y-100809976D01*
X182552761Y-100809975D01*
X182713175Y-100761314D01*
X182713176Y-100761314D01*
X182713179Y-100761313D01*
X182838196Y-100749000D01*
X182921804Y-100749000D01*
X183046821Y-100761313D01*
X183046821Y-100761313D01*
G37*
G36*
X180506821Y-100761313D02*
X180506824Y-100761314D01*
X180506825Y-100761314D01*
X180667239Y-100809975D01*
X180667241Y-100809976D01*
X180667244Y-100809977D01*
X180815078Y-100888995D01*
X180944659Y-100995341D01*
X181051005Y-101124922D01*
X181130023Y-101272756D01*
X181178687Y-101433179D01*
X181195117Y-101600000D01*
X181178687Y-101766821D01*
X181130023Y-101927244D01*
X181051005Y-102075078D01*
X180944659Y-102204659D01*
X180815078Y-102311005D01*
X180667244Y-102390023D01*
X180667241Y-102390024D01*
X180667239Y-102390025D01*
X180506825Y-102438686D01*
X180506824Y-102438686D01*
X180506821Y-102438687D01*
X180381804Y-102451000D01*
X180298196Y-102451000D01*
X180173179Y-102438687D01*
X180173176Y-102438686D01*
X180173175Y-102438686D01*
X180012761Y-102390025D01*
X180012759Y-102390024D01*
X180012756Y-102390023D01*
X179864922Y-102311005D01*
X179735341Y-102204659D01*
X179628995Y-102075078D01*
X179549977Y-101927244D01*
X179501313Y-101766821D01*
X179484883Y-101600000D01*
X179501313Y-101433179D01*
X179549977Y-101272756D01*
X179628995Y-101124922D01*
X179735341Y-100995341D01*
X179864922Y-100888995D01*
X180012756Y-100809977D01*
X180012759Y-100809976D01*
X180012761Y-100809975D01*
X180173175Y-100761314D01*
X180173176Y-100761314D01*
X180173179Y-100761313D01*
X180298196Y-100749000D01*
X180381804Y-100749000D01*
X180506821Y-100761313D01*
X180506821Y-100761313D01*
G37*
G36*
X160186821Y-100761313D02*
X160186824Y-100761314D01*
X160186825Y-100761314D01*
X160347239Y-100809975D01*
X160347241Y-100809976D01*
X160347244Y-100809977D01*
X160495078Y-100888995D01*
X160624659Y-100995341D01*
X160731005Y-101124922D01*
X160810023Y-101272756D01*
X160858687Y-101433179D01*
X160875117Y-101600000D01*
X160858687Y-101766821D01*
X160810023Y-101927244D01*
X160731005Y-102075078D01*
X160624659Y-102204659D01*
X160495078Y-102311005D01*
X160347244Y-102390023D01*
X160347241Y-102390024D01*
X160347239Y-102390025D01*
X160186825Y-102438686D01*
X160186824Y-102438686D01*
X160186821Y-102438687D01*
X160061804Y-102451000D01*
X159978196Y-102451000D01*
X159853179Y-102438687D01*
X159853176Y-102438686D01*
X159853175Y-102438686D01*
X159692761Y-102390025D01*
X159692759Y-102390024D01*
X159692756Y-102390023D01*
X159544922Y-102311005D01*
X159415341Y-102204659D01*
X159308995Y-102075078D01*
X159229977Y-101927244D01*
X159181313Y-101766821D01*
X159164883Y-101600000D01*
X159181313Y-101433179D01*
X159229977Y-101272756D01*
X159308995Y-101124922D01*
X159415341Y-100995341D01*
X159544922Y-100888995D01*
X159692756Y-100809977D01*
X159692759Y-100809976D01*
X159692761Y-100809975D01*
X159853175Y-100761314D01*
X159853176Y-100761314D01*
X159853179Y-100761313D01*
X159978196Y-100749000D01*
X160061804Y-100749000D01*
X160186821Y-100761313D01*
X160186821Y-100761313D01*
G37*
G36*
X175426821Y-100761313D02*
X175426824Y-100761314D01*
X175426825Y-100761314D01*
X175587239Y-100809975D01*
X175587241Y-100809976D01*
X175587244Y-100809977D01*
X175735078Y-100888995D01*
X175864659Y-100995341D01*
X175971005Y-101124922D01*
X176050023Y-101272756D01*
X176098687Y-101433179D01*
X176115117Y-101600000D01*
X176098687Y-101766821D01*
X176050023Y-101927244D01*
X175971005Y-102075078D01*
X175864659Y-102204659D01*
X175735078Y-102311005D01*
X175587244Y-102390023D01*
X175587241Y-102390024D01*
X175587239Y-102390025D01*
X175426825Y-102438686D01*
X175426824Y-102438686D01*
X175426821Y-102438687D01*
X175301804Y-102451000D01*
X175218196Y-102451000D01*
X175093179Y-102438687D01*
X175093176Y-102438686D01*
X175093175Y-102438686D01*
X174932761Y-102390025D01*
X174932759Y-102390024D01*
X174932756Y-102390023D01*
X174784922Y-102311005D01*
X174655341Y-102204659D01*
X174548995Y-102075078D01*
X174469977Y-101927244D01*
X174421313Y-101766821D01*
X174404883Y-101600000D01*
X174421313Y-101433179D01*
X174469977Y-101272756D01*
X174548995Y-101124922D01*
X174655341Y-100995341D01*
X174784922Y-100888995D01*
X174932756Y-100809977D01*
X174932759Y-100809976D01*
X174932761Y-100809975D01*
X175093175Y-100761314D01*
X175093176Y-100761314D01*
X175093179Y-100761313D01*
X175218196Y-100749000D01*
X175301804Y-100749000D01*
X175426821Y-100761313D01*
X175426821Y-100761313D01*
G37*
G36*
X162726821Y-100761313D02*
X162726824Y-100761314D01*
X162726825Y-100761314D01*
X162887239Y-100809975D01*
X162887241Y-100809976D01*
X162887244Y-100809977D01*
X163035078Y-100888995D01*
X163164659Y-100995341D01*
X163271005Y-101124922D01*
X163350023Y-101272756D01*
X163398687Y-101433179D01*
X163415117Y-101600000D01*
X163398687Y-101766821D01*
X163350023Y-101927244D01*
X163271005Y-102075078D01*
X163164659Y-102204659D01*
X163035078Y-102311005D01*
X162887244Y-102390023D01*
X162887241Y-102390024D01*
X162887239Y-102390025D01*
X162726825Y-102438686D01*
X162726824Y-102438686D01*
X162726821Y-102438687D01*
X162601804Y-102451000D01*
X162518196Y-102451000D01*
X162393179Y-102438687D01*
X162393176Y-102438686D01*
X162393175Y-102438686D01*
X162232761Y-102390025D01*
X162232759Y-102390024D01*
X162232756Y-102390023D01*
X162084922Y-102311005D01*
X161955341Y-102204659D01*
X161848995Y-102075078D01*
X161769977Y-101927244D01*
X161721313Y-101766821D01*
X161704883Y-101600000D01*
X161721313Y-101433179D01*
X161769977Y-101272756D01*
X161848995Y-101124922D01*
X161955341Y-100995341D01*
X162084922Y-100888995D01*
X162232756Y-100809977D01*
X162232759Y-100809976D01*
X162232761Y-100809975D01*
X162393175Y-100761314D01*
X162393176Y-100761314D01*
X162393179Y-100761313D01*
X162518196Y-100749000D01*
X162601804Y-100749000D01*
X162726821Y-100761313D01*
X162726821Y-100761313D01*
G37*
G36*
X167806821Y-100761313D02*
X167806824Y-100761314D01*
X167806825Y-100761314D01*
X167967239Y-100809975D01*
X167967241Y-100809976D01*
X167967244Y-100809977D01*
X168115078Y-100888995D01*
X168244659Y-100995341D01*
X168351005Y-101124922D01*
X168430023Y-101272756D01*
X168478687Y-101433179D01*
X168495117Y-101600000D01*
X168478687Y-101766821D01*
X168430023Y-101927244D01*
X168351005Y-102075078D01*
X168244659Y-102204659D01*
X168115078Y-102311005D01*
X167967244Y-102390023D01*
X167967241Y-102390024D01*
X167967239Y-102390025D01*
X167806825Y-102438686D01*
X167806824Y-102438686D01*
X167806821Y-102438687D01*
X167681804Y-102451000D01*
X167598196Y-102451000D01*
X167473179Y-102438687D01*
X167473176Y-102438686D01*
X167473175Y-102438686D01*
X167312761Y-102390025D01*
X167312759Y-102390024D01*
X167312756Y-102390023D01*
X167164922Y-102311005D01*
X167035341Y-102204659D01*
X166928995Y-102075078D01*
X166849977Y-101927244D01*
X166801313Y-101766821D01*
X166784883Y-101600000D01*
X166801313Y-101433179D01*
X166849977Y-101272756D01*
X166928995Y-101124922D01*
X167035341Y-100995341D01*
X167164922Y-100888995D01*
X167312756Y-100809977D01*
X167312759Y-100809976D01*
X167312761Y-100809975D01*
X167473175Y-100761314D01*
X167473176Y-100761314D01*
X167473179Y-100761313D01*
X167598196Y-100749000D01*
X167681804Y-100749000D01*
X167806821Y-100761313D01*
X167806821Y-100761313D01*
G37*
G36*
X165266821Y-100761313D02*
X165266824Y-100761314D01*
X165266825Y-100761314D01*
X165427239Y-100809975D01*
X165427241Y-100809976D01*
X165427244Y-100809977D01*
X165575078Y-100888995D01*
X165704659Y-100995341D01*
X165811005Y-101124922D01*
X165890023Y-101272756D01*
X165938687Y-101433179D01*
X165955117Y-101600000D01*
X165938687Y-101766821D01*
X165890023Y-101927244D01*
X165811005Y-102075078D01*
X165704659Y-102204659D01*
X165575078Y-102311005D01*
X165427244Y-102390023D01*
X165427241Y-102390024D01*
X165427239Y-102390025D01*
X165266825Y-102438686D01*
X165266824Y-102438686D01*
X165266821Y-102438687D01*
X165141804Y-102451000D01*
X165058196Y-102451000D01*
X164933179Y-102438687D01*
X164933176Y-102438686D01*
X164933175Y-102438686D01*
X164772761Y-102390025D01*
X164772759Y-102390024D01*
X164772756Y-102390023D01*
X164624922Y-102311005D01*
X164495341Y-102204659D01*
X164388995Y-102075078D01*
X164309977Y-101927244D01*
X164261313Y-101766821D01*
X164244883Y-101600000D01*
X164261313Y-101433179D01*
X164309977Y-101272756D01*
X164388995Y-101124922D01*
X164495341Y-100995341D01*
X164624922Y-100888995D01*
X164772756Y-100809977D01*
X164772759Y-100809976D01*
X164772761Y-100809975D01*
X164933175Y-100761314D01*
X164933176Y-100761314D01*
X164933179Y-100761313D01*
X165058196Y-100749000D01*
X165141804Y-100749000D01*
X165266821Y-100761313D01*
X165266821Y-100761313D01*
G37*
G36*
X170346821Y-100761313D02*
X170346824Y-100761314D01*
X170346825Y-100761314D01*
X170507239Y-100809975D01*
X170507241Y-100809976D01*
X170507244Y-100809977D01*
X170655078Y-100888995D01*
X170784659Y-100995341D01*
X170891005Y-101124922D01*
X170970023Y-101272756D01*
X171018687Y-101433179D01*
X171035117Y-101600000D01*
X171018687Y-101766821D01*
X170970023Y-101927244D01*
X170891005Y-102075078D01*
X170784659Y-102204659D01*
X170655078Y-102311005D01*
X170507244Y-102390023D01*
X170507241Y-102390024D01*
X170507239Y-102390025D01*
X170346825Y-102438686D01*
X170346824Y-102438686D01*
X170346821Y-102438687D01*
X170221804Y-102451000D01*
X170138196Y-102451000D01*
X170013179Y-102438687D01*
X170013176Y-102438686D01*
X170013175Y-102438686D01*
X169852761Y-102390025D01*
X169852759Y-102390024D01*
X169852756Y-102390023D01*
X169704922Y-102311005D01*
X169575341Y-102204659D01*
X169468995Y-102075078D01*
X169389977Y-101927244D01*
X169341313Y-101766821D01*
X169324883Y-101600000D01*
X169341313Y-101433179D01*
X169389977Y-101272756D01*
X169468995Y-101124922D01*
X169575341Y-100995341D01*
X169704922Y-100888995D01*
X169852756Y-100809977D01*
X169852759Y-100809976D01*
X169852761Y-100809975D01*
X170013175Y-100761314D01*
X170013176Y-100761314D01*
X170013179Y-100761313D01*
X170138196Y-100749000D01*
X170221804Y-100749000D01*
X170346821Y-100761313D01*
X170346821Y-100761313D01*
G37*
G36*
X177966821Y-100761313D02*
X177966824Y-100761314D01*
X177966825Y-100761314D01*
X178127239Y-100809975D01*
X178127241Y-100809976D01*
X178127244Y-100809977D01*
X178275078Y-100888995D01*
X178404659Y-100995341D01*
X178511005Y-101124922D01*
X178590023Y-101272756D01*
X178638687Y-101433179D01*
X178655117Y-101600000D01*
X178638687Y-101766821D01*
X178590023Y-101927244D01*
X178511005Y-102075078D01*
X178404659Y-102204659D01*
X178275078Y-102311005D01*
X178127244Y-102390023D01*
X178127241Y-102390024D01*
X178127239Y-102390025D01*
X177966825Y-102438686D01*
X177966824Y-102438686D01*
X177966821Y-102438687D01*
X177841804Y-102451000D01*
X177758196Y-102451000D01*
X177633179Y-102438687D01*
X177633176Y-102438686D01*
X177633175Y-102438686D01*
X177472761Y-102390025D01*
X177472759Y-102390024D01*
X177472756Y-102390023D01*
X177324922Y-102311005D01*
X177195341Y-102204659D01*
X177088995Y-102075078D01*
X177009977Y-101927244D01*
X176961313Y-101766821D01*
X176944883Y-101600000D01*
X176961313Y-101433179D01*
X177009977Y-101272756D01*
X177088995Y-101124922D01*
X177195341Y-100995341D01*
X177324922Y-100888995D01*
X177472756Y-100809977D01*
X177472759Y-100809976D01*
X177472761Y-100809975D01*
X177633175Y-100761314D01*
X177633176Y-100761314D01*
X177633179Y-100761313D01*
X177758196Y-100749000D01*
X177841804Y-100749000D01*
X177966821Y-100761313D01*
X177966821Y-100761313D01*
G37*
G36*
X152566821Y-93141313D02*
X152566824Y-93141314D01*
X152566825Y-93141314D01*
X152727239Y-93189975D01*
X152727241Y-93189976D01*
X152727244Y-93189977D01*
X152875078Y-93268995D01*
X153004659Y-93375341D01*
X153111005Y-93504922D01*
X153190023Y-93652756D01*
X153238687Y-93813179D01*
X153255117Y-93980000D01*
X153238687Y-94146821D01*
X153190023Y-94307244D01*
X153111005Y-94455078D01*
X153004659Y-94584659D01*
X152875078Y-94691005D01*
X152727244Y-94770023D01*
X152727241Y-94770024D01*
X152727239Y-94770025D01*
X152566825Y-94818686D01*
X152566824Y-94818686D01*
X152566821Y-94818687D01*
X152441804Y-94831000D01*
X152358196Y-94831000D01*
X152233179Y-94818687D01*
X152233176Y-94818686D01*
X152233175Y-94818686D01*
X152072761Y-94770025D01*
X152072759Y-94770024D01*
X152072756Y-94770023D01*
X151924922Y-94691005D01*
X151795341Y-94584659D01*
X151688995Y-94455078D01*
X151609977Y-94307244D01*
X151561313Y-94146821D01*
X151544883Y-93980000D01*
X151561313Y-93813179D01*
X151609977Y-93652756D01*
X151688995Y-93504922D01*
X151795341Y-93375341D01*
X151924922Y-93268995D01*
X152072756Y-93189977D01*
X152072759Y-93189976D01*
X152072761Y-93189975D01*
X152233175Y-93141314D01*
X152233176Y-93141314D01*
X152233179Y-93141313D01*
X152358196Y-93129000D01*
X152441804Y-93129000D01*
X152566821Y-93141313D01*
X152566821Y-93141313D01*
G37*
G36*
X155106821Y-93141313D02*
X155106824Y-93141314D01*
X155106825Y-93141314D01*
X155267239Y-93189975D01*
X155267241Y-93189976D01*
X155267244Y-93189977D01*
X155415078Y-93268995D01*
X155544659Y-93375341D01*
X155651005Y-93504922D01*
X155730023Y-93652756D01*
X155778687Y-93813179D01*
X155795117Y-93980000D01*
X155778687Y-94146821D01*
X155730023Y-94307244D01*
X155651005Y-94455078D01*
X155544659Y-94584659D01*
X155415078Y-94691005D01*
X155267244Y-94770023D01*
X155267241Y-94770024D01*
X155267239Y-94770025D01*
X155106825Y-94818686D01*
X155106824Y-94818686D01*
X155106821Y-94818687D01*
X154981804Y-94831000D01*
X154898196Y-94831000D01*
X154773179Y-94818687D01*
X154773176Y-94818686D01*
X154773175Y-94818686D01*
X154612761Y-94770025D01*
X154612759Y-94770024D01*
X154612756Y-94770023D01*
X154464922Y-94691005D01*
X154335341Y-94584659D01*
X154228995Y-94455078D01*
X154149977Y-94307244D01*
X154101313Y-94146821D01*
X154084883Y-93980000D01*
X154101313Y-93813179D01*
X154149977Y-93652756D01*
X154228995Y-93504922D01*
X154335341Y-93375341D01*
X154464922Y-93268995D01*
X154612756Y-93189977D01*
X154612759Y-93189976D01*
X154612761Y-93189975D01*
X154773175Y-93141314D01*
X154773176Y-93141314D01*
X154773179Y-93141313D01*
X154898196Y-93129000D01*
X154981804Y-93129000D01*
X155106821Y-93141313D01*
X155106821Y-93141313D01*
G37*
G36*
X157646821Y-93141313D02*
X157646824Y-93141314D01*
X157646825Y-93141314D01*
X157807239Y-93189975D01*
X157807241Y-93189976D01*
X157807244Y-93189977D01*
X157955078Y-93268995D01*
X158084659Y-93375341D01*
X158191005Y-93504922D01*
X158270023Y-93652756D01*
X158318687Y-93813179D01*
X158335117Y-93980000D01*
X158318687Y-94146821D01*
X158270023Y-94307244D01*
X158191005Y-94455078D01*
X158084659Y-94584659D01*
X157955078Y-94691005D01*
X157807244Y-94770023D01*
X157807241Y-94770024D01*
X157807239Y-94770025D01*
X157646825Y-94818686D01*
X157646824Y-94818686D01*
X157646821Y-94818687D01*
X157521804Y-94831000D01*
X157438196Y-94831000D01*
X157313179Y-94818687D01*
X157313176Y-94818686D01*
X157313175Y-94818686D01*
X157152761Y-94770025D01*
X157152759Y-94770024D01*
X157152756Y-94770023D01*
X157004922Y-94691005D01*
X156875341Y-94584659D01*
X156768995Y-94455078D01*
X156689977Y-94307244D01*
X156641313Y-94146821D01*
X156624883Y-93980000D01*
X156641313Y-93813179D01*
X156689977Y-93652756D01*
X156768995Y-93504922D01*
X156875341Y-93375341D01*
X157004922Y-93268995D01*
X157152756Y-93189977D01*
X157152759Y-93189976D01*
X157152761Y-93189975D01*
X157313175Y-93141314D01*
X157313176Y-93141314D01*
X157313179Y-93141313D01*
X157438196Y-93129000D01*
X157521804Y-93129000D01*
X157646821Y-93141313D01*
X157646821Y-93141313D01*
G37*
G36*
X160186821Y-93141313D02*
X160186824Y-93141314D01*
X160186825Y-93141314D01*
X160347239Y-93189975D01*
X160347241Y-93189976D01*
X160347244Y-93189977D01*
X160495078Y-93268995D01*
X160624659Y-93375341D01*
X160731005Y-93504922D01*
X160810023Y-93652756D01*
X160858687Y-93813179D01*
X160875117Y-93980000D01*
X160858687Y-94146821D01*
X160810023Y-94307244D01*
X160731005Y-94455078D01*
X160624659Y-94584659D01*
X160495078Y-94691005D01*
X160347244Y-94770023D01*
X160347241Y-94770024D01*
X160347239Y-94770025D01*
X160186825Y-94818686D01*
X160186824Y-94818686D01*
X160186821Y-94818687D01*
X160061804Y-94831000D01*
X159978196Y-94831000D01*
X159853179Y-94818687D01*
X159853176Y-94818686D01*
X159853175Y-94818686D01*
X159692761Y-94770025D01*
X159692759Y-94770024D01*
X159692756Y-94770023D01*
X159544922Y-94691005D01*
X159415341Y-94584659D01*
X159308995Y-94455078D01*
X159229977Y-94307244D01*
X159181313Y-94146821D01*
X159164883Y-93980000D01*
X159181313Y-93813179D01*
X159229977Y-93652756D01*
X159308995Y-93504922D01*
X159415341Y-93375341D01*
X159544922Y-93268995D01*
X159692756Y-93189977D01*
X159692759Y-93189976D01*
X159692761Y-93189975D01*
X159853175Y-93141314D01*
X159853176Y-93141314D01*
X159853179Y-93141313D01*
X159978196Y-93129000D01*
X160061804Y-93129000D01*
X160186821Y-93141313D01*
X160186821Y-93141313D01*
G37*
G36*
X180506821Y-93141313D02*
X180506824Y-93141314D01*
X180506825Y-93141314D01*
X180667239Y-93189975D01*
X180667241Y-93189976D01*
X180667244Y-93189977D01*
X180815078Y-93268995D01*
X180944659Y-93375341D01*
X181051005Y-93504922D01*
X181130023Y-93652756D01*
X181178687Y-93813179D01*
X181195117Y-93980000D01*
X181178687Y-94146821D01*
X181130023Y-94307244D01*
X181051005Y-94455078D01*
X180944659Y-94584659D01*
X180815078Y-94691005D01*
X180667244Y-94770023D01*
X180667241Y-94770024D01*
X180667239Y-94770025D01*
X180506825Y-94818686D01*
X180506824Y-94818686D01*
X180506821Y-94818687D01*
X180381804Y-94831000D01*
X180298196Y-94831000D01*
X180173179Y-94818687D01*
X180173176Y-94818686D01*
X180173175Y-94818686D01*
X180012761Y-94770025D01*
X180012759Y-94770024D01*
X180012756Y-94770023D01*
X179864922Y-94691005D01*
X179735341Y-94584659D01*
X179628995Y-94455078D01*
X179549977Y-94307244D01*
X179501313Y-94146821D01*
X179484883Y-93980000D01*
X179501313Y-93813179D01*
X179549977Y-93652756D01*
X179628995Y-93504922D01*
X179735341Y-93375341D01*
X179864922Y-93268995D01*
X180012756Y-93189977D01*
X180012759Y-93189976D01*
X180012761Y-93189975D01*
X180173175Y-93141314D01*
X180173176Y-93141314D01*
X180173179Y-93141313D01*
X180298196Y-93129000D01*
X180381804Y-93129000D01*
X180506821Y-93141313D01*
X180506821Y-93141313D01*
G37*
G36*
X177966821Y-93141313D02*
X177966824Y-93141314D01*
X177966825Y-93141314D01*
X178127239Y-93189975D01*
X178127241Y-93189976D01*
X178127244Y-93189977D01*
X178275078Y-93268995D01*
X178404659Y-93375341D01*
X178511005Y-93504922D01*
X178590023Y-93652756D01*
X178638687Y-93813179D01*
X178655117Y-93980000D01*
X178638687Y-94146821D01*
X178590023Y-94307244D01*
X178511005Y-94455078D01*
X178404659Y-94584659D01*
X178275078Y-94691005D01*
X178127244Y-94770023D01*
X178127241Y-94770024D01*
X178127239Y-94770025D01*
X177966825Y-94818686D01*
X177966824Y-94818686D01*
X177966821Y-94818687D01*
X177841804Y-94831000D01*
X177758196Y-94831000D01*
X177633179Y-94818687D01*
X177633176Y-94818686D01*
X177633175Y-94818686D01*
X177472761Y-94770025D01*
X177472759Y-94770024D01*
X177472756Y-94770023D01*
X177324922Y-94691005D01*
X177195341Y-94584659D01*
X177088995Y-94455078D01*
X177009977Y-94307244D01*
X176961313Y-94146821D01*
X176944883Y-93980000D01*
X176961313Y-93813179D01*
X177009977Y-93652756D01*
X177088995Y-93504922D01*
X177195341Y-93375341D01*
X177324922Y-93268995D01*
X177472756Y-93189977D01*
X177472759Y-93189976D01*
X177472761Y-93189975D01*
X177633175Y-93141314D01*
X177633176Y-93141314D01*
X177633179Y-93141313D01*
X177758196Y-93129000D01*
X177841804Y-93129000D01*
X177966821Y-93141313D01*
X177966821Y-93141313D01*
G37*
G36*
X185586821Y-93141313D02*
X185586824Y-93141314D01*
X185586825Y-93141314D01*
X185747239Y-93189975D01*
X185747241Y-93189976D01*
X185747244Y-93189977D01*
X185895078Y-93268995D01*
X186024659Y-93375341D01*
X186131005Y-93504922D01*
X186210023Y-93652756D01*
X186258687Y-93813179D01*
X186275117Y-93980000D01*
X186258687Y-94146821D01*
X186210023Y-94307244D01*
X186131005Y-94455078D01*
X186024659Y-94584659D01*
X185895078Y-94691005D01*
X185747244Y-94770023D01*
X185747241Y-94770024D01*
X185747239Y-94770025D01*
X185586825Y-94818686D01*
X185586824Y-94818686D01*
X185586821Y-94818687D01*
X185461804Y-94831000D01*
X185378196Y-94831000D01*
X185253179Y-94818687D01*
X185253176Y-94818686D01*
X185253175Y-94818686D01*
X185092761Y-94770025D01*
X185092759Y-94770024D01*
X185092756Y-94770023D01*
X184944922Y-94691005D01*
X184815341Y-94584659D01*
X184708995Y-94455078D01*
X184629977Y-94307244D01*
X184581313Y-94146821D01*
X184564883Y-93980000D01*
X184581313Y-93813179D01*
X184629977Y-93652756D01*
X184708995Y-93504922D01*
X184815341Y-93375341D01*
X184944922Y-93268995D01*
X185092756Y-93189977D01*
X185092759Y-93189976D01*
X185092761Y-93189975D01*
X185253175Y-93141314D01*
X185253176Y-93141314D01*
X185253179Y-93141313D01*
X185378196Y-93129000D01*
X185461804Y-93129000D01*
X185586821Y-93141313D01*
X185586821Y-93141313D01*
G37*
G36*
X172886821Y-93141313D02*
X172886824Y-93141314D01*
X172886825Y-93141314D01*
X173047239Y-93189975D01*
X173047241Y-93189976D01*
X173047244Y-93189977D01*
X173195078Y-93268995D01*
X173324659Y-93375341D01*
X173431005Y-93504922D01*
X173510023Y-93652756D01*
X173558687Y-93813179D01*
X173575117Y-93980000D01*
X173558687Y-94146821D01*
X173510023Y-94307244D01*
X173431005Y-94455078D01*
X173324659Y-94584659D01*
X173195078Y-94691005D01*
X173047244Y-94770023D01*
X173047241Y-94770024D01*
X173047239Y-94770025D01*
X172886825Y-94818686D01*
X172886824Y-94818686D01*
X172886821Y-94818687D01*
X172761804Y-94831000D01*
X172678196Y-94831000D01*
X172553179Y-94818687D01*
X172553176Y-94818686D01*
X172553175Y-94818686D01*
X172392761Y-94770025D01*
X172392759Y-94770024D01*
X172392756Y-94770023D01*
X172244922Y-94691005D01*
X172115341Y-94584659D01*
X172008995Y-94455078D01*
X171929977Y-94307244D01*
X171881313Y-94146821D01*
X171864883Y-93980000D01*
X171881313Y-93813179D01*
X171929977Y-93652756D01*
X172008995Y-93504922D01*
X172115341Y-93375341D01*
X172244922Y-93268995D01*
X172392756Y-93189977D01*
X172392759Y-93189976D01*
X172392761Y-93189975D01*
X172553175Y-93141314D01*
X172553176Y-93141314D01*
X172553179Y-93141313D01*
X172678196Y-93129000D01*
X172761804Y-93129000D01*
X172886821Y-93141313D01*
X172886821Y-93141313D01*
G37*
G36*
X170346821Y-93141313D02*
X170346824Y-93141314D01*
X170346825Y-93141314D01*
X170507239Y-93189975D01*
X170507241Y-93189976D01*
X170507244Y-93189977D01*
X170655078Y-93268995D01*
X170784659Y-93375341D01*
X170891005Y-93504922D01*
X170970023Y-93652756D01*
X171018687Y-93813179D01*
X171035117Y-93980000D01*
X171018687Y-94146821D01*
X170970023Y-94307244D01*
X170891005Y-94455078D01*
X170784659Y-94584659D01*
X170655078Y-94691005D01*
X170507244Y-94770023D01*
X170507241Y-94770024D01*
X170507239Y-94770025D01*
X170346825Y-94818686D01*
X170346824Y-94818686D01*
X170346821Y-94818687D01*
X170221804Y-94831000D01*
X170138196Y-94831000D01*
X170013179Y-94818687D01*
X170013176Y-94818686D01*
X170013175Y-94818686D01*
X169852761Y-94770025D01*
X169852759Y-94770024D01*
X169852756Y-94770023D01*
X169704922Y-94691005D01*
X169575341Y-94584659D01*
X169468995Y-94455078D01*
X169389977Y-94307244D01*
X169341313Y-94146821D01*
X169324883Y-93980000D01*
X169341313Y-93813179D01*
X169389977Y-93652756D01*
X169468995Y-93504922D01*
X169575341Y-93375341D01*
X169704922Y-93268995D01*
X169852756Y-93189977D01*
X169852759Y-93189976D01*
X169852761Y-93189975D01*
X170013175Y-93141314D01*
X170013176Y-93141314D01*
X170013179Y-93141313D01*
X170138196Y-93129000D01*
X170221804Y-93129000D01*
X170346821Y-93141313D01*
X170346821Y-93141313D01*
G37*
G36*
X183046821Y-93141313D02*
X183046824Y-93141314D01*
X183046825Y-93141314D01*
X183207239Y-93189975D01*
X183207241Y-93189976D01*
X183207244Y-93189977D01*
X183355078Y-93268995D01*
X183484659Y-93375341D01*
X183591005Y-93504922D01*
X183670023Y-93652756D01*
X183718687Y-93813179D01*
X183735117Y-93980000D01*
X183718687Y-94146821D01*
X183670023Y-94307244D01*
X183591005Y-94455078D01*
X183484659Y-94584659D01*
X183355078Y-94691005D01*
X183207244Y-94770023D01*
X183207241Y-94770024D01*
X183207239Y-94770025D01*
X183046825Y-94818686D01*
X183046824Y-94818686D01*
X183046821Y-94818687D01*
X182921804Y-94831000D01*
X182838196Y-94831000D01*
X182713179Y-94818687D01*
X182713176Y-94818686D01*
X182713175Y-94818686D01*
X182552761Y-94770025D01*
X182552759Y-94770024D01*
X182552756Y-94770023D01*
X182404922Y-94691005D01*
X182275341Y-94584659D01*
X182168995Y-94455078D01*
X182089977Y-94307244D01*
X182041313Y-94146821D01*
X182024883Y-93980000D01*
X182041313Y-93813179D01*
X182089977Y-93652756D01*
X182168995Y-93504922D01*
X182275341Y-93375341D01*
X182404922Y-93268995D01*
X182552756Y-93189977D01*
X182552759Y-93189976D01*
X182552761Y-93189975D01*
X182713175Y-93141314D01*
X182713176Y-93141314D01*
X182713179Y-93141313D01*
X182838196Y-93129000D01*
X182921804Y-93129000D01*
X183046821Y-93141313D01*
X183046821Y-93141313D01*
G37*
G36*
X167806821Y-93141313D02*
X167806824Y-93141314D01*
X167806825Y-93141314D01*
X167967239Y-93189975D01*
X167967241Y-93189976D01*
X167967244Y-93189977D01*
X168115078Y-93268995D01*
X168244659Y-93375341D01*
X168351005Y-93504922D01*
X168430023Y-93652756D01*
X168478687Y-93813179D01*
X168495117Y-93980000D01*
X168478687Y-94146821D01*
X168430023Y-94307244D01*
X168351005Y-94455078D01*
X168244659Y-94584659D01*
X168115078Y-94691005D01*
X167967244Y-94770023D01*
X167967241Y-94770024D01*
X167967239Y-94770025D01*
X167806825Y-94818686D01*
X167806824Y-94818686D01*
X167806821Y-94818687D01*
X167681804Y-94831000D01*
X167598196Y-94831000D01*
X167473179Y-94818687D01*
X167473176Y-94818686D01*
X167473175Y-94818686D01*
X167312761Y-94770025D01*
X167312759Y-94770024D01*
X167312756Y-94770023D01*
X167164922Y-94691005D01*
X167035341Y-94584659D01*
X166928995Y-94455078D01*
X166849977Y-94307244D01*
X166801313Y-94146821D01*
X166784883Y-93980000D01*
X166801313Y-93813179D01*
X166849977Y-93652756D01*
X166928995Y-93504922D01*
X167035341Y-93375341D01*
X167164922Y-93268995D01*
X167312756Y-93189977D01*
X167312759Y-93189976D01*
X167312761Y-93189975D01*
X167473175Y-93141314D01*
X167473176Y-93141314D01*
X167473179Y-93141313D01*
X167598196Y-93129000D01*
X167681804Y-93129000D01*
X167806821Y-93141313D01*
X167806821Y-93141313D01*
G37*
G36*
X165266821Y-93141313D02*
X165266824Y-93141314D01*
X165266825Y-93141314D01*
X165427239Y-93189975D01*
X165427241Y-93189976D01*
X165427244Y-93189977D01*
X165575078Y-93268995D01*
X165704659Y-93375341D01*
X165811005Y-93504922D01*
X165890023Y-93652756D01*
X165938687Y-93813179D01*
X165955117Y-93980000D01*
X165938687Y-94146821D01*
X165890023Y-94307244D01*
X165811005Y-94455078D01*
X165704659Y-94584659D01*
X165575078Y-94691005D01*
X165427244Y-94770023D01*
X165427241Y-94770024D01*
X165427239Y-94770025D01*
X165266825Y-94818686D01*
X165266824Y-94818686D01*
X165266821Y-94818687D01*
X165141804Y-94831000D01*
X165058196Y-94831000D01*
X164933179Y-94818687D01*
X164933176Y-94818686D01*
X164933175Y-94818686D01*
X164772761Y-94770025D01*
X164772759Y-94770024D01*
X164772756Y-94770023D01*
X164624922Y-94691005D01*
X164495341Y-94584659D01*
X164388995Y-94455078D01*
X164309977Y-94307244D01*
X164261313Y-94146821D01*
X164244883Y-93980000D01*
X164261313Y-93813179D01*
X164309977Y-93652756D01*
X164388995Y-93504922D01*
X164495341Y-93375341D01*
X164624922Y-93268995D01*
X164772756Y-93189977D01*
X164772759Y-93189976D01*
X164772761Y-93189975D01*
X164933175Y-93141314D01*
X164933176Y-93141314D01*
X164933179Y-93141313D01*
X165058196Y-93129000D01*
X165141804Y-93129000D01*
X165266821Y-93141313D01*
X165266821Y-93141313D01*
G37*
G36*
X162726821Y-93141313D02*
X162726824Y-93141314D01*
X162726825Y-93141314D01*
X162887239Y-93189975D01*
X162887241Y-93189976D01*
X162887244Y-93189977D01*
X163035078Y-93268995D01*
X163164659Y-93375341D01*
X163271005Y-93504922D01*
X163350023Y-93652756D01*
X163398687Y-93813179D01*
X163415117Y-93980000D01*
X163398687Y-94146821D01*
X163350023Y-94307244D01*
X163271005Y-94455078D01*
X163164659Y-94584659D01*
X163035078Y-94691005D01*
X162887244Y-94770023D01*
X162887241Y-94770024D01*
X162887239Y-94770025D01*
X162726825Y-94818686D01*
X162726824Y-94818686D01*
X162726821Y-94818687D01*
X162601804Y-94831000D01*
X162518196Y-94831000D01*
X162393179Y-94818687D01*
X162393176Y-94818686D01*
X162393175Y-94818686D01*
X162232761Y-94770025D01*
X162232759Y-94770024D01*
X162232756Y-94770023D01*
X162084922Y-94691005D01*
X161955341Y-94584659D01*
X161848995Y-94455078D01*
X161769977Y-94307244D01*
X161721313Y-94146821D01*
X161704883Y-93980000D01*
X161721313Y-93813179D01*
X161769977Y-93652756D01*
X161848995Y-93504922D01*
X161955341Y-93375341D01*
X162084922Y-93268995D01*
X162232756Y-93189977D01*
X162232759Y-93189976D01*
X162232761Y-93189975D01*
X162393175Y-93141314D01*
X162393176Y-93141314D01*
X162393179Y-93141313D01*
X162518196Y-93129000D01*
X162601804Y-93129000D01*
X162726821Y-93141313D01*
X162726821Y-93141313D01*
G37*
G36*
X175426821Y-93141313D02*
X175426824Y-93141314D01*
X175426825Y-93141314D01*
X175587239Y-93189975D01*
X175587241Y-93189976D01*
X175587244Y-93189977D01*
X175735078Y-93268995D01*
X175864659Y-93375341D01*
X175971005Y-93504922D01*
X176050023Y-93652756D01*
X176098687Y-93813179D01*
X176115117Y-93980000D01*
X176098687Y-94146821D01*
X176050023Y-94307244D01*
X175971005Y-94455078D01*
X175864659Y-94584659D01*
X175735078Y-94691005D01*
X175587244Y-94770023D01*
X175587241Y-94770024D01*
X175587239Y-94770025D01*
X175426825Y-94818686D01*
X175426824Y-94818686D01*
X175426821Y-94818687D01*
X175301804Y-94831000D01*
X175218196Y-94831000D01*
X175093179Y-94818687D01*
X175093176Y-94818686D01*
X175093175Y-94818686D01*
X174932761Y-94770025D01*
X174932759Y-94770024D01*
X174932756Y-94770023D01*
X174784922Y-94691005D01*
X174655341Y-94584659D01*
X174548995Y-94455078D01*
X174469977Y-94307244D01*
X174421313Y-94146821D01*
X174404883Y-93980000D01*
X174421313Y-93813179D01*
X174469977Y-93652756D01*
X174548995Y-93504922D01*
X174655341Y-93375341D01*
X174784922Y-93268995D01*
X174932756Y-93189977D01*
X174932759Y-93189976D01*
X174932761Y-93189975D01*
X175093175Y-93141314D01*
X175093176Y-93141314D01*
X175093179Y-93141313D01*
X175218196Y-93129000D01*
X175301804Y-93129000D01*
X175426821Y-93141313D01*
X175426821Y-93141313D01*
G37*
G36*
X191655000Y-80657000D02*
X189853000Y-80657000D01*
X189853000Y-78855000D01*
X191655000Y-78855000D01*
X191655000Y-80657000D01*
X191655000Y-80657000D01*
G37*
G36*
X195465000Y-80657000D02*
X193663000Y-80657000D01*
X193663000Y-78855000D01*
X195465000Y-78855000D01*
X195465000Y-80657000D01*
X195465000Y-80657000D01*
G37*
G36*
X194674442Y-76321518D02*
X194740627Y-76328037D01*
X194853853Y-76362384D01*
X194910467Y-76379557D01*
X195049087Y-76453652D01*
X195066991Y-76463222D01*
X195102729Y-76492552D01*
X195204186Y-76575814D01*
X195287448Y-76677271D01*
X195316778Y-76713009D01*
X195316779Y-76713011D01*
X195400443Y-76869533D01*
X195400443Y-76869534D01*
X195451963Y-77039373D01*
X195469359Y-77216000D01*
X195451963Y-77392627D01*
X195417616Y-77505853D01*
X195400443Y-77562467D01*
X195326348Y-77701087D01*
X195316778Y-77718991D01*
X195287448Y-77754729D01*
X195204186Y-77856186D01*
X195102729Y-77939448D01*
X195066991Y-77968778D01*
X195066989Y-77968779D01*
X194910467Y-78052443D01*
X194853853Y-78069616D01*
X194740627Y-78103963D01*
X194674442Y-78110482D01*
X194608260Y-78117000D01*
X194519740Y-78117000D01*
X194453558Y-78110482D01*
X194387373Y-78103963D01*
X194274147Y-78069616D01*
X194217533Y-78052443D01*
X194061011Y-77968779D01*
X194061009Y-77968778D01*
X194025271Y-77939448D01*
X193923814Y-77856186D01*
X193840552Y-77754729D01*
X193811222Y-77718991D01*
X193801652Y-77701087D01*
X193727557Y-77562467D01*
X193710384Y-77505853D01*
X193676037Y-77392627D01*
X193658641Y-77216000D01*
X193676037Y-77039373D01*
X193727557Y-76869534D01*
X193727557Y-76869533D01*
X193811221Y-76713011D01*
X193811222Y-76713009D01*
X193840552Y-76677271D01*
X193923814Y-76575814D01*
X194025271Y-76492552D01*
X194061009Y-76463222D01*
X194078913Y-76453652D01*
X194217533Y-76379557D01*
X194274147Y-76362384D01*
X194387373Y-76328037D01*
X194453558Y-76321518D01*
X194519740Y-76315000D01*
X194608260Y-76315000D01*
X194674442Y-76321518D01*
X194674442Y-76321518D01*
G37*
G36*
X190864442Y-76321518D02*
X190930627Y-76328037D01*
X191043853Y-76362384D01*
X191100467Y-76379557D01*
X191239087Y-76453652D01*
X191256991Y-76463222D01*
X191292729Y-76492552D01*
X191394186Y-76575814D01*
X191477448Y-76677271D01*
X191506778Y-76713009D01*
X191506779Y-76713011D01*
X191590443Y-76869533D01*
X191590443Y-76869534D01*
X191641963Y-77039373D01*
X191659359Y-77216000D01*
X191641963Y-77392627D01*
X191607616Y-77505853D01*
X191590443Y-77562467D01*
X191516348Y-77701087D01*
X191506778Y-77718991D01*
X191477448Y-77754729D01*
X191394186Y-77856186D01*
X191292729Y-77939448D01*
X191256991Y-77968778D01*
X191256989Y-77968779D01*
X191100467Y-78052443D01*
X191043853Y-78069616D01*
X190930627Y-78103963D01*
X190864442Y-78110482D01*
X190798260Y-78117000D01*
X190709740Y-78117000D01*
X190643558Y-78110482D01*
X190577373Y-78103963D01*
X190464147Y-78069616D01*
X190407533Y-78052443D01*
X190251011Y-77968779D01*
X190251009Y-77968778D01*
X190215271Y-77939448D01*
X190113814Y-77856186D01*
X190030552Y-77754729D01*
X190001222Y-77718991D01*
X189991652Y-77701087D01*
X189917557Y-77562467D01*
X189900384Y-77505853D01*
X189866037Y-77392627D01*
X189848641Y-77216000D01*
X189866037Y-77039373D01*
X189917557Y-76869534D01*
X189917557Y-76869533D01*
X190001221Y-76713011D01*
X190001222Y-76713009D01*
X190030552Y-76677271D01*
X190113814Y-76575814D01*
X190215271Y-76492552D01*
X190251009Y-76463222D01*
X190268913Y-76453652D01*
X190407533Y-76379557D01*
X190464147Y-76362384D01*
X190577373Y-76328037D01*
X190643558Y-76321518D01*
X190709740Y-76315000D01*
X190798260Y-76315000D01*
X190864442Y-76321518D01*
X190864442Y-76321518D01*
G37*
G36*
X150026821Y-70281313D02*
X150026824Y-70281314D01*
X150026825Y-70281314D01*
X150187239Y-70329975D01*
X150187241Y-70329976D01*
X150187244Y-70329977D01*
X150335078Y-70408995D01*
X150464659Y-70515341D01*
X150571005Y-70644922D01*
X150650023Y-70792756D01*
X150698687Y-70953179D01*
X150715117Y-71120000D01*
X150698687Y-71286821D01*
X150650023Y-71447244D01*
X150571005Y-71595078D01*
X150464659Y-71724659D01*
X150335078Y-71831005D01*
X150187244Y-71910023D01*
X150187241Y-71910024D01*
X150187239Y-71910025D01*
X150026825Y-71958686D01*
X150026824Y-71958686D01*
X150026821Y-71958687D01*
X149901804Y-71971000D01*
X149818196Y-71971000D01*
X149693179Y-71958687D01*
X149693176Y-71958686D01*
X149693175Y-71958686D01*
X149532761Y-71910025D01*
X149532759Y-71910024D01*
X149532756Y-71910023D01*
X149384922Y-71831005D01*
X149255341Y-71724659D01*
X149148995Y-71595078D01*
X149069977Y-71447244D01*
X149021313Y-71286821D01*
X149004883Y-71120000D01*
X149021313Y-70953179D01*
X149069977Y-70792756D01*
X149148995Y-70644922D01*
X149255341Y-70515341D01*
X149384922Y-70408995D01*
X149532756Y-70329977D01*
X149532759Y-70329976D01*
X149532761Y-70329975D01*
X149693175Y-70281314D01*
X149693176Y-70281314D01*
X149693179Y-70281313D01*
X149818196Y-70269000D01*
X149901804Y-70269000D01*
X150026821Y-70281313D01*
X150026821Y-70281313D01*
G37*
G36*
X194726821Y-70281313D02*
X194726824Y-70281314D01*
X194726825Y-70281314D01*
X194887239Y-70329975D01*
X194887241Y-70329976D01*
X194887244Y-70329977D01*
X195035078Y-70408995D01*
X195164659Y-70515341D01*
X195271005Y-70644922D01*
X195350023Y-70792756D01*
X195398687Y-70953179D01*
X195415117Y-71120000D01*
X195398687Y-71286821D01*
X195350023Y-71447244D01*
X195271005Y-71595078D01*
X195164659Y-71724659D01*
X195035078Y-71831005D01*
X194887244Y-71910023D01*
X194887241Y-71910024D01*
X194887239Y-71910025D01*
X194726825Y-71958686D01*
X194726824Y-71958686D01*
X194726821Y-71958687D01*
X194601804Y-71971000D01*
X194518196Y-71971000D01*
X194393179Y-71958687D01*
X194393176Y-71958686D01*
X194393175Y-71958686D01*
X194232761Y-71910025D01*
X194232759Y-71910024D01*
X194232756Y-71910023D01*
X194084922Y-71831005D01*
X193955341Y-71724659D01*
X193848995Y-71595078D01*
X193769977Y-71447244D01*
X193721313Y-71286821D01*
X193704883Y-71120000D01*
X193721313Y-70953179D01*
X193769977Y-70792756D01*
X193848995Y-70644922D01*
X193955341Y-70515341D01*
X194084922Y-70408995D01*
X194232756Y-70329977D01*
X194232759Y-70329976D01*
X194232761Y-70329975D01*
X194393175Y-70281314D01*
X194393176Y-70281314D01*
X194393179Y-70281313D01*
X194518196Y-70269000D01*
X194601804Y-70269000D01*
X194726821Y-70281313D01*
X194726821Y-70281313D01*
G37*
G36*
X192186821Y-70281313D02*
X192186824Y-70281314D01*
X192186825Y-70281314D01*
X192347239Y-70329975D01*
X192347241Y-70329976D01*
X192347244Y-70329977D01*
X192495078Y-70408995D01*
X192624659Y-70515341D01*
X192731005Y-70644922D01*
X192810023Y-70792756D01*
X192858687Y-70953179D01*
X192875117Y-71120000D01*
X192858687Y-71286821D01*
X192810023Y-71447244D01*
X192731005Y-71595078D01*
X192624659Y-71724659D01*
X192495078Y-71831005D01*
X192347244Y-71910023D01*
X192347241Y-71910024D01*
X192347239Y-71910025D01*
X192186825Y-71958686D01*
X192186824Y-71958686D01*
X192186821Y-71958687D01*
X192061804Y-71971000D01*
X191978196Y-71971000D01*
X191853179Y-71958687D01*
X191853176Y-71958686D01*
X191853175Y-71958686D01*
X191692761Y-71910025D01*
X191692759Y-71910024D01*
X191692756Y-71910023D01*
X191544922Y-71831005D01*
X191415341Y-71724659D01*
X191308995Y-71595078D01*
X191229977Y-71447244D01*
X191181313Y-71286821D01*
X191164883Y-71120000D01*
X191181313Y-70953179D01*
X191229977Y-70792756D01*
X191308995Y-70644922D01*
X191415341Y-70515341D01*
X191544922Y-70408995D01*
X191692756Y-70329977D01*
X191692759Y-70329976D01*
X191692761Y-70329975D01*
X191853175Y-70281314D01*
X191853176Y-70281314D01*
X191853179Y-70281313D01*
X191978196Y-70269000D01*
X192061804Y-70269000D01*
X192186821Y-70281313D01*
X192186821Y-70281313D01*
G37*
G36*
X189646821Y-70281313D02*
X189646824Y-70281314D01*
X189646825Y-70281314D01*
X189807239Y-70329975D01*
X189807241Y-70329976D01*
X189807244Y-70329977D01*
X189955078Y-70408995D01*
X190084659Y-70515341D01*
X190191005Y-70644922D01*
X190270023Y-70792756D01*
X190318687Y-70953179D01*
X190335117Y-71120000D01*
X190318687Y-71286821D01*
X190270023Y-71447244D01*
X190191005Y-71595078D01*
X190084659Y-71724659D01*
X189955078Y-71831005D01*
X189807244Y-71910023D01*
X189807241Y-71910024D01*
X189807239Y-71910025D01*
X189646825Y-71958686D01*
X189646824Y-71958686D01*
X189646821Y-71958687D01*
X189521804Y-71971000D01*
X189438196Y-71971000D01*
X189313179Y-71958687D01*
X189313176Y-71958686D01*
X189313175Y-71958686D01*
X189152761Y-71910025D01*
X189152759Y-71910024D01*
X189152756Y-71910023D01*
X189004922Y-71831005D01*
X188875341Y-71724659D01*
X188768995Y-71595078D01*
X188689977Y-71447244D01*
X188641313Y-71286821D01*
X188624883Y-71120000D01*
X188641313Y-70953179D01*
X188689977Y-70792756D01*
X188768995Y-70644922D01*
X188875341Y-70515341D01*
X189004922Y-70408995D01*
X189152756Y-70329977D01*
X189152759Y-70329976D01*
X189152761Y-70329975D01*
X189313175Y-70281314D01*
X189313176Y-70281314D01*
X189313179Y-70281313D01*
X189438196Y-70269000D01*
X189521804Y-70269000D01*
X189646821Y-70281313D01*
X189646821Y-70281313D01*
G37*
G36*
X187106821Y-70281313D02*
X187106824Y-70281314D01*
X187106825Y-70281314D01*
X187267239Y-70329975D01*
X187267241Y-70329976D01*
X187267244Y-70329977D01*
X187415078Y-70408995D01*
X187544659Y-70515341D01*
X187651005Y-70644922D01*
X187730023Y-70792756D01*
X187778687Y-70953179D01*
X187795117Y-71120000D01*
X187778687Y-71286821D01*
X187730023Y-71447244D01*
X187651005Y-71595078D01*
X187544659Y-71724659D01*
X187415078Y-71831005D01*
X187267244Y-71910023D01*
X187267241Y-71910024D01*
X187267239Y-71910025D01*
X187106825Y-71958686D01*
X187106824Y-71958686D01*
X187106821Y-71958687D01*
X186981804Y-71971000D01*
X186898196Y-71971000D01*
X186773179Y-71958687D01*
X186773176Y-71958686D01*
X186773175Y-71958686D01*
X186612761Y-71910025D01*
X186612759Y-71910024D01*
X186612756Y-71910023D01*
X186464922Y-71831005D01*
X186335341Y-71724659D01*
X186228995Y-71595078D01*
X186149977Y-71447244D01*
X186101313Y-71286821D01*
X186084883Y-71120000D01*
X186101313Y-70953179D01*
X186149977Y-70792756D01*
X186228995Y-70644922D01*
X186335341Y-70515341D01*
X186464922Y-70408995D01*
X186612756Y-70329977D01*
X186612759Y-70329976D01*
X186612761Y-70329975D01*
X186773175Y-70281314D01*
X186773176Y-70281314D01*
X186773179Y-70281313D01*
X186898196Y-70269000D01*
X186981804Y-70269000D01*
X187106821Y-70281313D01*
X187106821Y-70281313D01*
G37*
G36*
X184566821Y-70281313D02*
X184566824Y-70281314D01*
X184566825Y-70281314D01*
X184727239Y-70329975D01*
X184727241Y-70329976D01*
X184727244Y-70329977D01*
X184875078Y-70408995D01*
X185004659Y-70515341D01*
X185111005Y-70644922D01*
X185190023Y-70792756D01*
X185238687Y-70953179D01*
X185255117Y-71120000D01*
X185238687Y-71286821D01*
X185190023Y-71447244D01*
X185111005Y-71595078D01*
X185004659Y-71724659D01*
X184875078Y-71831005D01*
X184727244Y-71910023D01*
X184727241Y-71910024D01*
X184727239Y-71910025D01*
X184566825Y-71958686D01*
X184566824Y-71958686D01*
X184566821Y-71958687D01*
X184441804Y-71971000D01*
X184358196Y-71971000D01*
X184233179Y-71958687D01*
X184233176Y-71958686D01*
X184233175Y-71958686D01*
X184072761Y-71910025D01*
X184072759Y-71910024D01*
X184072756Y-71910023D01*
X183924922Y-71831005D01*
X183795341Y-71724659D01*
X183688995Y-71595078D01*
X183609977Y-71447244D01*
X183561313Y-71286821D01*
X183544883Y-71120000D01*
X183561313Y-70953179D01*
X183609977Y-70792756D01*
X183688995Y-70644922D01*
X183795341Y-70515341D01*
X183924922Y-70408995D01*
X184072756Y-70329977D01*
X184072759Y-70329976D01*
X184072761Y-70329975D01*
X184233175Y-70281314D01*
X184233176Y-70281314D01*
X184233179Y-70281313D01*
X184358196Y-70269000D01*
X184441804Y-70269000D01*
X184566821Y-70281313D01*
X184566821Y-70281313D01*
G37*
G36*
X182026821Y-70281313D02*
X182026824Y-70281314D01*
X182026825Y-70281314D01*
X182187239Y-70329975D01*
X182187241Y-70329976D01*
X182187244Y-70329977D01*
X182335078Y-70408995D01*
X182464659Y-70515341D01*
X182571005Y-70644922D01*
X182650023Y-70792756D01*
X182698687Y-70953179D01*
X182715117Y-71120000D01*
X182698687Y-71286821D01*
X182650023Y-71447244D01*
X182571005Y-71595078D01*
X182464659Y-71724659D01*
X182335078Y-71831005D01*
X182187244Y-71910023D01*
X182187241Y-71910024D01*
X182187239Y-71910025D01*
X182026825Y-71958686D01*
X182026824Y-71958686D01*
X182026821Y-71958687D01*
X181901804Y-71971000D01*
X181818196Y-71971000D01*
X181693179Y-71958687D01*
X181693176Y-71958686D01*
X181693175Y-71958686D01*
X181532761Y-71910025D01*
X181532759Y-71910024D01*
X181532756Y-71910023D01*
X181384922Y-71831005D01*
X181255341Y-71724659D01*
X181148995Y-71595078D01*
X181069977Y-71447244D01*
X181021313Y-71286821D01*
X181004883Y-71120000D01*
X181021313Y-70953179D01*
X181069977Y-70792756D01*
X181148995Y-70644922D01*
X181255341Y-70515341D01*
X181384922Y-70408995D01*
X181532756Y-70329977D01*
X181532759Y-70329976D01*
X181532761Y-70329975D01*
X181693175Y-70281314D01*
X181693176Y-70281314D01*
X181693179Y-70281313D01*
X181818196Y-70269000D01*
X181901804Y-70269000D01*
X182026821Y-70281313D01*
X182026821Y-70281313D01*
G37*
G36*
X179486821Y-70281313D02*
X179486824Y-70281314D01*
X179486825Y-70281314D01*
X179647239Y-70329975D01*
X179647241Y-70329976D01*
X179647244Y-70329977D01*
X179795078Y-70408995D01*
X179924659Y-70515341D01*
X180031005Y-70644922D01*
X180110023Y-70792756D01*
X180158687Y-70953179D01*
X180175117Y-71120000D01*
X180158687Y-71286821D01*
X180110023Y-71447244D01*
X180031005Y-71595078D01*
X179924659Y-71724659D01*
X179795078Y-71831005D01*
X179647244Y-71910023D01*
X179647241Y-71910024D01*
X179647239Y-71910025D01*
X179486825Y-71958686D01*
X179486824Y-71958686D01*
X179486821Y-71958687D01*
X179361804Y-71971000D01*
X179278196Y-71971000D01*
X179153179Y-71958687D01*
X179153176Y-71958686D01*
X179153175Y-71958686D01*
X178992761Y-71910025D01*
X178992759Y-71910024D01*
X178992756Y-71910023D01*
X178844922Y-71831005D01*
X178715341Y-71724659D01*
X178608995Y-71595078D01*
X178529977Y-71447244D01*
X178481313Y-71286821D01*
X178464883Y-71120000D01*
X178481313Y-70953179D01*
X178529977Y-70792756D01*
X178608995Y-70644922D01*
X178715341Y-70515341D01*
X178844922Y-70408995D01*
X178992756Y-70329977D01*
X178992759Y-70329976D01*
X178992761Y-70329975D01*
X179153175Y-70281314D01*
X179153176Y-70281314D01*
X179153179Y-70281313D01*
X179278196Y-70269000D01*
X179361804Y-70269000D01*
X179486821Y-70281313D01*
X179486821Y-70281313D01*
G37*
G36*
X176946821Y-70281313D02*
X176946824Y-70281314D01*
X176946825Y-70281314D01*
X177107239Y-70329975D01*
X177107241Y-70329976D01*
X177107244Y-70329977D01*
X177255078Y-70408995D01*
X177384659Y-70515341D01*
X177491005Y-70644922D01*
X177570023Y-70792756D01*
X177618687Y-70953179D01*
X177635117Y-71120000D01*
X177618687Y-71286821D01*
X177570023Y-71447244D01*
X177491005Y-71595078D01*
X177384659Y-71724659D01*
X177255078Y-71831005D01*
X177107244Y-71910023D01*
X177107241Y-71910024D01*
X177107239Y-71910025D01*
X176946825Y-71958686D01*
X176946824Y-71958686D01*
X176946821Y-71958687D01*
X176821804Y-71971000D01*
X176738196Y-71971000D01*
X176613179Y-71958687D01*
X176613176Y-71958686D01*
X176613175Y-71958686D01*
X176452761Y-71910025D01*
X176452759Y-71910024D01*
X176452756Y-71910023D01*
X176304922Y-71831005D01*
X176175341Y-71724659D01*
X176068995Y-71595078D01*
X175989977Y-71447244D01*
X175941313Y-71286821D01*
X175924883Y-71120000D01*
X175941313Y-70953179D01*
X175989977Y-70792756D01*
X176068995Y-70644922D01*
X176175341Y-70515341D01*
X176304922Y-70408995D01*
X176452756Y-70329977D01*
X176452759Y-70329976D01*
X176452761Y-70329975D01*
X176613175Y-70281314D01*
X176613176Y-70281314D01*
X176613179Y-70281313D01*
X176738196Y-70269000D01*
X176821804Y-70269000D01*
X176946821Y-70281313D01*
X176946821Y-70281313D01*
G37*
G36*
X172886821Y-70281313D02*
X172886824Y-70281314D01*
X172886825Y-70281314D01*
X173047239Y-70329975D01*
X173047241Y-70329976D01*
X173047244Y-70329977D01*
X173195078Y-70408995D01*
X173324659Y-70515341D01*
X173431005Y-70644922D01*
X173510023Y-70792756D01*
X173558687Y-70953179D01*
X173575117Y-71120000D01*
X173558687Y-71286821D01*
X173510023Y-71447244D01*
X173431005Y-71595078D01*
X173324659Y-71724659D01*
X173195078Y-71831005D01*
X173047244Y-71910023D01*
X173047241Y-71910024D01*
X173047239Y-71910025D01*
X172886825Y-71958686D01*
X172886824Y-71958686D01*
X172886821Y-71958687D01*
X172761804Y-71971000D01*
X172678196Y-71971000D01*
X172553179Y-71958687D01*
X172553176Y-71958686D01*
X172553175Y-71958686D01*
X172392761Y-71910025D01*
X172392759Y-71910024D01*
X172392756Y-71910023D01*
X172244922Y-71831005D01*
X172115341Y-71724659D01*
X172008995Y-71595078D01*
X171929977Y-71447244D01*
X171881313Y-71286821D01*
X171864883Y-71120000D01*
X171881313Y-70953179D01*
X171929977Y-70792756D01*
X172008995Y-70644922D01*
X172115341Y-70515341D01*
X172244922Y-70408995D01*
X172392756Y-70329977D01*
X172392759Y-70329976D01*
X172392761Y-70329975D01*
X172553175Y-70281314D01*
X172553176Y-70281314D01*
X172553179Y-70281313D01*
X172678196Y-70269000D01*
X172761804Y-70269000D01*
X172886821Y-70281313D01*
X172886821Y-70281313D01*
G37*
G36*
X170346821Y-70281313D02*
X170346824Y-70281314D01*
X170346825Y-70281314D01*
X170507239Y-70329975D01*
X170507241Y-70329976D01*
X170507244Y-70329977D01*
X170655078Y-70408995D01*
X170784659Y-70515341D01*
X170891005Y-70644922D01*
X170970023Y-70792756D01*
X171018687Y-70953179D01*
X171035117Y-71120000D01*
X171018687Y-71286821D01*
X170970023Y-71447244D01*
X170891005Y-71595078D01*
X170784659Y-71724659D01*
X170655078Y-71831005D01*
X170507244Y-71910023D01*
X170507241Y-71910024D01*
X170507239Y-71910025D01*
X170346825Y-71958686D01*
X170346824Y-71958686D01*
X170346821Y-71958687D01*
X170221804Y-71971000D01*
X170138196Y-71971000D01*
X170013179Y-71958687D01*
X170013176Y-71958686D01*
X170013175Y-71958686D01*
X169852761Y-71910025D01*
X169852759Y-71910024D01*
X169852756Y-71910023D01*
X169704922Y-71831005D01*
X169575341Y-71724659D01*
X169468995Y-71595078D01*
X169389977Y-71447244D01*
X169341313Y-71286821D01*
X169324883Y-71120000D01*
X169341313Y-70953179D01*
X169389977Y-70792756D01*
X169468995Y-70644922D01*
X169575341Y-70515341D01*
X169704922Y-70408995D01*
X169852756Y-70329977D01*
X169852759Y-70329976D01*
X169852761Y-70329975D01*
X170013175Y-70281314D01*
X170013176Y-70281314D01*
X170013179Y-70281313D01*
X170138196Y-70269000D01*
X170221804Y-70269000D01*
X170346821Y-70281313D01*
X170346821Y-70281313D01*
G37*
G36*
X167806821Y-70281313D02*
X167806824Y-70281314D01*
X167806825Y-70281314D01*
X167967239Y-70329975D01*
X167967241Y-70329976D01*
X167967244Y-70329977D01*
X168115078Y-70408995D01*
X168244659Y-70515341D01*
X168351005Y-70644922D01*
X168430023Y-70792756D01*
X168478687Y-70953179D01*
X168495117Y-71120000D01*
X168478687Y-71286821D01*
X168430023Y-71447244D01*
X168351005Y-71595078D01*
X168244659Y-71724659D01*
X168115078Y-71831005D01*
X167967244Y-71910023D01*
X167967241Y-71910024D01*
X167967239Y-71910025D01*
X167806825Y-71958686D01*
X167806824Y-71958686D01*
X167806821Y-71958687D01*
X167681804Y-71971000D01*
X167598196Y-71971000D01*
X167473179Y-71958687D01*
X167473176Y-71958686D01*
X167473175Y-71958686D01*
X167312761Y-71910025D01*
X167312759Y-71910024D01*
X167312756Y-71910023D01*
X167164922Y-71831005D01*
X167035341Y-71724659D01*
X166928995Y-71595078D01*
X166849977Y-71447244D01*
X166801313Y-71286821D01*
X166784883Y-71120000D01*
X166801313Y-70953179D01*
X166849977Y-70792756D01*
X166928995Y-70644922D01*
X167035341Y-70515341D01*
X167164922Y-70408995D01*
X167312756Y-70329977D01*
X167312759Y-70329976D01*
X167312761Y-70329975D01*
X167473175Y-70281314D01*
X167473176Y-70281314D01*
X167473179Y-70281313D01*
X167598196Y-70269000D01*
X167681804Y-70269000D01*
X167806821Y-70281313D01*
X167806821Y-70281313D01*
G37*
G36*
X165266821Y-70281313D02*
X165266824Y-70281314D01*
X165266825Y-70281314D01*
X165427239Y-70329975D01*
X165427241Y-70329976D01*
X165427244Y-70329977D01*
X165575078Y-70408995D01*
X165704659Y-70515341D01*
X165811005Y-70644922D01*
X165890023Y-70792756D01*
X165938687Y-70953179D01*
X165955117Y-71120000D01*
X165938687Y-71286821D01*
X165890023Y-71447244D01*
X165811005Y-71595078D01*
X165704659Y-71724659D01*
X165575078Y-71831005D01*
X165427244Y-71910023D01*
X165427241Y-71910024D01*
X165427239Y-71910025D01*
X165266825Y-71958686D01*
X165266824Y-71958686D01*
X165266821Y-71958687D01*
X165141804Y-71971000D01*
X165058196Y-71971000D01*
X164933179Y-71958687D01*
X164933176Y-71958686D01*
X164933175Y-71958686D01*
X164772761Y-71910025D01*
X164772759Y-71910024D01*
X164772756Y-71910023D01*
X164624922Y-71831005D01*
X164495341Y-71724659D01*
X164388995Y-71595078D01*
X164309977Y-71447244D01*
X164261313Y-71286821D01*
X164244883Y-71120000D01*
X164261313Y-70953179D01*
X164309977Y-70792756D01*
X164388995Y-70644922D01*
X164495341Y-70515341D01*
X164624922Y-70408995D01*
X164772756Y-70329977D01*
X164772759Y-70329976D01*
X164772761Y-70329975D01*
X164933175Y-70281314D01*
X164933176Y-70281314D01*
X164933179Y-70281313D01*
X165058196Y-70269000D01*
X165141804Y-70269000D01*
X165266821Y-70281313D01*
X165266821Y-70281313D01*
G37*
G36*
X162726821Y-70281313D02*
X162726824Y-70281314D01*
X162726825Y-70281314D01*
X162887239Y-70329975D01*
X162887241Y-70329976D01*
X162887244Y-70329977D01*
X163035078Y-70408995D01*
X163164659Y-70515341D01*
X163271005Y-70644922D01*
X163350023Y-70792756D01*
X163398687Y-70953179D01*
X163415117Y-71120000D01*
X163398687Y-71286821D01*
X163350023Y-71447244D01*
X163271005Y-71595078D01*
X163164659Y-71724659D01*
X163035078Y-71831005D01*
X162887244Y-71910023D01*
X162887241Y-71910024D01*
X162887239Y-71910025D01*
X162726825Y-71958686D01*
X162726824Y-71958686D01*
X162726821Y-71958687D01*
X162601804Y-71971000D01*
X162518196Y-71971000D01*
X162393179Y-71958687D01*
X162393176Y-71958686D01*
X162393175Y-71958686D01*
X162232761Y-71910025D01*
X162232759Y-71910024D01*
X162232756Y-71910023D01*
X162084922Y-71831005D01*
X161955341Y-71724659D01*
X161848995Y-71595078D01*
X161769977Y-71447244D01*
X161721313Y-71286821D01*
X161704883Y-71120000D01*
X161721313Y-70953179D01*
X161769977Y-70792756D01*
X161848995Y-70644922D01*
X161955341Y-70515341D01*
X162084922Y-70408995D01*
X162232756Y-70329977D01*
X162232759Y-70329976D01*
X162232761Y-70329975D01*
X162393175Y-70281314D01*
X162393176Y-70281314D01*
X162393179Y-70281313D01*
X162518196Y-70269000D01*
X162601804Y-70269000D01*
X162726821Y-70281313D01*
X162726821Y-70281313D01*
G37*
G36*
X160186821Y-70281313D02*
X160186824Y-70281314D01*
X160186825Y-70281314D01*
X160347239Y-70329975D01*
X160347241Y-70329976D01*
X160347244Y-70329977D01*
X160495078Y-70408995D01*
X160624659Y-70515341D01*
X160731005Y-70644922D01*
X160810023Y-70792756D01*
X160858687Y-70953179D01*
X160875117Y-71120000D01*
X160858687Y-71286821D01*
X160810023Y-71447244D01*
X160731005Y-71595078D01*
X160624659Y-71724659D01*
X160495078Y-71831005D01*
X160347244Y-71910023D01*
X160347241Y-71910024D01*
X160347239Y-71910025D01*
X160186825Y-71958686D01*
X160186824Y-71958686D01*
X160186821Y-71958687D01*
X160061804Y-71971000D01*
X159978196Y-71971000D01*
X159853179Y-71958687D01*
X159853176Y-71958686D01*
X159853175Y-71958686D01*
X159692761Y-71910025D01*
X159692759Y-71910024D01*
X159692756Y-71910023D01*
X159544922Y-71831005D01*
X159415341Y-71724659D01*
X159308995Y-71595078D01*
X159229977Y-71447244D01*
X159181313Y-71286821D01*
X159164883Y-71120000D01*
X159181313Y-70953179D01*
X159229977Y-70792756D01*
X159308995Y-70644922D01*
X159415341Y-70515341D01*
X159544922Y-70408995D01*
X159692756Y-70329977D01*
X159692759Y-70329976D01*
X159692761Y-70329975D01*
X159853175Y-70281314D01*
X159853176Y-70281314D01*
X159853179Y-70281313D01*
X159978196Y-70269000D01*
X160061804Y-70269000D01*
X160186821Y-70281313D01*
X160186821Y-70281313D01*
G37*
G36*
X157646821Y-70281313D02*
X157646824Y-70281314D01*
X157646825Y-70281314D01*
X157807239Y-70329975D01*
X157807241Y-70329976D01*
X157807244Y-70329977D01*
X157955078Y-70408995D01*
X158084659Y-70515341D01*
X158191005Y-70644922D01*
X158270023Y-70792756D01*
X158318687Y-70953179D01*
X158335117Y-71120000D01*
X158318687Y-71286821D01*
X158270023Y-71447244D01*
X158191005Y-71595078D01*
X158084659Y-71724659D01*
X157955078Y-71831005D01*
X157807244Y-71910023D01*
X157807241Y-71910024D01*
X157807239Y-71910025D01*
X157646825Y-71958686D01*
X157646824Y-71958686D01*
X157646821Y-71958687D01*
X157521804Y-71971000D01*
X157438196Y-71971000D01*
X157313179Y-71958687D01*
X157313176Y-71958686D01*
X157313175Y-71958686D01*
X157152761Y-71910025D01*
X157152759Y-71910024D01*
X157152756Y-71910023D01*
X157004922Y-71831005D01*
X156875341Y-71724659D01*
X156768995Y-71595078D01*
X156689977Y-71447244D01*
X156641313Y-71286821D01*
X156624883Y-71120000D01*
X156641313Y-70953179D01*
X156689977Y-70792756D01*
X156768995Y-70644922D01*
X156875341Y-70515341D01*
X157004922Y-70408995D01*
X157152756Y-70329977D01*
X157152759Y-70329976D01*
X157152761Y-70329975D01*
X157313175Y-70281314D01*
X157313176Y-70281314D01*
X157313179Y-70281313D01*
X157438196Y-70269000D01*
X157521804Y-70269000D01*
X157646821Y-70281313D01*
X157646821Y-70281313D01*
G37*
G36*
X152566821Y-70281313D02*
X152566824Y-70281314D01*
X152566825Y-70281314D01*
X152727239Y-70329975D01*
X152727241Y-70329976D01*
X152727244Y-70329977D01*
X152875078Y-70408995D01*
X153004659Y-70515341D01*
X153111005Y-70644922D01*
X153190023Y-70792756D01*
X153238687Y-70953179D01*
X153255117Y-71120000D01*
X153238687Y-71286821D01*
X153190023Y-71447244D01*
X153111005Y-71595078D01*
X153004659Y-71724659D01*
X152875078Y-71831005D01*
X152727244Y-71910023D01*
X152727241Y-71910024D01*
X152727239Y-71910025D01*
X152566825Y-71958686D01*
X152566824Y-71958686D01*
X152566821Y-71958687D01*
X152441804Y-71971000D01*
X152358196Y-71971000D01*
X152233179Y-71958687D01*
X152233176Y-71958686D01*
X152233175Y-71958686D01*
X152072761Y-71910025D01*
X152072759Y-71910024D01*
X152072756Y-71910023D01*
X151924922Y-71831005D01*
X151795341Y-71724659D01*
X151688995Y-71595078D01*
X151609977Y-71447244D01*
X151561313Y-71286821D01*
X151544883Y-71120000D01*
X151561313Y-70953179D01*
X151609977Y-70792756D01*
X151688995Y-70644922D01*
X151795341Y-70515341D01*
X151924922Y-70408995D01*
X152072756Y-70329977D01*
X152072759Y-70329976D01*
X152072761Y-70329975D01*
X152233175Y-70281314D01*
X152233176Y-70281314D01*
X152233179Y-70281313D01*
X152358196Y-70269000D01*
X152441804Y-70269000D01*
X152566821Y-70281313D01*
X152566821Y-70281313D01*
G37*
G36*
X155106821Y-70281313D02*
X155106824Y-70281314D01*
X155106825Y-70281314D01*
X155267239Y-70329975D01*
X155267241Y-70329976D01*
X155267244Y-70329977D01*
X155415078Y-70408995D01*
X155544659Y-70515341D01*
X155651005Y-70644922D01*
X155730023Y-70792756D01*
X155778687Y-70953179D01*
X155795117Y-71120000D01*
X155778687Y-71286821D01*
X155730023Y-71447244D01*
X155651005Y-71595078D01*
X155544659Y-71724659D01*
X155415078Y-71831005D01*
X155267244Y-71910023D01*
X155267241Y-71910024D01*
X155267239Y-71910025D01*
X155106825Y-71958686D01*
X155106824Y-71958686D01*
X155106821Y-71958687D01*
X154981804Y-71971000D01*
X154898196Y-71971000D01*
X154773179Y-71958687D01*
X154773176Y-71958686D01*
X154773175Y-71958686D01*
X154612761Y-71910025D01*
X154612759Y-71910024D01*
X154612756Y-71910023D01*
X154464922Y-71831005D01*
X154335341Y-71724659D01*
X154228995Y-71595078D01*
X154149977Y-71447244D01*
X154101313Y-71286821D01*
X154084883Y-71120000D01*
X154101313Y-70953179D01*
X154149977Y-70792756D01*
X154228995Y-70644922D01*
X154335341Y-70515341D01*
X154464922Y-70408995D01*
X154612756Y-70329977D01*
X154612759Y-70329976D01*
X154612761Y-70329975D01*
X154773175Y-70281314D01*
X154773176Y-70281314D01*
X154773179Y-70281313D01*
X154898196Y-70269000D01*
X154981804Y-70269000D01*
X155106821Y-70281313D01*
X155106821Y-70281313D01*
G37*
M02*
