G04 #@! TF.GenerationSoftware,KiCad,Pcbnew,(5.0.2)-1*
G04 #@! TF.CreationDate,2019-02-28T21:58:43-06:00*
G04 #@! TF.ProjectId,ATMEGABootloader_Hardware,41544d45-4741-4426-9f6f-746c6f616465,rev?*
G04 #@! TF.SameCoordinates,Original*
G04 #@! TF.FileFunction,Legend,Bot*
G04 #@! TF.FilePolarity,Positive*
%FSLAX46Y46*%
G04 Gerber Fmt 4.6, Leading zero omitted, Abs format (unit mm)*
G04 Created by KiCad (PCBNEW (5.0.2)-1) date 2/28/2019 9:58:43 PM*
%MOMM*%
%LPD*%
G01*
G04 APERTURE LIST*
%ADD10C,0.120000*%
%ADD11C,0.150000*%
G04 APERTURE END LIST*
D10*
G04 #@! TO.C,A1*
X199770000Y-84070000D02*
X199770000Y-116840000D01*
X199770000Y-116840000D02*
X197230000Y-119380000D01*
X197230000Y-119380000D02*
X197230000Y-122050000D01*
X197230000Y-122050000D02*
X130930000Y-122050000D01*
X130930000Y-122050000D02*
X130930000Y-118870000D01*
X130930000Y-118870000D02*
X129030000Y-118870000D01*
X129030000Y-118870000D02*
X129030000Y-109730000D01*
X129030000Y-109730000D02*
X130930000Y-109730000D01*
X130930000Y-109730000D02*
X130930000Y-89660000D01*
X130930000Y-89660000D02*
X124580000Y-89660000D01*
X124580000Y-89660000D02*
X124580000Y-77980000D01*
X124580000Y-77980000D02*
X130930000Y-77980000D01*
X130930000Y-77980000D02*
X130930000Y-68450000D01*
X130930000Y-68450000D02*
X195580000Y-68450000D01*
X195580000Y-68450000D02*
X197230000Y-70100000D01*
X197230000Y-70100000D02*
X197230000Y-81530000D01*
X197230000Y-81530000D02*
X199770000Y-84070000D01*
D11*
X160984285Y-123356666D02*
X160508095Y-123356666D01*
X161079523Y-123642380D02*
X160746190Y-122642380D01*
X160412857Y-123642380D01*
X159555714Y-123642380D02*
X160127142Y-123642380D01*
X159841428Y-123642380D02*
X159841428Y-122642380D01*
X159936666Y-122785238D01*
X160031904Y-122880476D01*
X160127142Y-122928095D01*
G04 #@! TD*
M02*
