G04 #@! TF.GenerationSoftware,KiCad,Pcbnew,(5.0.2)-1*
G04 #@! TF.CreationDate,2020-05-31T20:37:23-05:00*
G04 #@! TF.ProjectId,ATMEGABootloader_Hardware,41544d45-4741-4426-9f6f-746c6f616465,rev?*
G04 #@! TF.SameCoordinates,Original*
G04 #@! TF.FileFunction,Paste,Top*
G04 #@! TF.FilePolarity,Positive*
%FSLAX46Y46*%
G04 Gerber Fmt 4.6, Leading zero omitted, Abs format (unit mm)*
G04 Created by KiCad (PCBNEW (5.0.2)-1) date 5/31/2020 8:37:23 PM*
%MOMM*%
%LPD*%
G01*
G04 APERTURE LIST*
%ADD10C,0.100000*%
%ADD11C,0.950000*%
G04 APERTURE END LIST*
D10*
G04 #@! TO.C,R1*
G36*
X149358779Y-99326144D02*
X149381834Y-99329563D01*
X149404443Y-99335227D01*
X149426387Y-99343079D01*
X149447457Y-99353044D01*
X149467448Y-99365026D01*
X149486168Y-99378910D01*
X149503438Y-99394562D01*
X149519090Y-99411832D01*
X149532974Y-99430552D01*
X149544956Y-99450543D01*
X149554921Y-99471613D01*
X149562773Y-99493557D01*
X149568437Y-99516166D01*
X149571856Y-99539221D01*
X149573000Y-99562500D01*
X149573000Y-100137500D01*
X149571856Y-100160779D01*
X149568437Y-100183834D01*
X149562773Y-100206443D01*
X149554921Y-100228387D01*
X149544956Y-100249457D01*
X149532974Y-100269448D01*
X149519090Y-100288168D01*
X149503438Y-100305438D01*
X149486168Y-100321090D01*
X149467448Y-100334974D01*
X149447457Y-100346956D01*
X149426387Y-100356921D01*
X149404443Y-100364773D01*
X149381834Y-100370437D01*
X149358779Y-100373856D01*
X149335500Y-100375000D01*
X148860500Y-100375000D01*
X148837221Y-100373856D01*
X148814166Y-100370437D01*
X148791557Y-100364773D01*
X148769613Y-100356921D01*
X148748543Y-100346956D01*
X148728552Y-100334974D01*
X148709832Y-100321090D01*
X148692562Y-100305438D01*
X148676910Y-100288168D01*
X148663026Y-100269448D01*
X148651044Y-100249457D01*
X148641079Y-100228387D01*
X148633227Y-100206443D01*
X148627563Y-100183834D01*
X148624144Y-100160779D01*
X148623000Y-100137500D01*
X148623000Y-99562500D01*
X148624144Y-99539221D01*
X148627563Y-99516166D01*
X148633227Y-99493557D01*
X148641079Y-99471613D01*
X148651044Y-99450543D01*
X148663026Y-99430552D01*
X148676910Y-99411832D01*
X148692562Y-99394562D01*
X148709832Y-99378910D01*
X148728552Y-99365026D01*
X148748543Y-99353044D01*
X148769613Y-99343079D01*
X148791557Y-99335227D01*
X148814166Y-99329563D01*
X148837221Y-99326144D01*
X148860500Y-99325000D01*
X149335500Y-99325000D01*
X149358779Y-99326144D01*
X149358779Y-99326144D01*
G37*
D11*
X149098000Y-99850000D03*
D10*
G36*
X149358779Y-101076144D02*
X149381834Y-101079563D01*
X149404443Y-101085227D01*
X149426387Y-101093079D01*
X149447457Y-101103044D01*
X149467448Y-101115026D01*
X149486168Y-101128910D01*
X149503438Y-101144562D01*
X149519090Y-101161832D01*
X149532974Y-101180552D01*
X149544956Y-101200543D01*
X149554921Y-101221613D01*
X149562773Y-101243557D01*
X149568437Y-101266166D01*
X149571856Y-101289221D01*
X149573000Y-101312500D01*
X149573000Y-101887500D01*
X149571856Y-101910779D01*
X149568437Y-101933834D01*
X149562773Y-101956443D01*
X149554921Y-101978387D01*
X149544956Y-101999457D01*
X149532974Y-102019448D01*
X149519090Y-102038168D01*
X149503438Y-102055438D01*
X149486168Y-102071090D01*
X149467448Y-102084974D01*
X149447457Y-102096956D01*
X149426387Y-102106921D01*
X149404443Y-102114773D01*
X149381834Y-102120437D01*
X149358779Y-102123856D01*
X149335500Y-102125000D01*
X148860500Y-102125000D01*
X148837221Y-102123856D01*
X148814166Y-102120437D01*
X148791557Y-102114773D01*
X148769613Y-102106921D01*
X148748543Y-102096956D01*
X148728552Y-102084974D01*
X148709832Y-102071090D01*
X148692562Y-102055438D01*
X148676910Y-102038168D01*
X148663026Y-102019448D01*
X148651044Y-101999457D01*
X148641079Y-101978387D01*
X148633227Y-101956443D01*
X148627563Y-101933834D01*
X148624144Y-101910779D01*
X148623000Y-101887500D01*
X148623000Y-101312500D01*
X148624144Y-101289221D01*
X148627563Y-101266166D01*
X148633227Y-101243557D01*
X148641079Y-101221613D01*
X148651044Y-101200543D01*
X148663026Y-101180552D01*
X148676910Y-101161832D01*
X148692562Y-101144562D01*
X148709832Y-101128910D01*
X148728552Y-101115026D01*
X148748543Y-101103044D01*
X148769613Y-101093079D01*
X148791557Y-101085227D01*
X148814166Y-101079563D01*
X148837221Y-101076144D01*
X148860500Y-101075000D01*
X149335500Y-101075000D01*
X149358779Y-101076144D01*
X149358779Y-101076144D01*
G37*
D11*
X149098000Y-101600000D03*
G04 #@! TD*
D10*
G04 #@! TO.C,C1*
G36*
X182400779Y-113826144D02*
X182423834Y-113829563D01*
X182446443Y-113835227D01*
X182468387Y-113843079D01*
X182489457Y-113853044D01*
X182509448Y-113865026D01*
X182528168Y-113878910D01*
X182545438Y-113894562D01*
X182561090Y-113911832D01*
X182574974Y-113930552D01*
X182586956Y-113950543D01*
X182596921Y-113971613D01*
X182604773Y-113993557D01*
X182610437Y-114016166D01*
X182613856Y-114039221D01*
X182615000Y-114062500D01*
X182615000Y-114537500D01*
X182613856Y-114560779D01*
X182610437Y-114583834D01*
X182604773Y-114606443D01*
X182596921Y-114628387D01*
X182586956Y-114649457D01*
X182574974Y-114669448D01*
X182561090Y-114688168D01*
X182545438Y-114705438D01*
X182528168Y-114721090D01*
X182509448Y-114734974D01*
X182489457Y-114746956D01*
X182468387Y-114756921D01*
X182446443Y-114764773D01*
X182423834Y-114770437D01*
X182400779Y-114773856D01*
X182377500Y-114775000D01*
X181802500Y-114775000D01*
X181779221Y-114773856D01*
X181756166Y-114770437D01*
X181733557Y-114764773D01*
X181711613Y-114756921D01*
X181690543Y-114746956D01*
X181670552Y-114734974D01*
X181651832Y-114721090D01*
X181634562Y-114705438D01*
X181618910Y-114688168D01*
X181605026Y-114669448D01*
X181593044Y-114649457D01*
X181583079Y-114628387D01*
X181575227Y-114606443D01*
X181569563Y-114583834D01*
X181566144Y-114560779D01*
X181565000Y-114537500D01*
X181565000Y-114062500D01*
X181566144Y-114039221D01*
X181569563Y-114016166D01*
X181575227Y-113993557D01*
X181583079Y-113971613D01*
X181593044Y-113950543D01*
X181605026Y-113930552D01*
X181618910Y-113911832D01*
X181634562Y-113894562D01*
X181651832Y-113878910D01*
X181670552Y-113865026D01*
X181690543Y-113853044D01*
X181711613Y-113843079D01*
X181733557Y-113835227D01*
X181756166Y-113829563D01*
X181779221Y-113826144D01*
X181802500Y-113825000D01*
X182377500Y-113825000D01*
X182400779Y-113826144D01*
X182400779Y-113826144D01*
G37*
D11*
X182090000Y-114300000D03*
D10*
G36*
X180650779Y-113826144D02*
X180673834Y-113829563D01*
X180696443Y-113835227D01*
X180718387Y-113843079D01*
X180739457Y-113853044D01*
X180759448Y-113865026D01*
X180778168Y-113878910D01*
X180795438Y-113894562D01*
X180811090Y-113911832D01*
X180824974Y-113930552D01*
X180836956Y-113950543D01*
X180846921Y-113971613D01*
X180854773Y-113993557D01*
X180860437Y-114016166D01*
X180863856Y-114039221D01*
X180865000Y-114062500D01*
X180865000Y-114537500D01*
X180863856Y-114560779D01*
X180860437Y-114583834D01*
X180854773Y-114606443D01*
X180846921Y-114628387D01*
X180836956Y-114649457D01*
X180824974Y-114669448D01*
X180811090Y-114688168D01*
X180795438Y-114705438D01*
X180778168Y-114721090D01*
X180759448Y-114734974D01*
X180739457Y-114746956D01*
X180718387Y-114756921D01*
X180696443Y-114764773D01*
X180673834Y-114770437D01*
X180650779Y-114773856D01*
X180627500Y-114775000D01*
X180052500Y-114775000D01*
X180029221Y-114773856D01*
X180006166Y-114770437D01*
X179983557Y-114764773D01*
X179961613Y-114756921D01*
X179940543Y-114746956D01*
X179920552Y-114734974D01*
X179901832Y-114721090D01*
X179884562Y-114705438D01*
X179868910Y-114688168D01*
X179855026Y-114669448D01*
X179843044Y-114649457D01*
X179833079Y-114628387D01*
X179825227Y-114606443D01*
X179819563Y-114583834D01*
X179816144Y-114560779D01*
X179815000Y-114537500D01*
X179815000Y-114062500D01*
X179816144Y-114039221D01*
X179819563Y-114016166D01*
X179825227Y-113993557D01*
X179833079Y-113971613D01*
X179843044Y-113950543D01*
X179855026Y-113930552D01*
X179868910Y-113911832D01*
X179884562Y-113894562D01*
X179901832Y-113878910D01*
X179920552Y-113865026D01*
X179940543Y-113853044D01*
X179961613Y-113843079D01*
X179983557Y-113835227D01*
X180006166Y-113829563D01*
X180029221Y-113826144D01*
X180052500Y-113825000D01*
X180627500Y-113825000D01*
X180650779Y-113826144D01*
X180650779Y-113826144D01*
G37*
D11*
X180340000Y-114300000D03*
G04 #@! TD*
D10*
G04 #@! TO.C,C2*
G36*
X185730779Y-113826144D02*
X185753834Y-113829563D01*
X185776443Y-113835227D01*
X185798387Y-113843079D01*
X185819457Y-113853044D01*
X185839448Y-113865026D01*
X185858168Y-113878910D01*
X185875438Y-113894562D01*
X185891090Y-113911832D01*
X185904974Y-113930552D01*
X185916956Y-113950543D01*
X185926921Y-113971613D01*
X185934773Y-113993557D01*
X185940437Y-114016166D01*
X185943856Y-114039221D01*
X185945000Y-114062500D01*
X185945000Y-114537500D01*
X185943856Y-114560779D01*
X185940437Y-114583834D01*
X185934773Y-114606443D01*
X185926921Y-114628387D01*
X185916956Y-114649457D01*
X185904974Y-114669448D01*
X185891090Y-114688168D01*
X185875438Y-114705438D01*
X185858168Y-114721090D01*
X185839448Y-114734974D01*
X185819457Y-114746956D01*
X185798387Y-114756921D01*
X185776443Y-114764773D01*
X185753834Y-114770437D01*
X185730779Y-114773856D01*
X185707500Y-114775000D01*
X185132500Y-114775000D01*
X185109221Y-114773856D01*
X185086166Y-114770437D01*
X185063557Y-114764773D01*
X185041613Y-114756921D01*
X185020543Y-114746956D01*
X185000552Y-114734974D01*
X184981832Y-114721090D01*
X184964562Y-114705438D01*
X184948910Y-114688168D01*
X184935026Y-114669448D01*
X184923044Y-114649457D01*
X184913079Y-114628387D01*
X184905227Y-114606443D01*
X184899563Y-114583834D01*
X184896144Y-114560779D01*
X184895000Y-114537500D01*
X184895000Y-114062500D01*
X184896144Y-114039221D01*
X184899563Y-114016166D01*
X184905227Y-113993557D01*
X184913079Y-113971613D01*
X184923044Y-113950543D01*
X184935026Y-113930552D01*
X184948910Y-113911832D01*
X184964562Y-113894562D01*
X184981832Y-113878910D01*
X185000552Y-113865026D01*
X185020543Y-113853044D01*
X185041613Y-113843079D01*
X185063557Y-113835227D01*
X185086166Y-113829563D01*
X185109221Y-113826144D01*
X185132500Y-113825000D01*
X185707500Y-113825000D01*
X185730779Y-113826144D01*
X185730779Y-113826144D01*
G37*
D11*
X185420000Y-114300000D03*
D10*
G36*
X183980779Y-113826144D02*
X184003834Y-113829563D01*
X184026443Y-113835227D01*
X184048387Y-113843079D01*
X184069457Y-113853044D01*
X184089448Y-113865026D01*
X184108168Y-113878910D01*
X184125438Y-113894562D01*
X184141090Y-113911832D01*
X184154974Y-113930552D01*
X184166956Y-113950543D01*
X184176921Y-113971613D01*
X184184773Y-113993557D01*
X184190437Y-114016166D01*
X184193856Y-114039221D01*
X184195000Y-114062500D01*
X184195000Y-114537500D01*
X184193856Y-114560779D01*
X184190437Y-114583834D01*
X184184773Y-114606443D01*
X184176921Y-114628387D01*
X184166956Y-114649457D01*
X184154974Y-114669448D01*
X184141090Y-114688168D01*
X184125438Y-114705438D01*
X184108168Y-114721090D01*
X184089448Y-114734974D01*
X184069457Y-114746956D01*
X184048387Y-114756921D01*
X184026443Y-114764773D01*
X184003834Y-114770437D01*
X183980779Y-114773856D01*
X183957500Y-114775000D01*
X183382500Y-114775000D01*
X183359221Y-114773856D01*
X183336166Y-114770437D01*
X183313557Y-114764773D01*
X183291613Y-114756921D01*
X183270543Y-114746956D01*
X183250552Y-114734974D01*
X183231832Y-114721090D01*
X183214562Y-114705438D01*
X183198910Y-114688168D01*
X183185026Y-114669448D01*
X183173044Y-114649457D01*
X183163079Y-114628387D01*
X183155227Y-114606443D01*
X183149563Y-114583834D01*
X183146144Y-114560779D01*
X183145000Y-114537500D01*
X183145000Y-114062500D01*
X183146144Y-114039221D01*
X183149563Y-114016166D01*
X183155227Y-113993557D01*
X183163079Y-113971613D01*
X183173044Y-113950543D01*
X183185026Y-113930552D01*
X183198910Y-113911832D01*
X183214562Y-113894562D01*
X183231832Y-113878910D01*
X183250552Y-113865026D01*
X183270543Y-113853044D01*
X183291613Y-113843079D01*
X183313557Y-113835227D01*
X183336166Y-113829563D01*
X183359221Y-113826144D01*
X183382500Y-113825000D01*
X183957500Y-113825000D01*
X183980779Y-113826144D01*
X183980779Y-113826144D01*
G37*
D11*
X183670000Y-114300000D03*
G04 #@! TD*
M02*
